<mxfile host="Electron" agent="Mozilla/5.0 (Windows NT 10.0; Win64; x64) AppleWebKit/537.36 (KHTML, like Gecko) draw.io/27.0.9 Chrome/134.0.6998.205 Electron/35.4.0 Safari/537.36" version="27.0.9">
  <diagram name="Page-1" id="YBKyLT3Vlpn6Fh8eOFCo">
    <mxGraphModel dx="2252" dy="580" grid="1" gridSize="10" guides="1" tooltips="1" connect="1" arrows="1" fold="1" page="1" pageScale="1" pageWidth="827" pageHeight="1169" math="0" shadow="0">
      <root>
        <mxCell id="0" />
        <mxCell id="1" parent="0" />
        <mxCell id="0-I5_G3RzfP3J93G6mHh-1" value="&lt;b&gt;&lt;font style=&quot;font-size: 14px;&quot;&gt;INTRODUCTION&amp;nbsp;&lt;br&gt;DAY-01&lt;/font&gt;&lt;/b&gt;" style="rounded=1;whiteSpace=wrap;html=1;fillColor=#fff2cc;gradientColor=#ffd966;strokeColor=#d6b656;" vertex="1" parent="1">
          <mxGeometry x="150" y="320" width="346" height="60" as="geometry" />
        </mxCell>
        <mxCell id="0-I5_G3RzfP3J93G6mHh-4" value="" style="edgeStyle=orthogonalEdgeStyle;rounded=0;orthogonalLoop=1;jettySize=auto;html=1;" edge="1" parent="1" source="0-I5_G3RzfP3J93G6mHh-2" target="0-I5_G3RzfP3J93G6mHh-3">
          <mxGeometry relative="1" as="geometry" />
        </mxCell>
        <mxCell id="0-I5_G3RzfP3J93G6mHh-6" value="" style="edgeStyle=orthogonalEdgeStyle;rounded=0;orthogonalLoop=1;jettySize=auto;html=1;" edge="1" parent="1" source="0-I5_G3RzfP3J93G6mHh-2" target="0-I5_G3RzfP3J93G6mHh-5">
          <mxGeometry relative="1" as="geometry" />
        </mxCell>
        <mxCell id="0-I5_G3RzfP3J93G6mHh-2" value="&lt;b&gt;&lt;font style=&quot;font-size: 14px;&quot;&gt;Devops + Cloud&lt;/font&gt;&lt;/b&gt;" style="rounded=1;whiteSpace=wrap;html=1;fillColor=#dae8fc;gradientColor=#7ea6e0;strokeColor=#6c8ebf;" vertex="1" parent="1">
          <mxGeometry x="60" y="400" width="250" height="60" as="geometry" />
        </mxCell>
        <mxCell id="0-I5_G3RzfP3J93G6mHh-3" value="IT CLOUD" style="whiteSpace=wrap;html=1;fillColor=#dae8fc;strokeColor=#6c8ebf;rounded=1;gradientColor=#7ea6e0;" vertex="1" parent="1">
          <mxGeometry x="530" y="500" width="120" height="60" as="geometry" />
        </mxCell>
        <mxCell id="0-I5_G3RzfP3J93G6mHh-5" value="Telco Cloud" style="whiteSpace=wrap;html=1;fillColor=#dae8fc;strokeColor=#6c8ebf;rounded=1;gradientColor=#7ea6e0;" vertex="1" parent="1">
          <mxGeometry x="300" y="500" width="120" height="60" as="geometry" />
        </mxCell>
        <mxCell id="0-I5_G3RzfP3J93G6mHh-7" value="" style="shape=image;verticalLabelPosition=bottom;labelBackgroundColor=default;verticalAlign=top;aspect=fixed;imageAspect=0;image=data:image/jpeg,/9j/4AAQSkZJRgABAQAAAQABAAD/2wCEAAkGBxMSEhUTExMWFhUXGBgaGBgXGBodGhoYHRgYFxgaGhgZHSggHRolHRoXIjEhJSkrLi4uFx8zODMtNygtLisBCgoKDg0OFxAQGi0fHR0tLS0tLS0tLS0tLS0tLS0rLS0tLS0tLS0tLS0tLS0tLS0tLS0tLS0tLTctLS0tLS0vK//AABEIALsBDgMBIgACEQEDEQH/xAAbAAACAwEBAQAAAAAAAAAAAAADBAIFBgEAB//EAEYQAAECAwUFBQUGBQEGBwAAAAECEQADIQQSMUFRBWFxgZEGEyIyoWKxwdHwM0JScoLhBxQjkvGyFSRTY6LCFiU0Q1ST0v/EABgBAQEBAQEAAAAAAAAAAAAAAAABAgME/8QAJBEBAQEAAQQCAgIDAAAAAAAAAAERAhIhMVEDQTKxE8FxgZH/2gAMAwEAAhEDEQA/APncwqJOnB83wiKMHB/01ypWmeeUFTNyKhjROXP94gognTXAAthzjDRZay7jDpXSJAPjm49IgmW5phnlDstKXINN2peKPISyTmLqTXDyt8o9NmBh4gGA9Q/xhlMvvLwBbwluDP8AXGBTpY8T0Dt04cHiKkJgASBUsATXef8Aug94YjA4davmzjHdCxSMsaDPQARJUy6aFw4AD4th1x5mIDSLRjSmjinSCApowII4H6xhJWPlCeDPy+MFlJN4Eih036a4RMD7uOPp+z++OrJD19Pp4BNIGCsddKM3pHphLPv9G/eIo8pbu+sTNpABYOfh9ExWKXgdTj84lNXdAIFXHLe0aFjZGWbxqd/H66w53ycSBvinsS7or9UFIdkzg3zy0pHOwJW60pJDeE0q9W4aQGdIUpPhVyOfE5w7bpaVAlRZsNDx9BCpQAMc2b5ExqeEDkggkMRpllEkkF7yXYGoMSTPKz5cMC2PpWkHlpcOUuXahNORi4C2CTdD4mtBiBBFy3OVcg3z9YAuWsEqSWBqxFS2mTY4RxCgpQUDTOvJxnrBoC1IANDRx8qesCE8pJ+vqkP2mylRd6U192tYVn2LwuDWrDX4f5hEHQujuSKctc8MOsSEwAiuP1yioTOKev7Hl+8R78qVmOMXE1a2i0k0CnFc8t9YUNpUXqDw/aPTCAlxjhWladYUSpSVP9EYxcKtbMsmhqGxf3Q1LUKJBZtz8WeK2TOc3XuvhxxhsFSau9N1N43GCrezyQsManKrPwMVE7Zt0l7y72ZNQX137tIY2fOU7HBqfEPpFwA6Y5W2VvNjLJ2YZZpj9ftF5s2YsJYGo1bCHe6JBEI9yoiqa1orDqAYl5bCTGVmzAQ4wI6fXwgKE1cj6+qQJdoui6A4yOP7ekQE56nSO+OWrOSBoOGe/wCvdEpkhCq55C8NK0MIImHL69WjptGRL7zrxiC3lJTeCczdGO5vjApkx/kMHd/rlviVj8S5VBVJPS8G9MIWBIcg0Id+L/PD5RFFUp1UOBCuLAHlERKDDMjeH4jrHh4kkvWiTjrw0SIiqSpnSXq7P15RR1bOxfTPDDGGrJNAdJYjLV8absOdIU7tTXtHBD0d3idmQlicXYbxUNjyruhQ2CSGyy1wP7x5YcULYgcRjAStrzPTDPTB8GrHFkEPgps30B6fOIBTlnLIa9SPfzhcWs1Thp+++OLBY5EnXr1+Eds0pwS3TF+vuioelznQQ2e41diP3fOICaSW6Zct8El2AsGUQ+BAFKuxGm/jHrRLTUgjcWoc2L1BHCCiyFuLpcj96jfnHjZq3dVP0B9a54wtZrY1FHcW+tBFghmvOMOLaP8AOIpmyWW65BJqKZjF2bCG5qQz0LZ0caZb/UwvKtDKJqHAGgOZOOkeXaEuReqX3A4kY7s+MBBUsEOHIr1OfGnpFYUgKJbBiGGdGcQ/LmAEg03YaH64xK0SaXgnQOMeByziaYlZpwUMa0FNM8cC/oIJOsBVQV3PnlV205xVS1zEkBnriKlqCjVIxFI1Oy7HOWH7op1vBnwqkliB9PDv9L/ljrfIUWdN0jdgd8V8uYpBKVVBx4R9K/8ADk1aryyhOZYkndRsuMd/8FSCXWpZH4UsA/QkcjGpOXpm4+fJcENVDdIb/lARgAdw+GUfSLDsGzSfJKH6vHu++8M/yUs4SpX/ANUv/wDMa6Kmx8vmWCqdfccekPyA7JIemBzatPiM4382xykjxolJHtJQPhCE6dYh/wC2lZH4En30HrE/j5L1RkEi6XBoTg/J/rURbS6sRp6/T+kPzbRKV9nZBxUuZ7kq+MJrLE0uvgASzsMLxJxD4nnGOfCya1x5Spy2JfCDFDmsLSZhxAdNG0OfIwwKiON7tvmaZGTgjUZO2NHjiJL6A9H4Q7ZbDeSWoScH+OsdXIUk3VA476Zx6dccBQk0vOd4x/f/ADDPdpu4kn4b9fhEgsAkHHVv3+mh5aQwLMo4vgTuOsZtakDsrJKM2SoJZqFV4ejk8jCTFJN2hGe7Bq5/KLC/UKOISrqFFvfArPJKyPCwArWnItxoYAU8A0FTWjbyKH9I6wKVMZVK1wIyqzQ0vZa1HxLYOB4dznA4lm674jatkhIJCidCQ2bu3SGwyvWY3hhVq/trBZezikuKg9c26GIpksCUlvEkjgXBAYP78IOhagS6mY0qxNaDnpCkKzAQSOIPH93jii4qSA/hOgwGHDrDVtC2cVVRkvvc1Of7wmEKLgJOg9QKGrcs4RKbFnCmScDrmzAkaH3wqZHdqw8PUYNV47YpqiblTwckYtRnzi8kbGtCwbslfiapTd4tfZxnlFFZItIS3hzw64dYZWlKvEK/vm0WqexE9eKpaOZJ4sAz84trD2HQn7ScpX5QEj4xemmxg0IF8hT3akknR4dscwKPdpSDeoQ3HKPotn7L2RFe6CjTzurDcaekWcuUlAZCQkaJAA9IvR7TqfOB2anqJAQpjUZMcMVMMvWGLP2FnqqtaEHcSokbwAB6xvlPlA1pLOSANSYs4J1KCV2Qls0yYpR9kBPMYtFhK2PZ0Brj/mJL8QaGJTtpSE4zQfyur3UhC07fSPs5K5hOpCfnGuiJ1VcS7qQyUgDcAB6RIEnARnVbSti/KmXKHC8f+qnpAV2GbM+1nrUNAWT0DCN9Kav7TbUI+0mITuKg/TGED2hkOyb8zeEkJ6qaEZGx5SfuvxhxEoDAARelNdVteYrySgPzOr5CArm2hdFTSkaJZP8Apb3waORcCidnpdy5Op+ngyZKRgBBgCTTjAyRVy3xNA0URWYgqyOHUpKQdVB+N0OfSITZoDhq+76+MRKcY5fLNka4XE0IlJzUv8oujqpz6R42pvLLQOIvHqr4AQSTYlqqEnnhBJthQgAzZqEPg5A9SRHDpkdLaxdjupBBYF8NaKwOvzg8tMssXfEE5nGlTrrr0o5ky6wBIGGNDUBt+XpFjZ14sKuH3hmV78ImGo2rZrHwu2VdWcEY60g0ixszjDcOn1WGjMbIkbj0cjPcRrEf5tJJdJDYMWfXiM6U6xLq9gZllpoyQAXGZLjhAZUwpopyBuYp50B4g5Q33rhsQwAf8xAMAtkwI89HpV9MRWGhuRMQoqUk1L0UTg2HCnpAp60ywFqqFEhgaPo+YzhJVtSqiEuzYAAaYk45c4536y7pBAFBkMKti7AViWGoz5zBkpUxwoWDZB8d3GCSFhPjKCSzu2CWOLYRd9lez863Te7SqgBvkuUoD6FicWAOfNvpMz+GMjBE1SBcKPKCS4PiJJqa7gAAAABGuM1m3GC7O2BNovC6pgzhJ1D5g0qKilY0dn7PSEYyH/N4vRRA9I1PZPsULCTdnGYCkCqGNGq946Rpe5MdePGM21gU91KHlCBU0CQGzNDDTjf0Mau17LlzW72UhbVF5ILcHia7CjNKP7R8o3rLHqu/QMK2i0ykeaalPFQHpG0Oz5R+4n64Rh+3FjQCUgMLyOIBZ6muZihabt6zp8pUs+wPiphCk3tCs0lyhxUSf+lLe+BSLEhIol+NYO0axNKzLTal4ruj2QB6+aBf7OvVWsqOpJJ6mH1YRwGLgXl2JAyg10DAAcIkkExFUUdVhHHj0wirEFsxhviJXuyxfEucsqNAdTHBnUfOuX1lEBMODltMngZVWALeFaE6NxFTuZ44Vs7e5+MDGef00RcVcgceQbjEEpi4EtVY6VY0fnwrAyo1bPHeHBb0ENEFpJc5fN/kYubJPYAIk1GKlEAE5kM5x1aKUiNFIohI9ke6OXyd2uIU2VMV5phA0R4fWqvWAy9mSkkm65OKlEkniTUw2Vjjw+eEQvE4M3X1oOUYbfLpMnxJc01UDypDvcJIcGp45M9Hzf41gYmXi5orMYvkzUI/xqY8hRCk4uMXBpz0OlBSOTRtSSLzuUqHiu0NA7g4uG5h45bZF4XQq8nNwHO6gybB4JLvnHOhu6ueo4bsIFOqCBedmN00oC+RwcbsIapa1omFQlyk1O8gAAqOLuCaQhOsBS5W5JBxOFWx5UiykSFMCBVwxdzmS+hhuzS1KP8AVGBFTnkwyyhuM5pKSghh3bgjA0xqAARTOpjkizTb4YeKhU5ZqggOcaMYu51nSLrKBIxPs1fl9PF52a2QqfMli4oyysFSmLAOL3ibQe6MXl6bx9E7BbDTZbMC39Say1qPmNPC54epMaWOAR2PRJkcLdejhMcWtorrTaSXaNYC2m3AYRSWq3LLgFoJPeghCcpiY1Ee7M7VmrtdpkLUCiWiSqWGDi8FX3OJq3SEe2yXUrig+6I9mF/+Zzx+KzIPSZd+MF7aYq/RFFAIio1+t8deILNY6MpzaOHBYs4wpEb9AGq9S+WjRB6GIgwEirFi2IcbwxjilYREM5cgCpc4UDxFRiKktVIjVo5MW70atA704xyWkksHOQc0GJ5CpMNHgoNjXTdrEQdwrnpwid1q+y9MXJZI4nHhA5hDkDAFsccn4EuRGbVxwcT86vXdSOExBU0DjoMekAtFrCcw+YxbiBhGdMMFUCWsCM9bu0UlLsbyg+BfHIsbvryivt23gqWwM0THHhupCAM8CSecTavZprTb0oxI956D3xo5U3wpfQbzhyA5PGKtW1bApJCZab33SqWaHIvuxxyi0l7bkqAAnIAFPEW98Tyq+mWsDTnU/LoITm2tzmd5gVmVLmB0rSseyoEekM3QIisiJCVAEnxBTUBL4uXbDA1phjDSUlN1i7M9Bnmk1q+GEWKbHdwAHibMcAPhR6QJEtYpdBAvElxzoG31GceS8nfBRKcUzxcAPUuRriaYVgdmSlXhui+zhiGu11OLVo7xOQXID11qBgXd8G1izTsZayVJQoEeUl05l/EW3Vq+MSCtsdhSgnGj+XItTeaQ/srZKp85KJRKVKrWqWDkk1egEHkbJSj7ScnD7hKlXszShffC+xe0QsaJ84S1zFJN0eO74SUGhukg9aR1nC1i8pH0XY/YizywFTUCZMOL1SNwGeWLxpEWdIDJAAGAAYDpHz6x/wAVZUyWFKkTZbh6FC21oSl4YkfxZ2cosZykUoFyZorvUkENHX8fEct37bu4cifrjCe0tnqnJCe9moYu8tV0kaOIqbJ2+2asBrdZwdDMCa/rYw8e0tlulX8xIA176X1oqNahu0qCarWR0+UVczaVnCglSy76keiWbnGD7TdtrN3ykmYZl0DwiYEIJNaqFVUKRSmNSXYGwds/zUxKEIShylrtfC7qL50BjSNhbduSgSEoJO8qPvMVKLUZilFrtBmT7yw5RXbSmXTMUztfPRzEthT+8loWzFaEKbRwC3rGjRLNtdNlti1qF4/yzJDByozcL7OEsH+DwfbG1BaZRmAMWSFB8FDEe484zHa2bdtCT/y0j/rXB9iWgTLJMUAQCoUIY4Jxi9kORBZryiZgajWNo9MUK3XaoqGiN8sz0dyN7MI4tVICVxm1cTUYiuZAVzM/8wtaLWlOKgC2BqR+kRjVw6VxET2cAh2qM2OPUOOcZ219pJaMCVFmxp/aPiRGet3ayapwkXRv+SfiTE1W3tFtu4qSlmarnBgLoqyRQRTW/tRJRRJcg69AySzbiYw1otsxYZSnGmXQUgDxNF/bu1c6Y4SLo+sg3q8KTJC5kslalKITeIegGXhFP8xWpjT2efLRItUxSheVLTKlJzJUoX1cAgKD6kRCEdn2ehQMpZWeVS/ugVvmXpsxX4lqVyUSoe+LHZVinzELSiQoGYkJMxYKQEOFFnxchNQ9OMbLYn8PAEhc4P7Uw3JY4A+b14Q8XV8x89sdkXNLS0KWdww4nAc40+x+yKib0+g/Ak1P5lDAcI2U1EiX4JB70jFMtDJB0c0HNoF/LT5nmUJKa0Qylkb1kMnk/GNdVTEJhlSUhJKUDBKQPckVPIRAKmr+zksNZqih+CQCrqBA7NsBcpRVLtCnOJUhKieZrDRk2sYTJJ/MhX/aYyppFjlpTdXMRl9mCo9aA84goyAzS1KKaAqVdGtQhn5mA3Y6RHKcJHS8qP8A7QWAyAmWPYSB6msBXMUqqlE8TA5iwMdW56BoJLTzjTLyExmLatSZc0XT4pimpiySk0OIBKaxtrBsqbNUEoTU5mgA1O6NHbf4dWWdLQlapoWm945a2JKiCXSQQ1AwanMxrizymx8QXtG4i4iWsqN5hdLByWyqa4CKybJWEsstdIF1Sg4e8fCknB3dsCQ+MfZp38J1JfubaoOGaZLST/ckj0GsU07+FFsSq8mZZ5h3lYOOTpYdY6TI59NfLSmLPYmy0zJ8hBQCFzUBWDXAoFYLezejYT/4bW7/AOKhX5JyR72iysnYtdmAnTZSJakJUx70lQKkqQxQBdYJUo3nxSMXpu8pjM43XyvtFPC7TOWKArUwGAalBkKR9N/hsr/eUCjdySABmyQ9NxPWE7N2dsUqcyFItKy6jMWxlpVeLhMuqSaAuonGjZ3XYrZ6kW1SypN26sJIJqSQRk2RzxBEc3Q3bB41/mV7zE7FieEct6f6i/zH3xGzUMaRmu18z/eUUf8ApjreWYf2OXskw08+RfJOcUfbe1BNoTeIA7sByW+8uHNhbSlJsUx1pLLNbwNLqdInVIuLe1KISojEAtxanrCSbYyReLquuQBXfQRndq9s5AJuBUwszP4K7sDGen9qJ0ygAQnIJoB090S3vq/Tb2naITVaggNgWvZ5B90U9s7Ryg7G8DkTSnsp+JEY2dPKvMfgOkQUtgzc4gvbb2kmKoKDoOg+JMU862KViotpl0EKuYkEQR5S4jdhiRZ1LN1KSpWiQSegjRbO7Gzl1mESxv8AEr+0U6mAywlQ/s/Y82d9nLUoa4J/uNI+h7O7JWeUxKb51mV6J8vpFnMtUpKhLHiW1ECqv7RgN+ENXGR2V/D4rI7wlRP3JQP+oj3DnGrkdj7HZPHOKJZGCVKMxYO5JLJO8kGGEy7QohmlJzLuttAkeF95J4GGJGzpaFX7rr/Gqqt7E+XgGiNCy9oN/wCmkN/zZ2PEJIoeXOF5tjMxV+fMVNVoSyBwTjrQkiHDHHiCKEABgAAMAKAR0x6JBEBCOBMFYCFrVbkS/OsJ3Z9BALy5ClEsCaw2jZas2EG/20kj+nLWvJwm6ni62ccHgUy0Tl5pQNzqPUsPSMNDTNiy1JYqVq4YN1B9YZsKUeBEsOoskBIcuKVOQzc5c4QRYyohypZNACSan2R4fSNKjZKrJJVOvMsAABgwcgOG3EjrGpLUtxpNnWESUtifvHX9oYlTAoOPUEHoYxlm7TzxQ3T6P74fk9rFZy8Ma190dv47GGoaFNqW9MiWuYqt1JN0YlgSz4DDEwG2W9V10g4CgxiuXZyshXmxJNGu0BHCr72jA9ZO0ffygtCbr4h3YjEOwfpGd2zKM6YErUq7cKikGiilQAvDPzGNMJFnlFMpUxCCfKgMBU5ZYwrtSzyHdKlBQSpNKhiUnr4fUxpGPs8lKTQDxF33/Xxi07NTEzJimIUm6QeIUxHIxju0nalNjV3RlLmKbwkMlCmaoXqKOAHHSKHZ3abaaiVWWXdd/JLCiHLmqhd9BCq3tvnATJgJ8qi5Om8xnrf2zsslwJl9QBYSxervPl9Yw/aWz2xSlqtMy8prywVJ/wBCPC/KKGSFKF1IfPAP10iWotdubcXbFhawEsAABuepOtTEZdiR/LKWyb5mJSHAwDEsThnFTLW0Wcq0pMoIet923XTWIqAsBKFEHDEbjgYDZUsm9m9OTRf2QIlWS0TFHxTAlElOZJUDMUwySi8H1UkRS7Kvki7KVMY4BKiDuN35wDnaKxd2pANFKloWR+ZyOqbp5xVXY2KOzc+0zFTrSoS71SKXmAYADypAAAGLACkaDZ2zLLJ8gSpQzDrV1Dt6QMYbZ3Zy0TWIRdH4l+EdMTyEajZvYiWKzVFZ0HhT6eI9RF7aNpJRkysgaqPBCXJ9I7KslpmkFZEtPtVPJCSw/UpUTVwezWSVJSyUpQnNgAOJPzj0m1lf2KLz/fwR/dn+kGGkbKlu63mK1mFxyT5R0h67EVWo2YVF5swn2UOlHNjePMtuhyRZ0IohKU/lAD8WxgpiLwHXjhMdaOgCAhEgiJAQnbtpypXmU6vwpqeZwEA2mErdtOXKopVfwip/bnFDb9uzJlE+BOgxPFXyiulSCanWJq4sLZt2YuiPAN3m65coru5JqfWGUSgIYlWZSsBAaYIggEDB4xMlg5MMNSVOSgFaioJAJJT5hTEbxFie0Mu0SlS02iUxCLgmG4QRdvAlYSVGhwDYNm1Haz3iFISCbySHwFRQuceTx8+E2ZfUDcujVRSoEM4U/ON8Wa+mqscxPi7slGoqOKTmI9Km1q40UxHWPlFl2kUl5cq0IOIMu9XPFNfoxb2PtlNSof75NYPeTNclOn2rtHTrrL7sva1mQZl5filJvLDGgYGlGJqKDUQC39pLKlcpCleOa6Uoukg4HxKSCBkzli+cfJ5Pbee5CpiFlWLplgnklIyArjQQntztdNWpC7ssLQ91YS6g+LXnD7yIxZfpqXj9vo/a/aUnuFzLQfBLDi75gcAEe0SwHGPim2e29stCn7y4gEES0s1K+M4rfMFgdBANq7UtFqWiWuatbkeF6OSw8NEvyhnbsqUi/JQn7G6Ct6lZxDCjYjlnC1lqZu1ETJSJ6pCJtySualK3YEJDp0bHEGqRg0RtW113WnzhLQB5EeFIGlKmM7sfasmXZ0S5qiAuzWpAIBUylzVpS4H6ukJjbkmX9hIC1/8AGtHjU+qZfkT6nfDVOWeUqZJNySvuyJjzCk3WU7eI40bM4RkkyXi7nT7VbFeMzJpyFbo5DwiLrZHZNYUFTrl38JdR5sQPeN0QZGzbOXMLIQpR9kP10i+sHYierxKWmXoCLx5gMB1j6bs7Yyykd3LCEDM+FAH1oIJaTZJPhmrM9eUuXgelVcREXGG2b2RlXgFKXaF/glJLPvuu3NQEa6VsMykDvpkuySh9xN0zG3t4UcQ/GG1bQtSxckoRZZerC8eCUl33kjhAbPsaWDeXemrd70wvXcnyjpBQpVskYWSyGaRhPn1A3hS3HNLx07NmTDenzifYl+Ec1eY8mEWrR0QAbJY0Sw0tCUjcGficSeMGaOFUReIJPETHuvr78okICF2JAR2Km27cly3A8atEmnNXyiaq1MV9s2xKl531aJ+JyjN23as2bQlk/hTQc8zAJMgnd/iGhy3bbmzKA3E6J+JxMJy5BOMHRJAhmTZyo+EQCglgQzZbOpWA5xZSNmAVVU6RCftNCCUIF9YxCWZP514J5wE5NgSmqq+6Fp+2kiktPeNQkEBI3X1UJ3D4QnaVqnUJ7w/hQ/dJ3k0vn0g0nZALGYbxZgMAkaAZDhDwL+Ytg6lBI3fM/KOBOCrvBcwsORVU/pBhX+ZILoSlB1AdX96nV0IgK5mJJcnM4xrEOqtAzUVHRAup/uUHP9oij7RzZndESrPLWTQuxUBkbyjfJ4KENKtAgJmkxB8/VtWdKV/UlAH2klJ6x6ZtqWv7SUeoUOio+gfy5VQh+MCX2cs6vNKRyDeoaL1J0vn69roUoKMoXhgoAP6RyftJK9RxjbzOx1kP3VDgtXxeFJnYmz5Lmjmk/wDbF1MYqRP8ZVoxG9jDm0LSqepkAqUouWFSaDARsrL2SsqKlJWdVq+CWEXFmsyJYZCEoHsgD3YxFYjZfYtahemq7v2QHVzqw9YvbB2RkSy6r0z82A5CLifa5aKKUHOCQ5J4JFYkiXPmHwS+7T+KZjyQC78WgJoQiWn7qEjgAIZsG12+wkJmq/4hBujeFKIT0BjsjYstwqY81QzXgPyowHviyEFJT5Vonl588t+CXh/d8gIZstkRLDISEviczxJqecGjhMQSjjwuLUkuEOts04P+Y0fhWOFM1WaUDc6j1LAdDAEn2lKGvFnwGJPACpPCJS1OHYh8jjzgcmzpQSQ5UcVHE/IbhSCvAdjzxxSgASSABmaDrFPbu0KE0li+dTRPzMBck0clhrlFTbdvy0UR4zuokc8+UZ212+ZNPiUSNMB0iMuzk40iauC23ac2bRSqfhFB0zgKLMpnYtrpDCZQGEcmTJgSyHId1JA8w+eY4RLqooQBDFnlFRoIZs2zXqo8of76XKAdg9ABiTkwFSYqB2fZwFVdILabZLlU+8cEJqo8shxgEwTpufco1oZhH+lHqeEIq2S5ISppZxxvKPtKNVc4dhGdb+8VdUpQS/klVJHtzPgmDq2WhTMClAwRRuNMzm7mHLNZEoDJHzgjuWSHPoOJib6XEZcpKQwAAiSEqV5Q+80HKkNybC3imHgMunxMGVPby098cuvfwm/r/rWZ57MwbQY8lKlQzLs4EGoI9DmXRZdYZRJAjhXEFLhhpgqiJXCk61JT5lNpqeAxMI2nal2rBAyK8TwQK9Whiat70KzbckOB4iMQnL8yj4RzMLSrJPn/AHSEnOYbobdLRj+omLCzbAlj7QmY2RogcECnV4orpW0FrP8ATQVnSWHD+1MV4Ry6w/L2XOmfbLEtP4JdVNvmH4CLlCWAAAAGAAoOUSiaYW2fs+VJDS0BOpxUeKjWHIjEJs5KA6lBI3loiivHnisG0FzC0mXT/iLcJ/SMVekTRs699qtUx8iWTwuikBJe0XpJHeK1BZA4q+TxP+SKx/WXe1Qnwo6O6hxLboZQkJDJAAGAFBHXgOpAAAAAAw/xHiYHaJqUC8tQSN/wGcU1u7RM6ZSa/iV8B84aLyYoJF5RCRqS0U1s7RoFJSbx/EpwOQxMZ60WpcwutRV9ZCPIkvjSJqp2u2TJp8aid2XIRyXIJxpBEIAgyBpEEEywGaDIQThWHLNs9RYqoIse7RKSSSEjMmAr7Ps4mqqbobWJcpLkhI3/AA1iut22jdeUKYX1YfpGKoqZNmmzi5KlH8SsuAwT6mLgatm3lFTSxdT+M1J/KjTeYZ2XMPmTKrnMmEqWejNwFIPYtkJRVXiP11ixLAaQt9LI4AczX06R5SgOOgxiUqUtflBA1OPIfOHpVnRL3qz/AHMcuXOcbnm+p5akLSLEpVVeFOmfM/AQ0kpQGQBx+QiE2cTAlKrCfHy5/n49T+/f6S8pPCS1k4wJRjscjtJnaMKy/EFTAKmF56yEkiKnZf8AWUszPFdwBw/twjSLNe0E1ugrbMNdHFZpCabVMmlkkq9mSH6zFUHKFNjj+YtFyb4kh2S7CmFA0bdEsJF1IAAyAYdIEUVk2LNd1KTKBxu+OYeMxWHKLKy7IkoLhF5WN5ZvF+eEOP8AXOJxFdjrxEmsTiDwgc+0IR5i2gxJ4AVMFXR4TsiAVKUakFgTkGy0gBrtE+Y3dy+7H4pvm/SgO36ukdkbKSDemKMxWqsBwH0IeBjqfr0gOiOiPAQLak0y5JUkspsf8wE585MsOtQSN+J4CKO29ozUSg3tKx5DKKKbNUp1KJJ1MDTEUWfNUskqJJOZifcFyTqYMlIAjsQRRLAwiSU6RzKLnZ8pLAtAKWbZ6lVNBFrJsyUCjcYMqM/tNRXaESlEmWQSU4OWfKsBYK2kVumQnvCKFRohPFWfAQnbLIQbyj301TC6fIkfkxIwxo9WhGTPUbweiWCQKJAdqJFBGhsslKQAB9cYt7E7q+z7MJN+aXVpkN1Is0IAoBTdExAV1mJScCC4jPlfCaVElkV35dc+Ah2RYQnxTC5+sBDVmlhKXAaFVqJxjhx58vl5cuPHtOPa37/03ZOMlv2Kue1E0ELKVHojlHo4fHx4TI522+XiY4BHo6MI2jjxBZiClVjxEB//2Q==;" vertex="1" parent="1">
          <mxGeometry x="510" y="610" width="245.45" height="170" as="geometry" />
        </mxCell>
        <mxCell id="0-I5_G3RzfP3J93G6mHh-8" style="edgeStyle=orthogonalEdgeStyle;rounded=0;orthogonalLoop=1;jettySize=auto;html=1;entryX=0.53;entryY=-0.021;entryDx=0;entryDy=0;entryPerimeter=0;" edge="1" parent="1" source="0-I5_G3RzfP3J93G6mHh-3" target="0-I5_G3RzfP3J93G6mHh-7">
          <mxGeometry relative="1" as="geometry" />
        </mxCell>
        <mxCell id="0-I5_G3RzfP3J93G6mHh-9" style="edgeStyle=orthogonalEdgeStyle;rounded=0;orthogonalLoop=1;jettySize=auto;html=1;entryX=-0.015;entryY=0.5;entryDx=0;entryDy=0;entryPerimeter=0;" edge="1" parent="1" source="0-I5_G3RzfP3J93G6mHh-5" target="0-I5_G3RzfP3J93G6mHh-7">
          <mxGeometry relative="1" as="geometry" />
        </mxCell>
        <mxCell id="0-I5_G3RzfP3J93G6mHh-10" value="" style="shape=image;verticalLabelPosition=bottom;labelBackgroundColor=default;verticalAlign=top;aspect=fixed;imageAspect=0;image=data:image/jpeg,/9j/4AAQSkZJRgABAQAAAQABAAD/2wCEAAkGBxISEhUSEBAVEBUVFRUQEBUQFQ8VEBAQFRUWFhUVFRUYHSggGBolGxUWITEhJSkrLi4uFx8zODMtNygtLisBCgoKDg0OGhAQGi0fHyUtLS0tLS0rKy0tLS0tLS0tLS0tLS0tLS0tLS0tLS0tLS0tLS0tLS0tLS0tLS0tLS0tLf/AABEIALcBEwMBIgACEQEDEQH/xAAcAAAABwEBAAAAAAAAAAAAAAAAAgMEBQYHAQj/xABHEAABAwIDBAYHBAcHAwUAAAABAAIDBBEFEiEGMUFREyJhcYGRBxQyQqGxwSNSYnIzQ3OCwtHhFSRjorLS8JPT8RY0U1SS/8QAGQEAAwEBAQAAAAAAAAAAAAAAAAEDAgQF/8QAJxEAAgICAgIBAwUBAAAAAAAAAAECEQMhEjEiQVETgaEUIzJxsQT/2gAMAwEAAhEDEQA/AMeY1O6aMnQJ7R4aNOk0upV2HNYOqpOZf6bImOj5lTNDSx23XKQjp2jXepCiIustm4xHFTg5kiJjNiN4+qrHqrwbPBB4X3HuWh0ANuroSE0rYWMAMrbsecrhxDjuseB5d9uKpHolPTIvABle3tCt0EhBVafSdE4FpzNOrHcC3+fYpqlnDgrQZCe3ZaKSfMEu9oIsVBUU+UqcifdVTJMyTH6V2HVwmYPspCbgbtfbb9Vb45GvGZuoIuDzBUltlgYqqdzLdYDMw8nDcqHsXiLrOp5NHxkgA77X1HgVHJGtiltWW2mp8zlLPw+zdAmVM7dYcdSrNS2LdVxZpuLMoqbmm9irNslUZTlPgmuJU4BuhgLxnuearhnasaRpUZ0R02pZgQNUeecAXVzoXQquqEjxe7iORUrDKCN6GqEnYsgiF4XcyQwy4i5wu5ggDqCGZcLggDoXUUOCF0AGQXEEAELdUdBBMQEEEEhgQQQQB5crY87Bl3iy66fqgJCKTLdNcPmzOcHLmO4U6TWylcNURO2zlK4cUCLJh77EKO9I8jmwNsOq99r8A4a28kvSy6q7zbM+u0eQi7ZG7xvY8ey4doKopUQyaMu2axkSs6KV3c4+67cH9x0DvA81LRPdE8tPOxVDr6KWiqHwytyPjdlcDuPI9rSPgVccKrBUx2/WMbpfe+MaWPMt3dosear1siWeF99QprDajgVUMLqrHK7wU9A+2qtFkmiygXWVbeYa6jqmVkQ6riBIBuv/AFGnktQpJswCZ7RYW2ogfG4XBBHceBTatGVog8OqA9rXtNw4Bw8VPU89tFn2wTpBK+gf7bCXR395vG3z8VoDcKnB9krzs2NsKoSxWS7VC0dU5rtCp6qoJC32SoVuGvDt1ljE6VM0oS7RcsOqJLNF99lZYKRxb1iqTRVL47XF7K20mPRlozGxXTDZZvjFNismEDe02KEdHI0bwnLMUiPvhclxOID2gVWjHKPpjJhkLrAJz6vLzCGF1IeXWUik0aTsjfVZeYRTSzcx5qUQSoZGCmm5hdFPLzCkkEUBGinlSsMMgOpCeoJgcuk8+qEpPBIkm4RsWhwXroKIY0iZbaFCBjjMESSWyI03K7UQ3CYgCpCCjS0oJDPNFO7OBzCUdhbswc025pnCSx11PwzBwBBUDtWyJqgb2O8J/h7l2qpMxuESm0WRkvDvWxejqozUxafcdbwIv/NY5RuWv+jYf3d3a/XyAVIdkcvRXvTbsX61B65Ay88DftA0azU41I7XN1I7LhYTg+IOieHNNiCCP593A9hXsQjmvMfpa2UFBWuMP6GX7WMD9W5xOaPu4jsPYqnOSb5GyNbPHoD7Q4seN7VM4fU529vFZ7s1i3RnK83Y6weOQ4OHaPkrZG4xP33B1BG4g7itRdGZIt+H1GU2U2DcKqQS3AIU7h9RcWVSRS9sYnUdVBiULbmJ7TKB78d7OHkSPFbtRVEc8bJYyHska2Rjhaxa4XBWcY3QtmicxwuHAhE9CuMuZ02Fzu69OTJT33up3HUD8rj5OCnNeykGaTNRtI3KuV1GAdytjlX8TGq5ppWdWN+LRByxhdZEjyFKN3Lowq5EP+t/tiLY9UeVlhojhFmK6nHZ5SdMntmh1Xd/0UyofZwjK7v+imFyz/kejgdwQEEEFkqBBBBAAQQQQBwhJTaapZJzMuCE0ZkjnTi29RFdUXOiXkp3bkymiy71TG42TyXQpTTm+9TDJwQoNjwEQ1tjoVqcU+jEZ12SrrIJm2UnggpUW5I83PiC7TtIcLI6Vgj1XJZ6KFKmV24IkDUu+O5RmRpCHVJvWxejX/2zu15+QWPU41C2zYany0jDuuL+a3F0yWXosRNliO3cja2d0R1uJJRzDYxlbrw1cPJa1tFUdHTvN9SMo8d/wWIUMueaeY8xAw8LN6zyP3j8FeOzkk9meVVBLTm8jSw30B4jirZs7WiaLoieswZo/wATOLfBIekCubJ0bLDM29z2Hgqxg1cYpGuHuuzDu4jyTH2jSsLqrHI7wU/Rz2KrlbGCGzR+y4B4t28FIUFRmaCqxdk5FuzXCpe0+ejqIcRgBzQu+0A/WQnR7Tz0J+Cs+HT3FkXFKYSMc1wuCCChq1Qk6L9Q45FPEyWN4c17Q9pHEEXUbX1QJWV+jevMFS7DZ3ENJLqYknvLR8/Nao7BzzK5JKns6FN1oiJTrou57Dfqpc4Rokf7FPatwyU7RPInJUyMa8kpSVpspqmwm29OZMPFty1+pl8Ef00SCw+udGdFOU+MOdwCYy4TyStNRFqnLI3uikIcNE3HU33hKdKFHxgpZpS5SKjh1QAkzWjkk3BIujRcx6HLa0ckq2oBTEMXb2QuYtDw1AQ9ZCZl6Se9PyDQ9NSE1q25tyRulRKLI4yFaGMsJ4JtHRuvc+Cky8IdIFWDkjEoRZxjrAIIvSBBasKPOzW6p7FGl6vB5I9bZh8UIRouJprs9GMk+gwjXS1HRgxIBKnHWWxej3Eg+DoXHrM9nmWH+R+iyeKA9ykqDFzTSxvadxsR95p3hXxxZzZprovXpQxQRQEX3NLj/wA8Csyw2Ho4GB2+2d/53nM75qwekKq9YkiiH617S4co29Z1/AfFQWLS5I3HsNldI5W7KBjs+eZx7bBRZNinMpuSeZum0gSZVGkbG1XS0xjdqWHq9x1TujdkeWqu7AS2c4cwFY6ttpAVqPZORM0dRYqY6W4VXbLbU6JWDF3u6tPC6dw4jSJve4qtE7CbVYAZcs0LujmjOeN43hw1Cv8AsTta6en/AL9C6klZ1Xuma5kUpHvRudo4HkNyzLEK6UG9RXiG26OjuXD98EC/iVXavGKa5PRvnP3qmWR5PeG5fmViUIvs1GT9G/1O2NCzfUNP5QT8TomE3pHoxo1/n0P/AHFgT9oQPYggZ3QxE+bwSif+ppfwf9Km/wBiVQRrzN/j2+gdukf4NiPyeU+ptrKZ2jpwD/iNe342t8V51btCHfpKenf+aBgPmwhPafFaY7hLTHnBK8sv+zfdFYxeZ6ShqmvGZjmvHNha4eYXS9YHRVlQwh9NO2p7GnoKkdgscrj2b1acC9Jbw7o6lpeRo5sgEdS3u91/zR9Neg5/JqPSIGQqIGMtkjEkNyHC4zggjhqD3KvvrJA/OZDe/Am3dZY4lC7GUopkKqtVtO9oFmA8ybqVoMbifG17g4E7wASAe9FCJTOilyZnFoeZHeCEV2KRW0e2/C5CfFi5L5Hl0E1ZiUfvEHucEc4jCNTp+8P5op/AckLgLvRlRtTtFSbnTAW5OZdN247Rn2an/MxILJsQFHFGVGxYtSHdUEH8wKcx18J9mqPjlWdj0OxQrqSFcz/7Q8QEEtj0Z+yx0IumVdhDXat0KkjFySkPaqOKfYKTXRU58Mka4NylxcQGgbyTuCm8a2c9TihdK68kmYuaLZWAZbDtOqu+zNIx0udzQSxt234HddVH0h4u2epDWHM2IFtxuLyetb4DwU1iSZueZuJXZpyRo0cvBNcLYZaiNpHv3P5Rr9FZMKw6CcdaXojuNxofFTcWz8FOOljlbI4Ajqm5Fxvsq6Rz2VPEpM9bI/hFGI2/nkOvwb8VXNrai0duamaV12uk4zSvk/dBys+ACqe1Ty6RrGguJIa1rQS5zibAADUknSyXo0uytFaLgHopc+Fs+ISPpukGaOFgaJgzg6QuByE/dtfnY6C7ejH0XtpstXXtD59HRRGxZTcQ53B0vwbwudVYttKmzwOTfmpykWirKPhuzNBRG7TK88TI9nDmGtCeRR0tQXGOEnIbF2d4aSRcAG5ue4JvV07J4ZGtcY5bEMcLkh3Dq+8Oaq+K4++CMUlDBKwNFnvdHIJXuPtZBbn73HgqQrtsxPWktknjE1HS36dxqJAerED1GngHW3nv+CpuM7YzSjK0iKPcI4hlYB223ptJs5XP67oS2+v2jmMNjzaTmHiEvhWxs0hJeWgDfldc35XtYLTyXpGY4q29lfdM954knlckqSodnJ5d4EY5vJ+Q1Vzw3AWx6NblO4/ev2lWSgwoKixL2YeT4KbQbBQkfbVLz2RMa34uv8lP0GxOFjSVs7+0yEfBoCtkWFhHOGha4wMcpEaPRhhb23Y2UA7i2Un/AFAqLrfQ7AR9hWSMP+MyN482ZbK30THRnqnTiDuU7Sva/sPIqco0aUmzB8W9HmI0t3Mb07R71OS82HOOwd5A96d7GwHEJDT1cPSNibmdISRJH1rCPMNesQdOQPJbbiUnRs6ps46NPLmVC08IYXO1c55zSOdq55tYXPIDcFKUq6LRjy7CVr8rQ1osAAABoABuA7FAvl4kKarySFATEk2tdZTN0Ee/MndHXSQ6xnTiPdcO0JoGc9F1sullqxUaFDKx7Q4AWIB4aHiElLRwu9pjT4BVjZKrd03RWJa5pd2Cw3/TxVxMK2mRkqZHOwinP6tvkkJtnqZwsYwR4qX6FGEKLFRV37CUBN+gaDzAsU1f6M8Pd+qt3FwV0yAb1EY/tFDSNvI4NPAb3nuCLCiAh9GtHHqwvZ+8T8CmGK4Bh1ORJVVD7N3NMhaD4N1Kqu0/pOmfdtOOiG7MdX/0WfVNRLM4ukc55PFxJKVmlFs1k+kXDY+oymJa3RpDG2I8dUFjxY7kUErHwRu0U7h2pxFPrqE1jvxXenAVmjCZNGokbG7or5nDL1b317lTRR2NnNOh1JuCVdNn8VZG7rC4+SmKzaSHd0DXD8WW3lZSd30adMpGHQMsbh2/gVJVENoHtjNnPBAzHdohX4lE43jjaw8coACjpqlx4p8TIBs89wY2Czg1rWNbudoFaNi9gI6aT1uotLUkdTiymBGuXm8jQu8BxJg8Jx6SA6AG++41PirzhWPslGuh7VKba/orCKZNKibZSWn1+6FcX1jeaoHpHmGVsgdr7J7lzymrR044PdkZLiTQDrZQkm0bh72nYq9W1emZz8rd2tyPIa3TDDnulccwyMZdzs33Brc8tFtWDokcQx0uOut+038PNSeAUlaWm0To4y65fKC0WtbQHU+AVn2EjifQzTs6MuEnVMYF2Buli7tzfJTtG4vGuoO9WhD2yE81aSK0Isp337TxUrRvTTGKIxPuDdp3dh5JOnmXYqrRx3vZYopErmUVDOnLZ0qHY7ujsfZNBKjdKlQWOsSmc9jeJYST2tI1PhYJCneDquNlSFLGWucPd3t7OwrmzY68kdOGd+LBXTAcFFk31DU7rSEzafBYRRhaiI2uo+R+U2Uqyaxs4aH4FQmIyDpQwEAucGtzGwuU/wChFt2LjDnvfb2Wht+F3G/8PxVrKhMKc2miETW3I1e777zvP07gEs/FjwaPiqqDISmrJS6K9yhpMVfzA8E1fXPd7xHzWuDM8kONoquSMXj35epyB5rC9rX1LZHPlLnF2+R1z4X4LaJXdI2xdlcOJ3X7ewqJqdLtmhDmnQ2AII7ihwY1JGDxi+p1TuJq0Wt2NopTmgf0Dj7pvkv+U7vBQNdslVQ69F0jfvRdYeW9SeiqaZBNhKCXLCNC1wI3ghwIQSGalW1QGgTMXKM2PmlAV0NkKOxiy6+Qnii3RSVk0BHaiNSgCADWSkUrm+ybIoC7ZKh2EqKqot1ZnfBUXafEpozeQPlPBzicje9aA1FnpopNJG3HHQHRT+lHuin1pdWZZhtJLMemkOYADTc1gJAFh4hI7R4v0h6CDrNu1vUuelcBYAC1yL+eivmK7Jl8Zipne04uc+/WdfhqdApP0b+j5tFJ6zWFksw0p42HNk/EeAd8llRobyJoktgdnpKPDRDK3LNUSGV7d5Y3SwPbYBW2mowwABPGMuczrZjp2NHIJUMWrJPZFYjQCWMsI37uw8Cs+ljdG4tdoQbFalUzRxi8j2xjm8geV96qGOwxVEgdC8brPJBDfC+9VxyonOJAMqnDil2Yg7mpmk2chP6Scn8uUfO6fMwCi5uP7/8AJV5oxxZXm4keKUbifYrCdmKN24yN/K8H5gpjWbGuteCUP/DIMp8HDQ+QRziHGQxbiI5J/QVAfmtwsqtVMkifkkaWu4gjhzHMdoVg2fH2Rdzd8AFjPXAph/mJ4k/vTamddOq5t0ygjLTouRHUx8QLa8NViJxuSWqE8hsc1mt4RtJ3D4Lb6qS0bnj3Wl3kCViG1NO1lU8x+w/LPHbdklAfp4kjwVI62YlvRtuFYr0rASdbNJ5kEb/MO8k6M6oOy9acsetszHA97S1zR5PerEak812UchLSzXIb4nuH9fklhIAoOKqNyT3eA/qSlPW+xKgslnyApCaoyNLjuAudfomrKkLmYSzQwjc5+d/5Gda3iQB4p0Fjn1Gd4DnUbSCL2zsDtefb4pH1GVu6kmZ+zkYR5ByPtdt56jK2FlMahxbnNnBuVly0d5JB8lFM9LbR7eH1A/IGu+qy2umNJkgXy/8Ax1PjED8baoJsPS7ScaapB5ZG6fFdWfAfkNrruZEAXbLJs7ddXLLoCAOhKNKIF1AC4KBciNKF0AKtK4UW6O0IA7CVIUErwdCmkEeqlImABFASMVS4akpjjVfUvjLaeQRO+8AC7wvu+aQkqXXXGzFKgM1rG1Af9vM4vJyjMXOe9x0s3eXbxoOaeQ0k1wHv6M8pZGMeO9gu8eLQrszJFL04p2zvLHxvzmzmxuFssbtcpNzc23WGmqiK2DD20p6tdAZJfVmNLad780bBK8AsOrHAtBd7Wi1YqsaDC5A7ozUxCSwsx0rmOJO4AyMa0nszXTfEBPAS2XOwtPWDrhzb6C45HgRcHmm+M5RLIz7SR0ZFO/MBlHR394u366796L/aDnMYyTW7Kkv1Lj0QGh1/HmbuH6MLVioNFjz27pXDxKeQbezwi+bpBcDK7jzsVS3E2+aYVs5vbzRJ6CKNuw3aajxFnRyENdwD+q9ptva7mncdOImCNpzBt9TvOt7lZN6OcK9Yqs7h1IbSO5F1+o3z18FqlXMuXJL0dOOFbGtSUjGLpCaY3RqZ6yjTHk/6N3cfksc2tYLQubyli8GSZh8JQtjld1T3LJts4XNjZnGV3Tzm3AAsgOnYqLpk5dodbNTWjgP+Jl845B9ArWZFRMCqOpE3iJ2kd2V5VtZJzXTF2jnmtj5kmiN0iZxPu2//AIRukWjA7Eyf7KOzV7fwwPPiXsCgnSqV2BkvXSHlBb/O1AMp/pQIfiD70zpw1jGgtMgtvdbqgj3lXKOqpI/0tLODy6VwAHMaA3Vx252SrpK2WaNsoY7JlMbZHA2Y1p9g33g8FVp8ErmaOdKP2rKoD/OxRknybr/C0WqSsOMVw/7lSOzpnf7kFHupqgb5I/Ex/VqCVv4/A6Xz+TWiEVAuQWzIEELIJDOrq4uhAgwXbIqMgYF0PRgVwsSEOqaa29PRVAqK3LrUASRcDxXWqPF0tHMRvTAcu3qUw9tO5rRNFndHL6xCTubJlDbnmNBoofpQh0p4IGJbRbMMa10zHOddzpJAPbkJ1Op0b38lQamT2rb3AA2vlaweyxv4Rp32WnU9QbEP1BG5VbG9mJHXkp25m63aN/bZNCZRZSoSd1ySpPEnOZdrgWu3EG4IRtksO9Yq4oyLtDs8n5Gan6DxU5s3BGpbFYT6rRsBFnyfay87uGg8BYJ5VyhPauSyrtfULju2ddUgSygo9O/VRLZdU9pnqiMslXv0WdelOW8kDOUbnntL3AfwK9vdp8FnG3L+mxAxj3RHD5DM7/UfJVj0yMu19xts7G0TQiYlrb53EWzZS07r6ceKus+1FFBpDGwu+/N9u8duU2YD3BZ7j0tnusdBlaO6w/qomKNzzZoLj2C63yrRjjy2y2VOPzVE73vmfKAfsiQG5WcAGt0b4KYw+rLm67wbKqYZg8t8xk6Icm2c4j5D4qyU4DG5R3kneTzKpButk5peh1LKpf0fS/3yT9j/ABNVckkUpsJJask/Y/xNW7MPo1CWqy3Oc/AnwHgo+ox0MsXO0JDbngTuv37u+yq+0WOPpn5nML4nCxLd7Hj6EfJVLEtqjU2hhYQC5rnudvAab8N2oB8Ak5pAoNmu/wBpN5jyQVLbSNeA9xNyAT5ILXJmeKF10It10LBYMuIXXUgAuri6gAIyKlEgCXSrDdJo8SADyBEY5LORCxACgKOkAUtGgA4ZdOYo0ViM11k6AWFkhRVrmPOU8dRwQgfe6ZMPWPehgTOJYFSVo+3haXfeGjh3EaqN2e2Djo5XyxSF5e0MaH26gvc2Pbp5KVo5VINlSlBNUCk0RGJwuYOsLdvBViuatCOVwLX6g81SMeozC+29p1aezkueeLjtHRDLy0yFaNU9hTTinEZWEUY4MwaLuNgOsTyaNT8lmFFU9JPNUv4Z5O5zzZo+JVy2sqclM+xtcZP/ANG3yWetltGGDe92d/5Ro0f6j4hUiyU0Ky9fV2p3+J1+qfUs9mgDTuUG+c3KViqFtSRhxZYoKrTz+aW9ZVfiqE4bOqKRhxJR06lNjKm1W484nD/MxVczKR2bntOD+Ej5fyRYmtGhVVfE8EEt3lpDnM3jhYlRcNDEDdjRbeA0afBR0/qb5HB4aH3u79I0k773bouHD6e2kjmgcpTYEH8R03LRiiVnwlj3FxMoJ3hr5WjQW0AOi6ooUY4VUxHC3RuHnk1QR9gLECuhdQTNgRgVxBIQZdQQQB1HauoIAKjNQQSAMHI7UEEAdc1djKCCAHEZXJnoIJgLYeL3SJi6y6gmAeWS25L0lcRo7VBBAEkJLi4UbtNHngzcW6j6oIIkvFhF+SKSX6pwH7lxBcB3Fa28n+zYzm7Me4D+qpIPHwXUFSJKXYSPLmGckNvrbeAnldRBoDmOzA81xBbStMzJ00NWPS7XoIIQNCgen2DP+1H/ADgV1BaRhknV1EPSESQ5jpdwNidBvRZWUoA/SAEXGUuI8iUEEWKgEQtsPWJW6AgcmuAI3N5EIIIJgf/Z;" vertex="1" parent="1">
          <mxGeometry x="209" y="610" width="205" height="136.42" as="geometry" />
        </mxCell>
        <mxCell id="0-I5_G3RzfP3J93G6mHh-11" style="edgeStyle=orthogonalEdgeStyle;rounded=0;orthogonalLoop=1;jettySize=auto;html=1;entryX=0;entryY=0.471;entryDx=0;entryDy=0;entryPerimeter=0;" edge="1" parent="1" source="0-I5_G3RzfP3J93G6mHh-10" target="0-I5_G3RzfP3J93G6mHh-7">
          <mxGeometry relative="1" as="geometry" />
        </mxCell>
        <mxCell id="0-I5_G3RzfP3J93G6mHh-13" style="edgeStyle=orthogonalEdgeStyle;rounded=0;orthogonalLoop=1;jettySize=auto;html=1;entryX=0;entryY=0.5;entryDx=0;entryDy=0;" edge="1" parent="1" source="0-I5_G3RzfP3J93G6mHh-12" target="0-I5_G3RzfP3J93G6mHh-10">
          <mxGeometry relative="1" as="geometry" />
        </mxCell>
        <mxCell id="0-I5_G3RzfP3J93G6mHh-12" value="Devops" style="rounded=1;whiteSpace=wrap;html=1;fillColor=#ffcd28;gradientColor=#ffa500;strokeColor=#d79b00;" vertex="1" parent="1">
          <mxGeometry x="10" y="658" width="120" height="60" as="geometry" />
        </mxCell>
        <mxCell id="0-I5_G3RzfP3J93G6mHh-14" value="" style="shape=image;verticalLabelPosition=bottom;labelBackgroundColor=default;verticalAlign=top;aspect=fixed;imageAspect=0;image=data:image/jpeg,/9j/4AAQSkZJRgABAQAAAQABAAD/2wCEAAkGBxMTEhUSExIWFRUXGBcZFxcXFxcdGBcXFhoWFhUYGBgdHiggGholHRcXITEhJSkrLi4uFx8zODMtNygtLisBCgoKDg0OGhAQGi0lHyUxLS8vMSstLS0tLS0tLS0tLS0tKy0tLS0tLS0tLS0uLS0tLS0tLS0tLS0tLSstLS0tLf/AABEIALcBEwMBIgACEQEDEQH/xAAcAAACAgMBAQAAAAAAAAAAAAAEBQMGAAIHAQj/xABOEAABAwEFBQQFBwkECQUBAAABAgMRAAQFEiExBkFRYXETIoGRBzKhscEUI0JSctHwM2JzgpKistLhJDST8RUWQ1NUVXSDwkVjo7PDF//EABoBAAIDAQEAAAAAAAAAAAAAAAABAgMEBQb/xAAyEQACAgEDAQQIBgMBAAAAAAAAAQIRAwQSITEFQVFxEyIjYZGxwfAUMjM0odEkNYEl/9oADAMBAAIRAxEAPwAhq8LxTkC0qOZohO0NvTqwhXRQ++mnyFXCtFWI8Kg0hgB21fT69kV4GfhWrfpEQDC0OA/YGnnRhsU7jSx65nPlDSktrKcLgUUoJiQCJgcRS2jHTHpAspHeKx+oaNa25sJy7cA8CCPeKTKue0Kybsrh/OWmE+USaCsewb3bKW5Z+6c5GWI5btQKVAW4bX2OCoPTGUBKpnkIrZq9nXvyQbaT9Z0hS/BtJgeJpI/s60Ml2fD+0KFOzTG5K0/ZWadMC2IuhtRl5xT5/PPcHRsQnzBpq0EgQkAAbhEDwFc/FyR6lpfT+tNDWKz2qVxayMKsIkTOh+NKmB00GuO+mIf21joyf311Y0Kt6dLShX2gfhVF2+feXaWe2wlYLXqzGHEY1360cgX3Y5Em0fp10/U1rSTYbMWr/qV+5FWRe+qxnGLyb/tDv6Rfvq5bLhr5SyHk91yzllOeR7TD3VCdDGvEiqtfLZ+UPcQ6v30xucpdwqOILZwgK0SlOMLzO5UJITzArs6mNaSEl4L+Tj6WSernH3v+CLbS1lToCyS42lDa+JWy4pGI81BKVfrUgdBL4nKQZHKNPKn+3VhUh4WhWfbwSrIStASk90ARKQk886rjr3zoVyp6dqWPjwFni45XfiHLEFEKDYCld/6vd0zyznfwq9+jL+7L/SHP62Q73jrVJs6pT41f/R/+Rc+3/wCKalrMLWH0l+H0/oq0Oe8/o66X9f7LOwM0dU+8U7mkzWqOqfhTea48DvM3msrSa2BqYjDWpraa1NAEaqiUKmNRqpADqFRKqdQqJQpAQLqFYqddQLpDIVioFiiF1CugAUprKkIrKBCNG27K8rPY33z1P/5IUPbQ9q2ztKVhtNhQ2s6BxCidMWq1p3Z6U8O2tkZQYZWhAzITgSOpA1oey+kC77QoJDRcUk4gCUkpOkiRkaupCNG7bfK0hSGQgHPu9kn90tqNLhel8qKcnYOqjACRnqEpST4DfVuTtTZ1ZlDo/ZNEJ2ms2hU4Oo+40wKhbbHeoRiW44dMgp6c+Qe+FaWa8b0B7JCnQEjI4GziMkwBhJOWcmriraOxgflin9VXwrdF/WZYytMjov7qVjKjeG2V4tJT2jJ7s4jGEr0jECgjLlGta2P0gIWJeso6hKk+1BWT+yKtl42lpxtSUW4NGMlBWh10UIIqn7HoTanA5aHWnCElRCktjEQrAnPKRAmgBvZNobA6YC1tnmMQ8AO/5pFMLFdiF4i06hyTJwkEjIDNOo0oe3bAWZ1ZUgpSlQMpBCoVMynPkBHXjS28PRy6iFWR9QI0Cz7jEA+A60nFCHyrsI19uVcr9KDOC2M9GT++v7qsjd+3tYyUWhkupTxBWI3HEYI/aigL8tFgvQpLjq7G+kAAkY2iEkwCMlj1jnoOdRcWBY9gtLX/ANSv+FFWZY18KT7J3UtlL6sSHEOOlaFtqCklJAGo0PI03UNfCqWiSOUXuP7Q9+kVVr9HLQwv5alE/vVVr4/vD/6RXwq2+jj1XuqPcqvQ5v2C8l9Dzmnf/oPzl9TPSdZkqsckZpcThPCVAHzrlax30+NdI9LL6w1Z20khK3CVAAGcBQU9NTXOXPXT4+6smjXs5G3XNPJEbWAdzxNX7YZ1KLO6taglKVyVKMADCnU1QbvPc8T8KH2jtzgYSyJDZcxrO5RgACeQkxzHCtuvf+Iv+HP7NTetf/ToT23tjJLSHVJOHJ3AcAUYA567yIyqWxfKoxotuNKtCAFJ8DXF8Z+lqY0Hh75p/spfSrPaEGZQVAOJByg5FUaSBn4V59cHp3E6kbRbho+k9W/616LzvAfTaPVKh8asKrAONRqu/nUuCAqbvm3jVplXRSh7014/tRaWxiXY5H5jgJ8ommiLERvrZ+zGPEe+nQFbPpIbCy2qzPYhkQMJz86eXff6niMNleSD9JYSkDrJ91bWG6ktqWUpzWrESczJjTllTYLpNMdnhqNdSFVQLVSYELlQrqZaqgWRSAiWKiUKIURUSiKBg5FZW5rKBHJ7JeTZBS+w44kzKZKct2aYOtb2V2wsnExZnWifWlalzw103+dS2O7FuqyMrAIKpzIOZEnLcM6IeulTZwOKyUIgqzk8x8KtA3TfzX5w/VNbs32ycysjXcqM43aTUzmzzoTjkgDmIjhGvnWMbPLdkpmDrGGZ0ynQU6AS35bwtCg06nGdDpA4dedebFXqDiQ6sAagqMQQYIzzkzPgaf2a5FCW8KVKnIkDSoX9n1JVCkiFDUoSCD4a0to7JL7tqQ0rs1JWqDABB3daTbIWheTbiYCBqVGd2ERwicxwFMV3CoJB7FJgDVGat0kiBJ1yqP8A0GnEohtJBiAZATrllqTOvKigsZXxZLW6kfJHmWyJntHEpnhAIM0fdlstDDaUuPKLgHfUgkpnfBSIjhVbN1ohJDZTmQpIUqTllhzgZxma2tVlbVOBD7S0gmC8FA8MwkAf1qQi+Wfad0Rjh1MwZAmNDBG+kd+3ZYrXaEtMkNOupUQFI7ilozUkEZBeHvdASM9K2ha5CRaHATpjSCD0MAmg7fbH0FFoTg7RlQUiAUHuYgoFJyOJKlDxBFAh3/oW1WJ1AD604jAWgmDGcSCCRyJq9XFbFOMhSzK5IUeJknTdrVZu+/mragIeM6KQvQoUYIkeXKnNzy08toqlKxIMR3k6jyI8qjNXEEUe+f7w9+kV8Kt3o29V7qj3KqoXz/eHvtqq3+jf1HvtI9yq7Of9gvJfQ8/p/wDYPzl9SH0nwEMEkes4PPBXM3PXT4+6r16YHh/Z0yMu1JG8d5qPjVGd/KJ/G6s+l/S+/E0av9b78ENbu9Q9T8KtqrpZcb7JacSQTmNy9DMb93hVPstoS2jGswMX8tXa57Elxx19ta0CIUCRgUsfSI4jwqvtefqY4r3s0dhYvaZZteC+Yl//AJuCZS+CD9YEe7pSy5tmsdtbYMFPad6NMKDiUehAjxq/3em0QQ6hsDcptREjjhM++jtnrgCHO0TMElROcqz7gCvqiNN8muRGTbo9BkxxSvoWQivIqfDWpTWijnkMVDa1hKCo6DM9BnRZTSraN7s2FKmPVE/aIH9KTdKxpW6OJbXbY2111YUpxlokhLYlAw6DFEYpHGquy8UmUnCdZTkZ6jfXdrK0xaEdm6G3DGaTBPlrXO9s9j/kyy40kls7szHjuqqM93U1SxOK4GGxnpGebKW7UoutaYz+URzJ+mBzz5mushYUApJkEAgjQg5g18z2ckKgpUkkEwoEabxxH3V3H0cXh2tiSkmS0oo8BCk+xUeFWrwM8lxZY1ioViiFCoVimVkShUKxRKhUKxQAOU15UhFZQBy4XWtshQXwzSqY5YhxG6iX7reIJwrJOi5Vh5HF6oFYu5HXk48YwgZd+AnoKmsd3rdSGg5mOcT41ImGWW73Xk4QskJ1GKJ89K3s9idaUpAcMnTvHLxoRF2KYcw9pmd2KYPWin7hcQA4XCDMzi18KkIkcux5pSXO0UOMqmeYjSt7TYbSsY8auWhHjNYq6HXk48ao5KiOZ41ljsz6k9klwmNYO7lOVAG7lseKAlS4G8wNeArS7LweQlSUAKEwjL1hx6DTwrdiz2hhSk4yZGQVBM891auWW1NqDqlHXOQI8DvoAiYtTyHMS0JUDO4x0g0Pa7esrCuwSEzoNY6cKKt7lrd7+4ad3WOJGQr203k+psICEZRKoPllQIgt9pQsQhgJO8kznyFLrQ0VNqQNSkjxIoztpRC0YVgwYmFDjyIoVLoxRMbyYmBpkN5PhvoAAU6UdmtoBCkJKQAIIKRm2QPzZKeactatditvaJStKsS2yJO8mARPVJPjVePZFRGFeakqlRgkpiMxHCI4caP2ftTaGlysgoUUgbsAIwnqJHkaaExfe6pecI3qJ8DpUljvo2dteA2jtFeqlrsQgkAx2inJgSdwNbX0kFQWnQ5eGZSfeP1RS9xMIx7gYPlP313scI5dNGDfHH8Hmcsp4dXKSXNt/EDvy2uvjG6cS4SOmmQih3WjiCiIA8ydIAr1drOgAB4/j8ZUG6VKMEmJnXr+PGoRwNKkad1u5MYXPevY2lp05BtwE8hMKPln4Vc7MlKHVy4prOTBUErmSlWQIUCDPjXMVJWkhUlYE90792uprqnovvJt9Jsyz3gkqZP5n02jxwmTG7vbhFc/XaZzW9dV8jq9n6mOOW19H8xpd5cXCcwjiRBV0T9GfwBWltvBqw2plTYKQ4HDaEJJwKBXAX2fqhwEHvAAmMyZmmG0Fpbu5rNaVOKnskDXqeCBlnXJH75LjpW8olSiESZjCMgOCRw61n7P0kpS3T4j8zV2hq4Vthyz6Is1oQ4kLbUFpOikmQalrgdw7Sv2VZU2uAScSTmhUHKR8RBrr+y20zdsQSkYXExjRMxO8Hen3e+3UaOeLnqjJh1McnHRjulm0dlDtncbUSAoBJIMRJAmaZGgL5UkMuFZhOE4jy31ifQ1R6oqaLsQi1FbTkJISVJSEwd2StYyzFOb4S0pr5wShOZ8Krd021tLTbqrQ2Rhj1kxyjIGeWetItu9rwposs+qcivjyFZad0dRuK5KrtneLC7QEsFKkNhQxIAwkrgkAjIwMpq4eiJ8y6jiEq8dK5M6gp0zkk9fxnV09HF8pYtCMZgKGBXAYjkfP41elRinJyuztyhUSqlJqJVTM5qqolVOqoVUwIjWVtXlAjkl22JSvmsYBJO/TlO+KNfuk2dQONMkZhKiR7aitNzpZhXaoJ/NVM9aJRc6HEdoXUaaE5jhAoLDS0XO6RMDj2hWmBz1nwAmj7LdKrQMliE7ioieeVD3fYUOjB2qRH1jAPWvDYW23CgOp72pByB5VIRK3ZHEhTTa8Z3AK14gHjFZYbM825iIW2IIhRIKlHQgEyI45aiN9aWq6ENFK+2QT+aometFOXMFoLpeTEZd4gjoKAC7RdFojtS4oGZnEMJ5RrWttW8sZqcKfo4ZPwMnlUNlsKnwEh3JI3qiec1EzZXBLKHjmdcW7hNABNmetSmw0FGY7wEEjkI31pZrXaLPiTOZ5DTeSKGFkdYXHaEEjTHOfWvH7G+2Q6pwzOpIz6b6LA1bvBfanElLgI70g5aRmkgg8II0NauWlQWFBlCUyJSMXtKiSfOtrU1aFgLKiQNDAjxiM6itVudWnCpeQ4AfdTEbXneLaiMLIb1MgzmNelJPliW25VPfVEDeVZ69BW1vvham0JVhUASlPdAlPHLXLeZ0qu25ROFIJgRMjjA4ndNNW3SItpK2Wp+80dklsYe7kVCSTJmFGYJGUAAUsdtily3Kkj1sJiCYict4+NDoWAcEZDNMe3rWKMqB3iZ6V6HT4fRw2t95wc+T0mTdXcRqUZnqCOB18tfMV4HJTI36eP8ASst7sIUeVCMq0HOPL+gq2ctr2ijG42MBHllRNzXiqyPt2hGeFYJTxnumOEgkHrQjKqkWJw9fcCfhTlFTiQjJxkG35eDlqeU66rNW4HJKRokcqBLQMmOVSrrwVbGEYLalwQlklJ22ahG6mF1Xk4w4l1tUKSZ5EakHkQINBEwJ/G81FjhB5/5U5KLVNcCi3do+jLDa0utNup9VxCVjosBQ99VH0pvqTZe6qBJK+aACD7SnLeYqb0Y3mHLuRiP5ErQroO8n91QHhVF9Ld8F1SWkkmI7ifoqKgUhXOIP61eRzQ2TcfBnpcUtyTOaXddjjqluNpOFnvlUaQe6nqfgasm1dmPZJUkZJgnxy99X3YKzIYsos7zXZrUSSo5hxSsu8Y7p0AGmQzoXaa70CxKWVFJgiAcjnEHpBNUyu0WwyKmcnafKUydTlO+f8vfTnZ+xqddS2nu4iQCMzw03+tHOaUKTiIEyE5z+NBXWfRZcSW2TaljvrEpOvZoOQI4KWZHJIPGmuRydI6BcV2qSylC3FLUBqqJ6EgQT+M63WCDB1ppZEQAN9A3iO/5VKiqyBVRKFSmolUwIyK8r0mvKAOSs2XGMSVN8wpQB9uo6VLddmbns1ugTJkaCc4HIfCjG7iUFkBtakk69mfMZZUXa9nFCC226s6/klCPGM6ZMX2uytNLBS6lXHCIFSWu72AjGHkknMCO9PWp3NlLQsE4FgHUdk4VDjAwwfEip07LvkABpxJGmJtwgjqASD4UACWayMupxKeSCNxE+VRWezoUChLiRGmMwCOug8aZ2HZV1JIUy8QoypQaWM+QjT/OiLVswsKBbZeVxJaUMukUgEtnsyULILqAVQO6ZA5zx6VJbbvbaKVB1JPI69c6bWrZY4BhaeKuHZLyPWK0/1YUpJK23grh2Sz0gxlQMRWmxLPelIEg4+0TpOYCQcUxlERRKLu7VOPtQANxVEcxRTWz6jktDqQNJaWZ9lJ7QzBKEBWEE5kEUgYQ22tScCXCQNe9E0Om1Oj5oYXM8sTbayOMFSSR4RQQZGKPVnXlW9ssyWVJwuBSj9WY8alCMpyUYlc5KCtglsZJUccFQ3nUTxio3k7xu3biN9SKzMnU6nea0dcI4V6PS6WOGPPU4Wo1MssuOhCtWZ4g1KlrFz/HGoglSvVy4yM/PSmFnbhMCT99XOS7zPN0uOpX74bLYS3iKsR1PXMc92deWY94DhJ86YbQ2UqSlcHuHPLcR94FLrD9JVZF+q0nx9DZFt4U315+IVjgg0Y2sSOhPw+NAozohgZnoPjV8MnrFU8dqwlZr3FlUSKkB3azuEk+Vaty6mbb3GlpXCepoO0vdwUa5cdseCeysryk4hJDagIzGpGmYrW/dn37M2lx8JSFEgJ7RsqGUyUpUSBWTJqYNtJo249NJJNosvoqvNQTabNuXgc6FMznunu+VHbE7PIfLjjolTTpI34lKCVFU9cuoM1B6JLKh1m0d2SHE57iAnT9Umf1qutzthlxSfrHPrM5VwM9SyNnTxtxjQfa7CFpzFKLTdQcaW2rMELHgvM+Mk1bCREdJ5Toek0udyURu7vt48MxVNEjgr2zqmrQbOsn1VKnkErUJ64QNcpmuz3DdPyRpqy4yqfnVAxCMgAhMapkZST6vClV8XAflKbU0YUAQRhBnXSSBMRkTGHF0plskrtHXXZJAIQjF9FKRMDIZAqMZZD2JKi2crSLqwnKk98vkOwI0Hxp42MqrF7uy8vlA8gKbBGfKVcqAXb18vKiEqpauoskS/L18vKsoQmsqIFmSzex1VZB4On4VG9YL3J7tpsqRw7FxRnrlXHv9YHTranD/AN1X31hvpe95R/XVVtAdgZuu9gZVbLMRwFnIM9ST7qmcu28oytrCT+gB+6uLG9p1dP7Sq1+WA6LJ86KA7OLsvLKbxY5/2ZP82VTm77b/AMwaH/ZbriKnSDoo+CvurxdojPAs+FFAdrVdtu/5m3/gNffXjljtsQLyanj2LXumuGu2/wDN81ChV2tR+iP2j91AHbXmben/ANTZPLsWx7qFDtqSCO3s65Mk4VSZ8YrjaVLO4ftH7qb7PWHtncDhLYAmZnFG5J3GoS4Vkoq3SLZf1+OWciUsKdUMvm5gaYzOXTx4VTn31OKK1nEo5k/0GQ6Cur3bcLATgU0gjeCAeWZOZNc+20sLNmtKWmlZOIK0pmYhRSUg7xllvyPCt/Z2pxJ7Kp+P30Mmv0mSt12vD76iBSzvFG2OxErYLiSG3XQ2IMEzmSOWnwo26btBlTiSSPonQad48d+XKnN4t4XruRvLjiz4ICh8Kv1naG1bcfx/oy6fRW92T4f2Vi0IAW4kCAFqAHIaVbNh7CHG3CQMlD3VVLYfnXPtq99dA9F6R2L36RP8NTzSf4NN+CM2nX+Y0vFg22F1JTYrQoDMNqOnCDXIEqhMV9FbR2YLstoQRMsuj9xVfN6Ve2sujycM6Gpj0C7O5lTW6LJjlalYGgYU5EjL6KeKs+g30iwnWDH44Z0yYvu0pUFNYEBMAJSDhy4gkg+NaZyypezXJVjjib9o+DoNqasdnbDqLGH0ZAukqdSOJICiJ3+qBTG1Xk+hsKsdmSoEA4muzRAPJACldBXO7Ptm6zKiwlBVqpolMniUGUHyzpi3t80nFLSkrOYQnLEo5CCkwAa5Wb8Rfr2dfF+Gr1SyXttKtttvGnE8tAUZJhJ0MgmdQcvbVDve0qdlbiipRyk7hwA3AcBXhtZWSpZlZkqPEnWOVQPmYM6e2u5hxQwYLl1rk4WbLLNm9XpfCOreiuzIRZER+ULi1qScioHuZce6kUxv1/A/82MeQJExB3DnIz5eNC7FWwGy2eUgQhIniQI4ZURf1hBJeaKQo5qSqcMjKZ3HdHTSuHllJtuJ0cSjwpj5txS0BSfWTkJPrJ0UlXQ7+VbvWcqz9VQ55HPMeZoO5ln5M1ihKiiTB0VnOdMrasowrAlMYVDiDr4znQrrkHVuugtvK7FupKS72aN5SJOekzuqfZ26kWZOAEmCcWKD3labsgdx8NaY4QUQmDxB3g0My/hOFYIEYQTrG4HjG40V3j9w4WsAEnQZnoKpNofxrUrTESfuq3PmW1EZ90+OVUhFRkTQcg0vWaMYNBqVUSREayvCuspActTfTp0DYHJlo/xJJqb/AEo+fpkfYQhH8CRVeTbQfVxHl3j8RXqbcrQBRHQ/FdT5AsCbwtH++eHRxwe41um87T/xD/8Aiu/zUiQtREmQOKgnP261sleWk9En3CjkB5/pS0f8Q+errn81eG8Xjq4pX2u9/FNIlKVuZcPRCx76kaYcP+yUn7VAUO1WuYJSjdIwIz46AGgLRbkoUJZbIO/vA/xR7KG7FYMESeAEEjfmVACt3GVGIZz5uIHxNHIUNrFbLGrJRU0TvxBQ+B9hp1ZLM3jQWXkOnEBhkBc6iU6gZe2qcmzvaQgDh2o/lNOdnrULNjeV33wIZleJCZkKWokTI4AZ5iRNKV1RLHxJNnRzeYDqbA2oqcICrQ7PdbCs8M/XI0HCue7TXg0q3l4pVhYHZNKBkEIxd4jWcSleyk4XaO9/aDK141kJzUs/SKtfhUjwWtICpWY9YpCSk8iMlA9AetLHDaWZcu9UXcWkFvtAE5pBMaZAq38eHOl922su2mwg54PlQB6ISR7yPCorieaDDbbwK5VhKArDIQcjukAESJHjoWzi0G8bMlsBKUMvQkCAmRERup5Hx0KO8q9qPzjn21e+uh+i78i9+kH8IrnVp/KOfbX7zXRfRZ+Re/SD+EV19R+yj5RONp/3j82WHae29jZH3fqtqj7RGFPtIr56bYyyFdc9L95YLKhgHvPLBI/MbhR/eKPI1yxCar7Oxeq2+81a3J6yRqkEfRiss2qo4/AVuUCvLCmQdPWPwrrRVSRgb9VsjtdlxiDULNhGIHUgQPvNHrjr+N9eoHlUp4oSlbQ1llGNJgj4LZnjpHHf8K9Jo21sYmzxTmPAE+3SlyVVwu0Mbhl9z5Ono5qeP3ouGyu1SGmUtOLwlJIBIOGJJEqAMa1b7q2msTqClVqaxzopQTMaYcUSOlcZX6vial2eYC7Q2NYJUf1QSPbFZU74LpQStnfNm7zQ6VtApMSoQQQU5A+Rg+NMmW3ESglKm/o/Wjhzj7qodxWdxK8bKsCo4DMetGnAH9mrpY2lqSlKyZPrGZJz48KscaKoysKaQtxQAVCE+sQB3juSCdw3kb4HGvLfYknuhIzIExn560zZASAAIArxCc5NQstoJs6QBFUS0t4FqQfokjw3Hyq9Jqq7WNw6lX1k+1OR9kVCRNATCqEKqls66DJqJI8UmsrwKr2lQHKG2nD6rSfBJJohu77SdG1Do0f5asS78bS4EC0NLbiVOBp1UHOBhU73tBv30O/eXbSLOhTsaqFnbSB5FeXMqFW0his2C1DNXd+1gT/FFAuOKBgvgHkr4jKmKO2XiCTGHNQT2ZIA1OEEEwOdaW5tJwqYdcVIn55tKQemFahrSYEVhsziziS6lQBzxOpSDy7yhRa7Ms72f8dn+aiLp2gZY7rzjySN7DqEgk8sB3fneVMbxvkPtlTdpdQjCow67jWojTuIThA5qUNZg0KgEgu1fFr/ABWz7iawWNQPrNf4g+6pLNeMsr+U295l4R2KZKkEQM1mMQ8OWe+gWr6bZcBWoWtsgYihVoaUD9IAmAYz4g0NgHKbgSVMf4h/koJ28G0nNSfDEf8Axpnar4YcWgMB1CZE43XBqeKjAHP21Y7m2esVqAUrFiIBguKPvOdQlNIko2VawWZ15ONlpS0yRIA1G4YiKBttpKFKaWhxC0+sMEkSJ3HgRXX7Fsq2xAbUpI4BYA3mTVL2/uliyk2lJW4tSkBSSo4RonHKYJyAEExNVwyZN7Uqru8SThHbxdlMRbQhRUSVCD3FoI3QcJmUkxqKaXS+83a8RS4ClEBKhmlBMgDEO8mIOWRnIjI0uZWDC0kzxGRBOuhyou9L0dfLJWvvMIS20oAAhCfVBIjFHPieJq4qH9ou1LkrZOZJJQTlJzOEnQ/mq8CqKufovSQy8CCCHRIOvqiqDdd+IUQlz5t3ITqhyTGfCTuOVWu7b6dYUQkCfpNq0VG9J1nl79BolqZTw+iZkjpYxy+kRVvShalLt6gdEJSlI5CST5k1XUaU220tXbPB0iFEZ5QJ1IAz3k76VN6V0dC7gjJq1UzbKtbK3qCTmdK1Ua9afhWE7xIrYmnLkzU0uCcprwCsW8BXiFzxq2T54IK+8IWr5tf2T7ppDZ11YWNfxvquJThJB3SD1GVcftLlxZ0tAqTR48cvE1ZPRpZMdocX9RsDxWcv4DVXeOXjXQfRO0OyfIIxlaREjFhAGZGsSpVc6PU2ZPylwZbUmSnVCj5TMfGrTdNqx55RGUc/6zSC0DC65G8BQ555jyNNrpXAAO8wMuI099WMpjwx4DW4oQPRrRQWDUS0laEaeVJtr25bQqNFx4KB+KRTdrLSle1NuaQhLLiglTshE7lJGIE8Biwpnioc6TVkkyroWBvoRSqxc1ApVVWTPZrKhKjWUgOPs3v2ZlDSJjVYxnqAru+ytX74feOFx5RTwJOEcIQMh4CplXc2ZXjWoT9FIB8icq2YabTEIdnjCMXliyqwCOzXe8h4JVLbgOUmDvBIVOY1EjgaKt11PpOLAcIEkASAJPeE6gxkRruOtY864swELCY3geZjx461jTSgMx50IZHZbcthwQhpeLLvIBRByILYISfEGmd07UWiypdUw4lkuqIWA2gp7pWQlKFAhIBUYA40tcSpRASU90zBOn4iinbvklOHIwYJJViOciAJmRFAhXeNuW+py0PKW44pQlRKRnGUiMkwIAEAQKCFoI0JHQ08f2btKUk9g7gAkq7NWQG8nCIGtKXLtcwlcEgRORynTPQ1FSUujG0yS7Hipakkk40lMk6K1R+8B5mr7sNaVJSntSUBRgLjumDEnhVAsjco7sFe+deUVYrivFYBAOR1ScwrcQR199KUbBOjr3ZFxIUFEjMYgRE9dKrlp2P7RYU68XBilSThAKRoIxGOooO5L2A7iD2MwSg5tk8Qfo10NqzthKS5ElIJ72/wqCTssWR1SOQ3xsM/Z1LdsykutDPs5PaRvAEQuORk8KTEngQdCkghQO8EGuv3/Yi40lLTzKHAuSSV4SmFDCfWk5jyqnXvsz2DTtoNoS8QMmEJWQZKR3TlhyHCKvilVtlLuynOsFQgg8jUrd+PpT2alghOmKZCUzmhXADVJzyEaUJZLEtwwClI/wDcUEmd0H74qyWTZtttsqWnEvUhREpA9UJ3STG+c/Couh0C9s653FkLKymElKJ4AYoBznedRNeXhdDrOZQQN4JBKesbudE3UvC+h1YxJQtKiCQJwkHU1f7esvIU4lsxgOYSTM+rrrmB5VdHU5MM4qMbT6+4g9NDNCTk6a6HKQmoX2pWnODCo9lHXg3gWREAmQBuHClV4rzbI+t7xXclKLx7vL5nIjCSnt8w9pggZ1KKBK6ISrhVykuhTKL7wxpWlVq2rhxf21fxGrA1mKTW2yDGo8VE+Zmud2n+SLNvZ/5pIFdUMNR2InFIJBGhBgjoRpU6rJlWiLMU6VyIyVnTa4LVd+1VtQBLodSIyeGIgfbBC/MmnTfpItacgwwEiCAe0Jy3ziHu31ULCqRRKk6861bUyjvHzvpPtyiQPk6eQbM+almtm9ubeo/3nD9ltn34J9tc+UYcPWmlkVIpRok0XZe0trUc7U7EHILKRMcEkUGh9SnCpSlKORJOfLU576XJcMjP8RUjSs9+nHnVqIMvYdlNRKNKXL3aaaSVKjQRvmKja2gaXooDrArnPrRp7hoVVlA/L2/rp/aFZRTFaOcXfasQxRBBAPMHQnnzo1SUEydRER4jTzpzdVts7QksJUqQZEAZHu93CQDxPSnje2SASRZkgkzkqPbgmp2xleZuV5QAQw44JkAJJEmJMxG4b6cWfYO3LzFkUOpSPjTyx+kEjcpHRYPvAqy2Lb84SolREa4UqjwQSaVsCmsejG8FHNppI/OXn5YaZ2b0UWyQrtWUEEEESYIzB86d2n0hOQOzC16ZdmEZcZVPuoO3bYOOCC28QZ1cSjywZg86HyqAbO7HW5xBZctjRCkkKwtKCsKgUnvFRHspSx6ILKlOF+2OYp1xARpkidBQ9hv4I7uBaUkyol5SiD1MlU+EV6q/UhKoeGMzClmYnSRlMeGpqnFgx4VWOKXkTlKUurDGfRjc4VJeW4tMThdzndIQNaaWfYS6Ge/8nc11V2sSeuVVGz7RJblanUuOmJUkQIHqgJBMAZ7zmTSO1X24Xu0+UWk5yEFcoE7gkpMjqat5I0jpb923akdyxpPMyPjVdvvaiztZJwyIGFskkDfnMZDdlVHttredyKnFAnMKUY8pjwrezXUBmRPUQPbRQrLkxbXn0tqasqQkpOBbroBWASCrCJUQDlNKdob0tlkUkKSxC5haU4oUJOEhZOcAnNNDr2atDgQoNrATmgpMRMTGE6ZCl15XS8pz5zEpQ3kqOHjkdPCq6m8nDVeXPxuiXG3vE0Y3ASqMSgVkACMSu9A9vCnVtfLrjQQFlIUANYUZgFRPrLPEnU1ozcC5zSrwwD2lXwphc9yvKtLKeyyU56uIkGApwyqE7knStDVcladlpuDZBCHAX2ytJmU4jhJBJhUGIyMA1YbztSWycXaEyYCEEpCNEpgZE5zlllnS67nl9sgKVBIAUMMFUgJOIgZ7jnwFWO0KbX8yEiMgSqRnBMncrXXdTa8Qs596TbkR2LVqbA70Yo0MiQoZb5NcqvFEltI1KwPE5V2LbFwBLVmHqwsqzJgKlKM+pVl0NcovOyKS4EyQUnEDvgiUn2iujpp7sTh3mLPHbkUwZS93PSjEmBQIclRmAZz676IcX3a2wlw2Y5x6IOYOVQWlHeNTWXQ9PcQax9PePWsvaj9lHz+hf2evaS8gPBXhTU5TWvZmuIdYDspwqKeBPlqKPWvL8daX2oYVhXH4f50QXZFbIStGeSpiZ5PfPWjrGrKomE/ODqKkZThWpPWOmopLhjHaDlIqRs7/AMcaHsfw+AqSz6R+Jg1ciDFLxCgQdCZoZSQMgRHCnK7uUfqUOu5+KvIf1rJHdF2iyThJciYWoVlMDco+sfIVlXb5lG3GHiBWa6VlZWZI1k7VjcVGFM+I++mVm2Vtau8luOeNA9yprKyppAHjZO2/ScCRzdWfcDWqtmVgwu1p/wDlV8BWVlAGf6uNDW0YujSviqpUXHZx/tHD0Qge8msrKjYE6Lrs4/3x/WQPcmj7vu6zFQBRA+sZUR4CJrKyiwssDd0Xe2rEpKlHm00R5LKhT2yMshGNphWHiktNf/WlJrKyk2IHtV7sJErYJj67ri/fNVu8/SBYEdwJaSrghgqV4FYAFe1lSSCyr2jbxoTgsylcCtaU+xIVTHZbad60WhKUoZZCUqUlfzhIXhwQTJyhatEjdnurKyiuALta0JS4HRJdwYQJyzKhjOQ0zHEmNN9bve/rQ2exDigkbsvfqPCsrKvUVtK2+QC77O5aSQAEpmVLOauJAGpPM+2k23V3hDyMP+6UT0bI9sE+VZWUYpuM+COWKcaZSnUwvqKkzyHCvKyuuu85r6IY3WqQZ6eZAoxdkMmVDjWVlZdcrxwst0r2zlRobHxPv++tfkyaysrnbI10Ne+TfUDvazDs8Q+iR5HL7qEHqA1lZVkBp2DWfJxJH1hRt8I+dSriIPUf5+ysrKO4G/WSCbLMjjU7BGZG45jpP9KysqxAzVVsPAVCu2n8Cvays29klBMhNrPGsrKylvY9kT//2Q==;" vertex="1" parent="1">
          <mxGeometry x="660" y="330" width="275" height="183" as="geometry" />
        </mxCell>
        <mxCell id="0-I5_G3RzfP3J93G6mHh-15" style="edgeStyle=orthogonalEdgeStyle;rounded=0;orthogonalLoop=1;jettySize=auto;html=1;entryX=0.935;entryY=-0.021;entryDx=0;entryDy=0;entryPerimeter=0;" edge="1" parent="1" source="0-I5_G3RzfP3J93G6mHh-14" target="0-I5_G3RzfP3J93G6mHh-7">
          <mxGeometry relative="1" as="geometry" />
        </mxCell>
        <mxCell id="0-I5_G3RzfP3J93G6mHh-16" value="&lt;b&gt;&lt;font style=&quot;font-size: 15px;&quot;&gt;Technical -- imporvment&amp;nbsp;&lt;/font&gt;&lt;/b&gt;&lt;div&gt;&lt;b&gt;&lt;font style=&quot;font-size: 15px;&quot;&gt;Profile enashment&lt;/font&gt;&lt;/b&gt;&lt;/div&gt;&lt;div&gt;&lt;b&gt;&lt;font style=&quot;font-size: 15px;&quot;&gt;Linkindin&amp;nbsp;&lt;/font&gt;&lt;/b&gt;&lt;/div&gt;&lt;div&gt;&lt;b&gt;&lt;font style=&quot;font-size: 15px;&quot;&gt;Git Profile&lt;/font&gt;&lt;/b&gt;&lt;/div&gt;&lt;div&gt;&lt;b&gt;&lt;font style=&quot;font-size: 15px;&quot;&gt;Naukri&amp;nbsp;&lt;/font&gt;&lt;/b&gt;&lt;/div&gt;&lt;div&gt;&lt;b&gt;&lt;font style=&quot;font-size: 15px;&quot;&gt;&lt;br&gt;&lt;/font&gt;&lt;/b&gt;&lt;/div&gt;&lt;div&gt;&lt;b&gt;&lt;font style=&quot;font-size: 15px;&quot;&gt;Job search&amp;nbsp;&lt;/font&gt;&lt;/b&gt;&lt;/div&gt;&lt;div&gt;&lt;b&gt;&lt;font style=&quot;font-size: 15px;&quot;&gt;Job Apply&amp;nbsp;&lt;/font&gt;&lt;/b&gt;&lt;/div&gt;&lt;div&gt;&lt;b&gt;&lt;font style=&quot;font-size: 15px;&quot;&gt;&lt;br&gt;&lt;/font&gt;&lt;/b&gt;&lt;/div&gt;&lt;div&gt;&lt;b&gt;&lt;font style=&quot;font-size: 15px;&quot;&gt;Interview prepration&lt;/font&gt;&lt;/b&gt;&lt;/div&gt;&lt;div&gt;&lt;b&gt;&lt;font style=&quot;font-size: 15px;&quot;&gt;&lt;br&gt;&lt;/font&gt;&lt;/b&gt;&lt;/div&gt;&lt;div&gt;&lt;b&gt;&lt;font style=&quot;font-size: 15px;&quot;&gt;Real time case study&amp;nbsp;&lt;br&gt;&lt;br&gt;&lt;/font&gt;&lt;/b&gt;&lt;/div&gt;&lt;div&gt;&lt;b&gt;&lt;font style=&quot;font-size: 15px;&quot;&gt;Resume Prepration&amp;nbsp; &amp;nbsp;&lt;/font&gt;&lt;/b&gt;&lt;/div&gt;" style="rounded=1;whiteSpace=wrap;html=1;fillColor=#d5e8d4;gradientColor=#97d077;strokeColor=#82b366;" vertex="1" parent="1">
          <mxGeometry x="-210" y="410" width="200" height="330" as="geometry" />
        </mxCell>
        <mxCell id="0-I5_G3RzfP3J93G6mHh-19" value="" style="edgeStyle=orthogonalEdgeStyle;rounded=0;orthogonalLoop=1;jettySize=auto;html=1;" edge="1" parent="1" source="0-I5_G3RzfP3J93G6mHh-17" target="0-I5_G3RzfP3J93G6mHh-18">
          <mxGeometry relative="1" as="geometry" />
        </mxCell>
        <mxCell id="0-I5_G3RzfP3J93G6mHh-17" value="&lt;b&gt;FAIL&lt;/b&gt;" style="rounded=1;whiteSpace=wrap;html=1;fillColor=#dae8fc;gradientColor=#7ea6e0;strokeColor=#6c8ebf;" vertex="1" parent="1">
          <mxGeometry x="1030" y="360" width="120" height="60" as="geometry" />
        </mxCell>
        <mxCell id="0-I5_G3RzfP3J93G6mHh-21" value="" style="edgeStyle=orthogonalEdgeStyle;rounded=0;orthogonalLoop=1;jettySize=auto;html=1;" edge="1" parent="1" source="0-I5_G3RzfP3J93G6mHh-18" target="0-I5_G3RzfP3J93G6mHh-20">
          <mxGeometry relative="1" as="geometry" />
        </mxCell>
        <mxCell id="0-I5_G3RzfP3J93G6mHh-18" value="&lt;b&gt;Time -limit- 90 days&amp;nbsp;&lt;/b&gt;" style="whiteSpace=wrap;html=1;fillColor=#dae8fc;strokeColor=#6c8ebf;rounded=1;gradientColor=#7ea6e0;" vertex="1" parent="1">
          <mxGeometry x="1030" y="453" width="120" height="60" as="geometry" />
        </mxCell>
        <mxCell id="0-I5_G3RzfP3J93G6mHh-23" value="" style="edgeStyle=orthogonalEdgeStyle;rounded=0;orthogonalLoop=1;jettySize=auto;html=1;" edge="1" parent="1" source="0-I5_G3RzfP3J93G6mHh-20" target="0-I5_G3RzfP3J93G6mHh-22">
          <mxGeometry relative="1" as="geometry" />
        </mxCell>
        <mxCell id="0-I5_G3RzfP3J93G6mHh-28" style="edgeStyle=orthogonalEdgeStyle;rounded=0;orthogonalLoop=1;jettySize=auto;html=1;" edge="1" parent="1" source="0-I5_G3RzfP3J93G6mHh-20">
          <mxGeometry relative="1" as="geometry">
            <mxPoint x="860" y="800" as="targetPoint" />
          </mxGeometry>
        </mxCell>
        <mxCell id="0-I5_G3RzfP3J93G6mHh-20" value="&lt;b&gt;&lt;font style=&quot;font-size: 13px;&quot;&gt;Profile negative&amp;nbsp;&lt;/font&gt;&lt;/b&gt;" style="whiteSpace=wrap;html=1;fillColor=#dae8fc;strokeColor=#6c8ebf;rounded=1;gradientColor=#7ea6e0;" vertex="1" parent="1">
          <mxGeometry x="1030" y="550" width="120" height="60" as="geometry" />
        </mxCell>
        <mxCell id="0-I5_G3RzfP3J93G6mHh-25" value="" style="edgeStyle=orthogonalEdgeStyle;rounded=0;orthogonalLoop=1;jettySize=auto;html=1;" edge="1" parent="1" source="0-I5_G3RzfP3J93G6mHh-22" target="0-I5_G3RzfP3J93G6mHh-24">
          <mxGeometry relative="1" as="geometry" />
        </mxCell>
        <mxCell id="0-I5_G3RzfP3J93G6mHh-22" value="&lt;b&gt;&lt;font style=&quot;font-size: 14px;&quot;&gt;Practice&amp;nbsp;&lt;/font&gt;&lt;/b&gt;" style="whiteSpace=wrap;html=1;fillColor=#dae8fc;strokeColor=#6c8ebf;rounded=1;gradientColor=#7ea6e0;" vertex="1" parent="1">
          <mxGeometry x="1030" y="648.21" width="120" height="60" as="geometry" />
        </mxCell>
        <mxCell id="0-I5_G3RzfP3J93G6mHh-29" style="edgeStyle=orthogonalEdgeStyle;rounded=0;orthogonalLoop=1;jettySize=auto;html=1;" edge="1" parent="1" source="0-I5_G3RzfP3J93G6mHh-24" target="0-I5_G3RzfP3J93G6mHh-27">
          <mxGeometry relative="1" as="geometry" />
        </mxCell>
        <mxCell id="0-I5_G3RzfP3J93G6mHh-24" value="&lt;b&gt;&lt;font style=&quot;font-size: 13px;&quot;&gt;Interview prepration&amp;nbsp;&lt;/font&gt;&lt;/b&gt;" style="whiteSpace=wrap;html=1;fillColor=#dae8fc;strokeColor=#6c8ebf;rounded=1;gradientColor=#7ea6e0;" vertex="1" parent="1">
          <mxGeometry x="1020" y="760" width="130" height="60" as="geometry" />
        </mxCell>
        <mxCell id="0-I5_G3RzfP3J93G6mHh-26" value="" style="shape=image;verticalLabelPosition=bottom;labelBackgroundColor=default;verticalAlign=top;aspect=fixed;imageAspect=0;image=data:image/jpeg,/9j/4AAQSkZJRgABAQAAAQABAAD/2wCEAAkGBxMSEhUSEhMWFRUXGBgYGBcXGBgZGRgYFxcWGBgYFhcYHSggGh0mHRUYIjEiJSkrLi4uGB8zODMtNygtLisBCgoKDg0OGxAQGzAlHyUvLTItLS0rLS0tLS0tLS0tLS0rLS0rLS0tLS0tLS0tLS0tLS0tLS8tLS0tLS0tLS0tLf/AABEIAK0BIwMBIgACEQEDEQH/xAAcAAEAAgMBAQEAAAAAAAAAAAAABQYDBAcCAQj/xAA/EAABAwIEBAQDBgQEBwEBAAABAAIRAyEEBRIxBkFRYRMicYEykaEHQrHB0fAUI1LhM3KCkhVDU2KisvHSNP/EABoBAQADAQEBAAAAAAAAAAAAAAACAwQBBQb/xAAwEQACAgEEAAUCBQMFAAAAAAAAAQIRAwQSITEFEyJBUWFxFIGhsfAyQsEGI9Hh8f/aAAwDAQACEQMRAD8A7iiIgCIiAIiIAiIgCIiAIiIAiIgCIiALEzEscS0PaXDcAgkeoXqqyQRJEgiRuJ5hcVxtVlOtVYHObWbUcHRIOptgQd9oI2WfPn8qnR1KztqKg8B8ceO7+FxJir/y3mwqAcj0fHzVxbm1Au0CtT1dNbZ/FWwyRkrQUW+jdRR+KzvD0zD6zAekyfcDZbGEx1OqJpva8f8AaQfn0UlJN1Z1wklbRsIiLpEIiIAiIgCIiAIiIAiIgCIiAIiIAiIgCIiAIiIAiIgCIvFWqGiXGAgPaKLq50wbAn6L5Sz2mTDgW9+Sp/EYrrciflz+CVRfGuBEi4QuhXED6i+By+oAoLijGYWkw+Oxry+wbA1O99xHXksuecS4fCWqu8xEhrbujr2XMM7q1MXXdWJcA6zQ5sBrRsAZ/wDpKyanUKEaXL+DfpNJ5j35OI/Pz9iAzTAa3F1OeZF72uBPUdViy6u91QSZd07+isdDD0acNL7nc8j69FH4rBBlcupuB1CG6TIg33C8ZZLVM5j1UsWSXk9P2ZrY2q6byFo0M0q0Hh9J5a4HcH8eoUiaOqWP1tgC7mxJ56L/AFWriMLSbaXDuQD+a5H0S75PodHlebF/uwr/ACdc4E4wbjmaXw2uweZvJw/rb+Y5K2L86ZU+rh6zMRQeH6DJixjmHN3gi3NfoPLsW2tSZVbs9ocPcTC93T5XOPPZ8/4hpo4cno6f6GwiItBgCIiAIiIAiIgCIiAIiIAiIgCIiAIiIAiIgCItLNcd4TZ+8bD9VXlyxxQc5ukiUYuTpHzMMxbTEbu6fqq/icaXmSZWtUeXEkmSUYW818TrfG82eVY/TH+dnq4tLGCt8sOqBYSV6xLm/dWKhcrz3qcvyaFFG/Srva3S1xA6AlatZz97n3WUMJFlrVJC2LxPK0tydff/AKK/KjfB4ZjXsMgkehhWDJOImv8AJVc0Hk4kCex6FVqriI3EqoY/FMdUh0hk3iJ9IXr6PXu04u17plOXApRfHPses5zT+fWxFW7jVc1gOzQ0kT7CAPdR5xZfrqOMBsje+oGI+cqPzOrrxjabW6mUjIYDAdEEEk9TEnovOMzNtPUy1ao5xc8AfywTyA/pG3danBN883yM+tyJRhF11dey4pJ/ubOXVvEcHFzg0GYBN46/Rb7cWBMAkqI4fqeJUa2sRSp8yBEDsFcMVmOWUh/J1vcBzsPWSoPD7fB76ljTuMbb+P8ALKvjcze0w9R1XOC7yukgbHn6LHnON8V5f1J/stRrW+GSd5+WysjjTXJrntxpOuT3h8Y5lRr2Egg8l+huAMaKuEbFtJIjpPmt2klfnLD12hwsu3/Y9W1UKg5S0/8AsPyW7TWpUeF41UkpI6EiKPx2Lv4bd/vEcp5LZKSSPnkrNmrimtsTfoLn+ywPzNo+6fotOjpFh+/1XmtQ1clV5j9ie1G2zN2HkR8v1Wxh8fTeYa8aumx+RUDXowOXZYBR1CY22/sorLJPk7sRbkVdwWcGmQ2qZb/Ud2+vUKwgq+MlIrao+oiKRwIiIAiIgCIiAIiw1MS1u5v03SwZkWk/MQPuuPsP1RuYjm1w9h+qjvid2s3VVc/r662nkwR7m5/L5KyUMUx/wuBPTmPUG6pj6mp73dXErwP9Q5tunUF/c/2/iNmihc237GOrU0rSfjwsmNaSq/mbHMaXdBK+UwYoz7PTbpWSdXMF4y3MmuqubNw2Y7Ex+So2CrV67jFXQwESYBPoJ2Km8LQp0ZdTdL/vOJJJ9Z5L0Z6KMIuLfP0/yZPxkb4XBdP4qNisb6pIOxPKevdU/B5q+o/SRpmYPIx0KsOGceax5NM8XDNcJxmriV3Fsr6neKXunk1xDIPIRy7FR2FdTDHPYyAbAkAyYPXlcK54miHtIIkGxVczPAhghogT+K9TT6xSW2q+3Rino/WpbuPcgaOOp6C6IqF3hHedLZI9jb/bC06GE0vAIkuBJI3HIC684nBRLiY7C9jax25la9TN6gBpsIDYgmASb9SvZhHcvSZ8OnlnyOMTYzGsG+QDfaSbDl7rXpUCeYWlHM3PdZKT4MrrjS4PrPD9N+FxbU+X2ZqzNIM78lomrAPde8VVkytnJsF4lVjngmkJnbzFvITvchaMUdsdzM+v1Gxcnmnk9dzQ9tMkb7t7G4mQbiyvvCWb1sJQdTY5rXPguNnFrQDt8zflA5mFo6/MREDrewEiSOpv02C1cZiP5ktLjDYIm8xu6bi4PluuqTfR81n1uTMtron8FxnjWeUV3u5AvDHT1JLm2vI/0lT2Scb0iS3Eyx7ngBwu1xd/UR8MXnlA9lz7UZEaiQLAiGyerus6jYk9rrBjW6SdU2tuRBiSbTJ+HlO11JqXyZlJo/QlOmAPLzXnUqvwLxX/ABVM03tLatIAP/pIOxHPkRB6K061YnfRYYqp7KPB80bLfruuI2WviXjfmFyR1ERmry1pJEjmpfgzM/FpOpky6kY/0n4flBHsFD5pVEEHotX7OKmrE1yD5fDBt3cI/AruNtTOyVxs6IiItRQEREAREQBfHOgSV9UXmdeToB2iffkoyltVnUrZixWNc8wJa3sLu9+QXmhSPP5L1So7mL9T0WdtOB3Wflu2W8LhGIsi8r5UMiyyViQNpXhzREocInHnT5hILbgt3lVnL81a9zmzcH597Kw45+oOEnv2sPhsua4tv8PiAGu1NdMdRHK3JeP4lpvOx/Y3aaW118lkzLMyxxALY7zOyhMZnrCIeWkdI/Vfcww+EdNWsXajHla43t05KiZvnGGDi2hhWuP9VSpWd9GvAPyWXSaSGRLbB/el+7ZXljkt3IslTiOmbNHoovHZvzBgqBoeK6XGnTAPIAtj0usLsG4kCTJ7/mvTWhxwZQ91dFsy7H62sIbUDm7EGWEgkyWk2na3RXzDuMAkEKL4PybQA94g2IbyaYiY2lXrD4HX92y+f1+dZcqx443XwbtLDyoXL3IMPEKr8S1SXMaHaWknV1Itz5K+PysVHkUwQ0EAnp1jqp6hl1FoDW02wDuWgk9yTdXeHaOUpPI+l+v2O6nMtu1dv9DjeOyKt4Zc2k9rWsL3FzSPKIkguHcn2UTS4eY9odqLZtrAJDTZo8QdDG4iL7rv9ZgdaFoUcFSpOLiwT1AHIyDHXuvbjDY+GYsUpY3cGfn/AB+RYmiXB9GppaY1hjiw9w+IIUfK/TOYPaRBIB5d1yHj3hFwf42GpyHGHMYOcTqa3uNwOas7dHvaXxTc9uRV9Sh0cM6q8MbufoOZ+StlKjTw4axkGREkA6jz1TYbclXeH6hFYyL/AA3kAOJ2IieRt2VrxbYIcLyBeIMjq07cjJ5Cyva9n0eV4nmc8lLoxsDhpAuXaS/pflytqJ6xq9Fr+CYLyWufe19hAcHekRAH5LNjMWwFwkWiT5YtquOZuB8lqur7ASIsdrkx5bXIuZIj8USs8w9Yd24JOoxLhpMiCIAN+UeoJtuvLHS52nUf+5wJAd5t5AE7EAyPKT6+W4gDmNX9RgSTJJiJJuPk1fK1WxMO0gw3qYa4yHE7kDn0CkDc4JzoYfGmQAKktcfSCCT1/VdebmzSJ1Bfm/F1XDQ9s252ibbRy5KxZTxLXIa0+l56dVFpxVo0447uDs783EbR7ysH8e0eZxXPKfEz2w0xPXfZan/EK1eq1jTAJgAvaxs/9z3Kve2aPwzTarosHE+fi+kiIKxcG8b4fBUTDHVq9U+YN8rGNbIaC525Mk+UHcKG474bfhKdN2IrNNWq4xSpzpaxvxOc83dctAAA3O6hsnyx9d2ikJPNHKUH9Tbh0mOeLdJ8HSnfa04H/wDnZH+Yz84Vo4Z4/wALjHCnJpVTs1xEO7NdzPYwuG55k1XDGKggqEFdzXBzSQQZBG4Ktx5pvs5Pw/FKNwP10iqP2Y8SOx2DDqt6rDoef6ujve/yVuWtO1Z4k4OEnF+wREXSIUJRJJLjeT+Km1B06gDnA7tJH6fSFVl9icDaaDPZfdBmeyU3BHVBeVWdPFZhPOD+a0q1WLDfmVnq4ocioTG4wNmSoya9iaRgzfEQx3KxuuR5pmpdWIbfTN+hNlZuKOIwZa129o994VGx+htWr4V2g6Q47uixcfUye0joobFLhlsbXRhxlexBJJO91rYfCxtc/vZb+Q4DxHSVf6HCzKjILbW2kf2+a0VSLU0uznVOof3yXvwjuB+/dWrPeFnUxqbccpsR/q2+ag/4eqG/AWgSdRs0bfe29PQqE47kWvalZbeF840tDX8oF99gY+qv+U5ga50C1NokgbmdhI/dlx/DOERs+DpvvDReDcCxuRyXUvs9pEYbxHgBz6jo66G+Vo7Czj7rxo6Cs+7pPtfJDJlWwttJrWiGgDsE8ULE13In0XwOXpfRGP6nyrX0mZsvVUB1+X4+iwYzb1sPnC9PJAFugUNp2zTzGiHUxMz19NohHUW6WPiXCYJJMe208ltYmNMFaVN7hTLokCR7/ldKo7dlK4myVtbECrSa1lZwIcOTnNBEmOcE3526KUyngRr2h2KdExFNpjaTc3g3+6eQupLL8rca/juiC2WtB5m1+lirJSEhuoQem8K3H6lycmlZEs4WwTBAw9P3E/UyVB5xwPhHu1Ma6m4iJY4wIn7rpHPlCt9R3X92WCuB9FN/Qgkcez/hmthQXzrp2JeAZEdWiY5G1lVcxxLn3kSTpaJ+Fk/EZsLEie46LvuIpjRDryIg+l1xHjzIhhq4qN/wKm3RhH3R2gkj0hdj3yccfdFffpJa4WuREcgBz9CPqpfLmtYHVHbN5WvvCgqbg6oS2TMAc5AU3l+kECrqaPTcc7FQy8VZ62mxSemfl1b+fgw1ceHQ2zTqvFvYkrNVxIYPJVDjzGkiPc7qawGNw2Fq1XOoitrpjwdQs0FzwSejo07Ks4twLiQInkFCSi2katBDIoXJ/t/6esxzKrW0mo8uDBoaCZ0tkmB2klb3D2dPwz9TDB/EKJxGGOkEAk9PqtehWVrhujwXLJFtwfRaeIOIn4mNV4UB4ZcdlmoYkAXUhl9PWRZVRTTDyQxxpHTPsiqGjTcOTiPpP6rqzHSqHwTgIYBCvdNkBbYKkfNZpb5uR7REUyoKMzTAl3npgauY6xtB6qTRRlFSVM6nTK7QxceU+V3NpsVq5hjYE3gfu6s2JwzKgh7Q4dxKoHFuc4KkHU6NN1art/LedLSDcOcSR2gAx2VMsbotjJNnzFZ21gnUAI9/lzVOzriA1JDbDqTNuwUbmWDxNV2oNNNhi0Ex79O8LbwWRimWeO4eeA07gneJ6xdV7GlyW8FYxVMkyAtA4Y6SepMrpmNwNFrTDQYNyudZnU8OqQPgcfWDznp1913HJNkuj7kmOdRdvF+khXLD8YOFg5snkWk/WQqS7Dg3CxmkeavJcPkuebZ5iKoimQe37KiaOY1HvhwaC1pDhIbZvxOJAny3dedl4y7NGtAnf97KOzjMgHOdSlpdvpMX62+fquUXSqS9JMYvBhhcCGlwHxguHmLQ4nfmXGA2Ley3OGeK30xSo6yKLqtFhP3o1aXQSIAAIcT2jmqoMdWq6ZF2wGz5vLckQe8X3iVmxOGe5tKXNZpLgImznODpjf3WdtJ02VZNPljG9rP0bQa2S0nUR1taOyy1Gf0xHTZU/hHPy9rW1H0xUAAIIkmABMyP2VbaL5uYPoI+kn8VXaZQ4tdnipVbYD4thvN+yyYmlABkTI3/AEHqsRxelxOmAeZHcD81q5jmQiBO9z0k23S17imZsS0xDTLiene+2y08b4gpvkBvS42i5XzA5jSYKhBJcNzuBzN9rKpcW8TMgN1GNoG56woS5R2PZbcBjGglocPLA/fdT1GsFwnKs6xNXFsNFskkBtPqIMyfSb7C66jhc4LYDwA4RIkQQebDzCnCTj2JRvosuIbItHda1SgFkp4oOC8VHg81dw+SvlEfjqQIjn1VD+0HBirhajTyAeD/AJTM/T6q8ZjUIv3j+65/9oeOFPDlv3nkMaOs7/ISuLsnFWfOD+F6XhNc2JImTuVPZplzAwse23QwWn2K9cABjqTS+WwN7x81qcVZkWvLWkPZf1V76LFe6kc04kpimW6PhYSI5gOMxPMTMeqiWY0Ttdd2ZwPggAatI1LCdTnR38oMbrJV4AyqsI/hmt7sc9h/8XLPvg3RfHVuMaOBuzLS6dzyExC2KOXmrD7Mk8yIldA4l+yEUgauDc54FzTfd8b+RwjV6ET6qp0MQWAtgadi2x+bTN/3CTm4r0mOWee6yPq5FUF9TdPWfzVk4TwLHVGsfWp0h0OqT/qiPqo91SRIc0b+WIjt+ws+WYrw3tqarNIJDRqFuek2NrQq45pX6jj1GSSps/QuSYBtKmA24jfqpNU/hLjXD12tpmKL7AAw1jjz0XtfkfmVcFvjJSVooCIikAiKP4gqlmGrubYim8g9DpN/bdAUjiXiOpiqr8Nh3FlFkipUG7yLEA8mSCO8Hlvo4DAsaA1oi02iY6uJ2npv+WLJhSaKlN5DS61zEt0gDTPbopOjQpT56oqOgCKbSSRy1AEj5qvsuVLgxYKs0PJk6GtcahdsIiCD8/W6pP2j45tHCUaAtWe81tOxpMJcQI5XdA/ylTPE3F1CgNFJrXvBkU/utcNnVnCziDEMb0udo55hsDXxtc1artb3Ok6tz0tyA6LpdDH/AHMtvCWJbWptZUYC7SJmoQSSLwIUnmmRU6lH+HDRTIJewOAkOPxEPFzNpknlbZb2S5H4VM6tI6uJWbOMYxga97g2lT8xe60mC0Bo3dudt7QopFb74OU19VCp4Tx5gYhYsRitwrfwxk4zLE1a7xpaTqZMCBZrJ7kNlR/GfDbqNfRNMu5hrp9NQAsbpJpcs5KdcFNrYpbOUUNZL3THKeQC+/8ABX6hMFvo4T2BMfuFM4PB+Qhuw7z9Vmz5ltqJv8K2yz+r2RI4HKa1Ruukyw6CStHMaFZrdNQH3U9w9xZUwbSwNBHdafEnEpxUS0DrCxpRq12fQKWbzKcVt+SDp5i9pHqulcJcUuc0MqGYMTf8t1y3RqdYc1I4Yva3yuLSXCD3gyutqJl1+CLjwjs+YZ7RDdJqAudpbHQkiBHLfmpavRoBpeWshokuIGkQN1y7h/LsUXMqE03NDtXmBl3rzH9laMbiBVoGnWeKQcIcGmDflLrR7XVOTW48a3Sd38cnieQ3wim8Q8S+IKQosdSaHOFVod5XiRDobYzLvpvaIHGUTUc5zAYLoBJ2bJj4lamcMMBBpuaQT8UAn1n8l7zfh2qy9P8AmA+gLbdOiqXiOG9qff5FLwZop8FZwpdSdNMhkMc2RvD2w+HchEie5vsr9wfwvQ8I1Kzg97mhukGRTA2BgkTEegsqTiMofScRUBBcAT5fKZAO4N7g2PQLeyrGV6bx4IB0mYEae4LbDa35q+OeK9V2v0KYxkpVXJe8VRrYe7HeIzvuB2PNaNTjGmwE1SWRvIP5KXp4o1GAlhaY2mVzbi2l4xqU2TrEt945HsrsWfDklUJL8maZRklyibzL7TMGB5XmoQPhY1xJPqYA91QH5m/McSKlSGtbZjOQHrzPUqOfkJaRIMH8RH6/gpPLMJoEgah7fmtkZwRnjkqXJ1jAtbRwsNMOO3yVDx+JdrJcLXP/AMWfDZrqaGgvt329isWJpEiTVif6oHysrWaU0dopvDmggiCAR6FaNamabtTdvoo/gbFOfhWscHzT8mp7HM1AfCRqFxFp7Kertlt1izYrVrtdFEXTo9U6uoSuW/aXRdhsQx9KQ2uHFwDi0a26Q5wjmQ5vyPVdNwLbQq1xdkBzHEUaQnTR1FzhtqfpkewaPmroxckQl8FHyt9Go0tqgloiIEkbSY1gA+sx1K91eHmeIPDOuk4g6R/iMBMO1RIEcr3+YXRKf2X4QNA1VQerXD6Wt7QsuF4DFJ4NLEVA3vGodC1zQOmx36qM8E37FREUvsuaX/4xNIiZEap5SCCCrvw9ltbDsNOriDXA+AuaGuaByJB83v8A2W5g6DmAAkGBExc/v0WytOLFGPKVAIiK4BYsTRD2OY7ZzS0+hEFZUQHGs3yjNcISymwVqQnS9rQ63LUNwfX5qs47D5liPLUqVWt20NGkehawX9Cv0Wi5RdHM4+x+cKH2eYx8GjScY31jTP8AlJ2/d19fRxuDdpqUXNM/8ynI9nixHoV+jkSjv4h3yfnH/i2Odanqnl4dIf8A5JUfisoxld/iYvxQxp/5sj0DWugCey/TjqYIgix5KsZ3wbhah1/4Tv6gdiegmxvy+qhk3V6RLO30qOaU81w+Hw/g4epUYXEBxADSSJAbOqA3mbm3c21MU2i+H02EEkSYAYDpB/lm95kRcnreFYK+W4GhUFKlSqYmoCYc8gtDrBrdDPNqJGxjmdgvWZ5TUcQagDCG6qjy3y0+zWtEF3UkHl0KwT3MoZQcXhnhpAYTNw0C5vubbRPXmeS9hhota6NJJjTO/lBkiTG5H+lTrWVah/h8NUe4zpEwwEOt5wD5m2cYJ5RB5WrhvgJ4qMdiWggXDbESYMkbbAC3dIw38Iv0+V4simjnoYHiXNWM4Zo+6F1fiPgQXfhm+rAYI/yzv6SFUm8LVy6PArf7Wx89SPTSXB78fEccld0VmjhpNgtinkVSu8eC0ljfqeZCveV8AVXEeJ/LZzG5PqV0DKsnpYdoaxo9VbDTX/UYNVr74iUrKKLqTAx7S0gcxCkn0mneD6q2YnCMqCHtB/Eeh3Ciq+Qf9OpHZw1fUEfmvntZ4BmU3LA7T9un/wAFcNZCX9XBAVcuZ0HrA/FeGBzNvM3ubj0tdStXKKw+6HDq0/kYUZmTqtKm4ilULiCAA087T7brypaDVRltnB8/n+ppjlg1wz5UZRrgtcA6LWiWnuOq02cP0qV2XnnsfRc9dWqUX+JTq6ahN7ybf1z8Qi0FdLyd9arh2VXskETLJPrLdx9Vrz+G6nDGsfqX07X5e5COWLdvg8VMRUaIbBtHRUPH5Vi62IcadFwJg+UC8CJJV/f5jO4G8fmsQAc7Udln0esemyOUo38+z/n5E8mPfGkznmYcKYqizxazS3cACXG0HV/5E+xUaNQGseh7+vOdjI6Kx4fMMUzGVKeED6kOMUSTUp33JbMNBk3kR1Wvisjq4nEvb4XhBtSI5N38hO0mIHWe1vrl60ppdnjZY7ZUOHMxpUyRWw7KgmXS0fD62I3b89rro+QZxlRINOnTpOPNzGg/7t/dRnDnAANEtrgeI0loMnYA6Q4ejgZvEkRzNY4x4Rr4Z8jzU3GzgJAAPOTIIHLpz3i1eZBX7ELZ2x1JpHLsVq1ct1ffI9A38wVyzLsHm1NrKmHqeOwjy6Xhwb2LXQQfcwuj8OnGRGKawdC10/Pqfkr01PtHU2bVHKGjd9Q/6o/9YW7h8O1ghogfvc81lRWxio9BtsIiKRwIiIAiIgCIiAIiIAiIgCxPwzXGXNBPcTvuBKyogMAwbBcNAO0gQQLWBG2w2ULxJgmNoPqVHANY0mAIbYWgE2PKTbsrCuZ/aTjqtWqzDUyS3UAWsBMukWebfdPwj+qDuFTlpR6A4HpsfUpsDG6WtJc696r9D3AzewDWjs0+q6ZCr/BeQfwmHax96hu873N4noCrAu4obY8nWERFacCIiAIiIAiIgMVXDMd8TGu9QD+K84TB06QLabGsBMkNAAnrA9As6LlA18TgqdT42Nd6gE/NYRlFD/pNPYiR8jZbyKEsWOTtxTf2JKclwmYaOFYwQxjWjo0AD5BeMRgmPguaDH9/1WyinREQiIug8tYBsF6REAREQBERAEREAREQBERAEREAREQBERAeKzSQQ06T1iY9J5rQwWS0qZ1AS613GTafqSSSeZjoIkkXKTAREXQEREAREQBERAEREAREQBERAEREAREQBERAEREAREQBERAEREB//9k=;" vertex="1" parent="1">
          <mxGeometry x="575" y="836.49" width="191" height="113.55" as="geometry" />
        </mxCell>
        <mxCell id="0-I5_G3RzfP3J93G6mHh-27" value="" style="shape=image;verticalLabelPosition=bottom;labelBackgroundColor=default;verticalAlign=top;aspect=fixed;imageAspect=0;image=data:image/jpeg,/9j/4AAQSkZJRgABAQAAAQABAAD/2wCEAAkGBxITEhUTExMWFhUXGBoYGRgYFxsaHxgaFxgaFxcfHR0dHyggGiElHRoXITEiJSorLi4uGh8zODMtNygtLi0BCgoKDg0OGhAQGy0lHSYtLS0tKy0tLS0vLS0tLS0tLS0tLS0tLS0tLS0tLS0tLS0tLS0tLS0tLS0tKy0tLS0tLf/AABEIALcBEwMBIgACEQEDEQH/xAAcAAABBQEBAQAAAAAAAAAAAAAFAAECBAYDBwj/xABGEAACAAQDBQYDBgQEAwgDAAABAgADESEEEjEFBkFRYRMicYGR8DKhwQdCUrHR4RQjkvEzYnKCFbLCFiRDRFNjk6IXVHP/xAAaAQADAQEBAQAAAAAAAAAAAAAAAQIEAwUG/8QALhEAAgICAQMCBAUFAQAAAAAAAAECEQMhMQQSQRNRMmFxkSKB0eHwBRShscEV/9oADAMBAAIRAxEAPwDIrlPCOmQ+I9YiFt7/ADiWXr78YzmkmHOmsOpEQL6V9f30h6QDJqsIoKQwBjoNNbcoAIqKDukeGnyMRoeQ99dIkQNYeW55ddIBDq/WJA+9fnDAL7tDqsAxBBXlDZfYicqpsASTwAv+8WJ0oyyM6HNrkNRbm3EeH01mUlFWxpXpFaXIY3UGnE6DzJsIkAn3pqDwDH/lWnzghtYT8QkmkvKMpyqulK0rStvHjA3/AIVSzzJankKsfkKfOMmTqt1E7Rw3yJnk/wDrX/0MP1hs4NlIbw/QgGJStloTTtR5oR9TFj/gLDSjDofZjk+u7Xuiv7cqkDjbpDlSLg+hj0PdxJcvBNMZFmZSahlBIPKphpu8+yhQTJeUkccOp8bgmsejCSklvnZlmnG9Hnt9I6SpDMaKpJ5AE/lGn3k2xglquHwstzS7FMlDyCihJHGsCtj7wzZ9VUIqrroiqKcABrHDL1EYXW6C65Ki7Hn65CPEhfzMJtnT1F5THwGb/lg1s/aTM5RZRYqaMeC+LGwi3jBNSv8AJqutQa1084zf329o7LF7GSaxpoeRFD6Qg/IwbnzQ61ehA58OnOKuO2SMoeUGr95CQ3mp1oeR9TGnH1EZ86Oco9oPI5/pDFbez84hmMOHjQSIi3CEBb2YeoPDzERZIAI5PYiBSkdCnvSGgA5X5wr8omfCFDAhWGyxO0RKwgHAhRDKecKACObQHU8tf3iT26+/fKOav4ROsAxBb29/Qw4Q9fI0hqQ4Y6n9bQAOF1/tDy5nn196w/aX4U96cokrHlXrABHMAf29/nDn06RLDYZpjZUBLHQKCa/pGj2Zu5lvO73/ALaX/qbh/tr4xyy58eJXN0OMXLhAPA4CZONJaFuBPAeegjV7L3MGs1i1BUqtgPFtaekFJU0oAElKqjQcPlSOe0c2ITJMAy8lJAB4GlcpPUisZv8A1OlXl/ZlPBkOU/eLZ2BGVWVm/DJAb1mHu+haM1MBmTHmPerE3+Q8hSJYv7PiwzLMvwznKPWkGtp4MrNbulVLMVHAgsaGo1tfzhdZmjkxKWN6K6eLU2pFTabhZMvI2aY3x14DRQPCB+HwgYEkVPGLmOVRLzBc1CK09IWz5oy923QDiTb5R5bTe6NU8scZwl4E+xFiUrCh+f5VhPtNlBQDvOLNltTU06mhEWMPKZlBdyuluXjziZYlVlRySlKlwaDDYUjCmcpysah1N1ddLiMPjpoSXOzJmdUZpR4q4up6i2kbtsbWR2QIIUUFOWt48/3rxqygRYzMpbKa2QEAn1IA535RtxTvNjjj4rf/AE45FWOTkYH+KmA2DcqkG1ecex4PdLCvhlcMsppiqCwFL+BNKm96VgJu5skYvCskp1FRSj8GpoSBX9YO7G2ZiMNJWVixnVHqjg5hQigqeYNdafKH1GRvxVPZxxxb1LyFMHhOzkojKtEP3CTmOlTYG+sEZEyTOQEEjoQV08aRTABmhhMHZZCMtaHMaXP4jTTTUxmtv7wCXiZMlSDYmZwAH3SL86mhrGNR262d71XAQExP40y0KqclBmQPUmrNTkAoFxzjEb4bBxeHLz86tLzGmUkFVJ7tRoB4G0azH5WnSpqkKwNmzUABIF73Hj9IJbRVZyFGDMhVg4rqrCmvAX4XvF4c3Y00v58jnPCpN2ee7NeZNkdtkJCko7AVAYXuRpVSD41iQAOkbfdbBjBSWEhwUZ2ZkmGx0WgYXqMutDypxitt7C4Kb3pWaXMOuRaqefdqPUUj3lKNJmXadGQENm5xoU3ULLVZhI59n+jGKWJ3fmr8JV+imh9DT0FYakmMG5oeo4RBlIqrChGoIoR4w0MCYAhmFIjeGzQATK1Fr+Ec4cn+8JrwARyQocSx7rCh6AqFTxiSxEPEq1/aACefnEwff9o4gU6+P6xMHTUU4QgOhXpTwizs7DNNcItQTep0AGpivhpDOwVBUk2vHoOwtnLJSgu1szc/26Rx6jJ6WKU/YqKuVHXY2zBLsq0BHeNbtTUn9NBHcYaY3w2HM2/eDOEkWuKcxr6xEz1Z2QGrKKkDhTnyj5nLJ5Fb2zUnQLXZz/jHktfqItStmNxcf0/vHZ1m0LZTY6Ka+mlY6YXHVABlzKniQB9Y4Qg7acRyeuQPvDgZxlDIxFAfh8fz/SMTgsTiZbZQxmI2qk1r+h6iPS8fi0RWbNpqNeEYnESDMeuEkvNcnvP8MtCb3PFhyr6x6OCclqvzJ8Aptty1nFHzS7AiozKQTa4FRcEUItzOsGcLiarmGVxwKmp86VjL7/4BpDSM5q5zVPhkrX3xijgcPQMeNAfK9I2yxY5QU0QpyvtTN8ZymxFD4V8rQ5V20U5eJIIHqaCA+7M2eimY851ln4ULHvCt26DhXxizjsXPcMslDN1J7MiYQOuUmM3pqUqR3jNqNsq7S3mWRVJI7SZcC3dBp6t4C3WMZhpM7Ffxk5yWYYcsTTnOlAUAsBQNYaZYltTD4mR2c8q8pjMYqWBUqZeU1OYW+LjrQxufs9kNPk4ydPVWOISjAKFBWhUmi0HeqT5Ax7ODFHGvwowZcjm9mF2NtafhHzS2yt8LCxU0NwRoeN9RwMev4LbM/FYT+XkWay2JJAqR4EiPGNoy5cspJQPnSodmpRvwlKGtKc6RuNw9sqihG8I49XG4pl4XujVbN2BOUKJxDEfhbKP1PyiW1NmYFDmmJh84/EUB9WNYJNtFWWqnwjyje/CTFmuzksGNm+hjzoYIOfL2aHOVbNJtrFbNXK3aqKUNJbF6UNaUUMprcQck7WzTJaLL78wqCGUAqta94XvQEmpNOhsPOd1MAHm9q1KSRmFb0c/AadLt4gR6/ursBZdZj1Z2qKtplPIUtUUrXwj0sXTQjVb+pmnkbJyN3VNSSDmbSh7qV7oXkacfSIydy0DMe0JBHdtdTXUnjTgPGNRLkqvwgC2gFI6BORjX2RfKOPcwTsrYqSM1GZqtXvcBWoHlzgftvd5pszN2iqmtCgr1uKV53jSkAV/OORnIdTCl21TFbuzA7d2VKK5HeW5CkoQaOtOQN2XpX9Y8/nyijFWFx7FI9f2tsBHDMkuWXIIV9MpNO8acqcLnS1YwG+OzDLyMz5ibVpSxuvl8Wt4SstMzxhvnCqac4YNzhlDZIYiJinP6Qj1gsCAJ6Qocgez+8KHYin8vQ/KIhOIMTHX5e6Q68tfkRAMnLe+l+g9mEKXMMw8vH9YJbDwfaTATdVua8Tw99IErYB3dzZwlIZj0DEVJP3EFzXla5ghsLbRmYlUEthKKkqSpvluL6VNcxHACugrFbF4R8VNl4KWcoch5zfhlg1A86Fv6OcWcVNmSMUMQWRMP2GIl4Vc96oh7wHEnvEn9oWbGskXjfDIUqdmsCTGJBIVTa1yR1PA+EWZWFVDmsSRQaWBufyjIbH3szSwWBLlstRTTs2etOPwkcNeMFtnby4dlBzqKk0z2uKVF9aVHrHzeXpMmF1JNpcNbX2/U1xmpLQcdiTQW6df7Q6kaMaCI4TFhgpBDcagg1vX6xzx2MkSx/MKgi3eYD8zCWNyXen+Vf4C/AJ29s1HLAWLDgbOOAJ1GmovBCQvZy+6oCheFAAAPypALG7WlhwMwJ1GXvD10HrGf3h2481ZYugRyWQGxoRQtztDw4MmV70jpKLjFMA767VMzES5hRZiH+WiMWFWBNDlUgmpP5CCm6u7TZj2k+UisQWVAzEWspOWgAHI+BvWO8jYH8ROkzbCVLzzCerKqhR51P+2DUmX2ROX5XjbPN2wjBcfuTHFcmzTYHdTC/E47ZjxY1AHABRYAezFh918HWokqh4MvdI8CNIzMvaBUd0kc4s4fbbgj73Xl+sEeoxpV2ieKfNmrXCMo7sxiB91gG/QnzMOmFIrVZZB1sVr+cBP+0BFzSLEreBDqwjvHNi8aObxzJTd1sGzCZ/CyQ40YChHHVQDA/wD7B4IGq4dVPNZ01flpBVNspWxrHT/jEs8dOotwNwY6PJBrkjtkvALO6Qp3Dk/3O/1WMnvJudjKHSYlPuE/NDf+mseiLtVKWIJ9Kw2J2siita+ER2YuU9ld0+Gjyf7NcL/Nmy5i0aqvZvuqGAJoRxp6x69hFsNAPn6xhNtOkvFJjJaZWIyTgLZlY1DeNQflGzwGLR0DqQQwsRxjXhyKXBxnFoIAiINjUU0JvrSOE6eoBPKBcmaHNeJ1/T0hZ83ZSXJBbk4ntCSeZt04RZlyuMA8HiArlDa8FZU2gpWMeOafxciOy2NKx5x9pmNBeXJF2FS3Tgv/AFekbPbO3pUhWY3IGg1JOg6RiN3sO2Pm4t5986KoPBTWq5f9OUevWNeDd1wNGQrCzR2xmHeW7S3FGUkHy+nGKrLHc6HSsKsciTCzeMFBZ2B93hRxPlCgodnG3gflHRdKU9+/COcoe6w5YVsT5+/0hAOWpz8xGt3Xw/cX/Oanw/tGRLjQ6xvdiTRKlzJpH+DId/8AcFovqxEXBeSZB7ZWFXC4TE4uZadODtf7opllIvllHW0eUyd3MVOlS5/aBZeegE0sKZmuyrQ9ygqWtWlBUxZXa87EOnazGJTKUW+UBSCS1CKAKCa6k0Gph9vbTnTGKyD3CeLLmY01alAONALKLDrE59uxRjZNcUkjKVBmFKgGhC0a5roWuTeixQmbYm/cSgF6AL3S2tzU3txiWzdgYmdK7YNLNCaS2ejNTXw6eUNg9ly2UKUmiaxJJLmgX8jTkBGCXUJt3Lj2O8YewKfbMzNfN1uPZi3hXVySgUAalxSteoEFX3QACt2oyilQUqWPG4INxzHPXSDgxWFmFJUnDpnQ1ICgCgsT1Nxrxjhk6qKr07fv8vrZUYyT2CJG1VLBWZVcAAXqrf7vuk/5rdYvT8RLIbOKNx6kCgBEBPtA3eWTMXESQplTF7yr/wCG/G3I39IqbsTxMmKrVJUd2t60pbyFx0ryEd4OM8anE1Ycz7vRyLXg0Wx8ViZaiQUYGtVFfukChJr4xLG7wtJcq8pqg0stQfAg3sRGndVEovmAKi7akLW9PXwvArdfbLmcwC0luQqMRUBqmhJ41JoTGRwXfbWjTkx9kdM54Lak6f8A4WFnE82llQf9xoPzgimBxjf+CFr+JgD50rGvwciZlrMYsxF1FMojpLlqqmhNOAN/rHT0ovwY+9+5kTszEAVbsx/vOvmAPWOb7JnrcmXz+K9OdPrGseSGF1UkXFV0iiHXtSVu1L6/2EQ8SXgqMrM0y4kfDLzkX7pvTwNDFUbZdSVZCjcitPWo/KN0ZnA1WhGnHoYqY/BLNUdsAwvYfKjaqfOKWOJDbMmNska0qeNAL+FIsYXHHUkm/P5Rn9sbqz1zTMLOd1X4pbkF18K/EPn4wDlbUxaaPxvVV161FYv0k9pkOTWmbnaUwsho1+RFajlXhp84AYDeabhaiW1mpY3FQP7aRw2PNxmIJoEyrTM7LYV0AAIzNyA5ecG5WyRLtLQFq17SYAxqfw1stOg8zHWOSOBXMjseT4TR7H3ozqM0pyCK1VSQOfu8c8dtJlmB5QbKT3gystvMWItGdm7LmzPimlvC/wAyfpFWZsBh99x6RmydZjyKnX3/AGL/ALRmoxm2pU0MmUhwCxvQ6V1gcmNnS0u1WvztQkU1vSkB1weIQdycSPwtofI1HrHcbWNaYiXlY1OYaEniR48V9I6Ynglt7ZylglE2n/csfJlvLVQcjKy5wjI9iCam963vWKO7+0MPLxJwslgTLUM9L1JNHFeJUZD52jzjaWNGEGUMS75iVWwoT3DXiNTbw50p7mbX/hsUJxqRmGZujAg29D5R6yqtGfg9K+0nZNGTEKPi7j+IFVPpUeQjDt1Eew7bwwxOCdReqZl8V7yetB6x47lgkOLGtEcsOD7pDW8IRQqDn+cND5D0+UKADiOvqIWppYxyUmJV5wUMdtV8RHomw8Ks9ZklvhmtKRv9PaB2HmEMeaTXoQesb3Y20hJWbONxLKTKcxmyf9cXHgiQC3vYCfPWSoHey2tlC0JXwvLFOaGAOC2Bj2HbykDy1NznWpob0BNT5QsVhJuIAAKiaxaa5Zso/mMy68LoD5xoNl4DHSZayJLy3NMtQaBQzE1N7ip1tHn9XlcNJq/ZnTHGzns+XiZgDIWQkgGneIr5W5a1gpP2FOkSnnElmC2VjUC160NiYuNJXBSSnbh2VixIGtTet+N/CFI2zMZSCVAc0q33UPx5lF9LAUqax4s5zk/wJVf3Na2qK2C2SQkubLQuBRmOY3J0oD8QFflFTeGUjYmVMlkpmyocoyg5iamvO2nSNDszaupbuhbKtOdgKDXUWHMxUfA5QzzJnczAkA0IY6V86woZKyXL6fcuWKkCkkI8xy5DLkCsLaXCkgAUNKXtAjC7MSVi5ASYGVy5uKFAJbVrzHWDOEWTLQtZ3euZq/FUmo6QR2NusnZmbShmS3VasSVlm+Y10JIBFNQOsbcEn3Oro5+U/NlnZ+0cNxmKVpRhWtja44dawTnYYspqBlN1ItQcDFTZG5klFqf5zV4Gijy+9BLL2JKBTlOo5U0I4WvCkt3ZqyZO9l7ZmJaYgGbvLZjXXkfMRdRSD0gBhpjS5mbVT8VOXA+R+sHQS2otTWvD97x2hPWzNKPsSkjjUleFfWsO0waU+UIG1DQUipipwKkoa0N6a25c+EU5UhdrbFiVY1FQORpFXDSXUnvAqTxvb9ekdJWMBAVgQToaHW+vp4ROjgKGIJpQkCkQknsptrQlnVtQeOlhGf29srDzr0KzDXK1PiIFq01HjeDqzWzW0NYp7axKBSoylhQgDhfXpS8XbrRNLyUdl4FJchEC94VZm5kih99ByEdlllyAOJixLAZAQbEAj6Re2VhpztWWACNSdBHlZFPPk7Xz8jbHtxQsObM2VLWXkaWDxJIBrX6xW21sCSJbOpyZQTQ3U9L3FdLQWlLNCkOVJA1UEfIkxntr4w4gph5JzA3Y/r4CPXzxw48Sg43ql734WjzsLyTyWpa8+1GWeQrCosYoYjC1BVhY849BnbqqE/lk5wPvGzHn/ljNY/BOjUdSD74ixjycnS5cDTl90b45ceX4fsY3b2zUeQJbfdJyHXKTxU8AbBl0NjYisZbd3ZU1zNXKaGsu+gmIA6ivHQnyj0THyA6kUgbsfGfw4rQXxClgRqewmywPPKBXrHrdD1MpXCRh6nEovuRutwMV2mBkE/hyn/YTLHyUR5dtGRkmzE/C7r/SxH0j0P7L3BwQppnenrX6xht5bYvEf/1f849SXBjiDQ8PTpEbRISxTWnnEFkSg9mFEsvusKGMo5ffvWEKiJpLHgfWJGWfGARSxUyl+tY1+7+WYDKY2mymTzAqv/2URksYloJbvYsgLTVCCPKn7esdIkSOEtS81prZUqhlCVTMpVL0qT3jWxBHGN/g9zsPhpMvFJMdFehIL1XMdBe9qWqT6x53tueZTMJYYBmzN3jRqGsu3C3zJjdYreUNgMOk6UXkMoLMjUYEfCdCK0rYjmOFuHUYVlg4SdDhNxlaKm3J+WegkSlmzAKqU7zNW1aa2uKxdwGKmYnO02QFmKMqh0ykVqDQkVFwflFbY21dlyyokrPM2YRLBZslMxA+419Yp7JxLTMRPVphyk5r3utFB56CnlHlS/psqqL+j3Zrh1KTui9trDzg0uW6hZemdGr3qgrm/DUA05kagkRz2/gAqqv8Q7E3oNFpoXY2ArXlXpAzHT57hZGdiHUFFahzEMaUqOnrHVcNhpcszcexmLKmzB2Baudgssop5KMxJ8hxisfQyVObWvZfqKXUWFti7syxJGJnPJMpSSCLqw4XHdmX4Co1rXSBG1t52LEIcoIpm1JHWtvQRusVuhPxyJMxs8yUoCmGkqKShSwZmszUoNKDhATaX2RK6fyMYwblMQEHpVaU8aHwju1CL7br/Zz9S9swLbUnG3bzRyAYgegIAjrhsfiF/wDMTQf9RP5mKW3N3cVhH7PEBUP3TVmDjmrAUPnQiOSbJmCrKwYa0VzX5gQpRXlouLvdGow+8s4CjMJi1uGWlfNafONxujvLLnjsicr0spOtBWx+9+ceRuzr3X7o4km4B50+sdpM6mVk7p1UgkG3GvSIWOtsvv8AB7m4t6xSpl1PxH5eEZ3YG+E6fLyFQZqfGagZgNG9aA/vSDOztmTsSe1nOTLr3UXuhiLGpF2FfWJ9Nyl2x5L9RKNstDGJQitx0rA59qjShJ5k0vBvFbCZhQEIOAA08Bwgb/2XVfiqTzJP5Cg+UaHga5M/rXwANozJswFVnPLqPuUHzoYF4TCz0lzkl4jOJqMpEy5BYUDBhpryjY4jd2UQbUtwJ+hrAjZW6RVmYgI2oysWBFdaNeKjHt+ETlfJHdMOskSpl2StOq9D0vblTkYOYTHNKcFTr79IpzcFNl6jMB94ajxH94jNZVl9o9QvFhwHEnoOJ4C+gJjzes6LI5d+Lnn90ben6iHb2ZODfYPGB1D1AHHpGdxWK/hJ5mIoeXMFR9QD48PCA0ueWQ9nODIeA/aoiRc5QrGo68/1jlk62bjFSVTW7+ZePpYxbd3F+PkawbxyWAYVBAuDanvnGc2ntBpzFiKL90chTj4xT40Gn7c45YltFAqSaW68BHCfV582pO17IuPT48W1/kqm8ZnEFZhxMvNRpUxGXq6KzEerMvlGjxuIaQHbI2dQTU6Cmvify8dPP92sUVmVIDM75gpBJNa1FKX4fOPX6HpZY4ucuX4MHU5lJ9q4PW/s2wpTAoDqXmE//Iy/SPOtsTs8+cw0aa5B1sWNLR6qxGEwRPGVKJ8Xp9WPzjxuWaAV9Y9R8GSJMjwiQUdYYsDyiSvw/X6xBYqHpChCh5ekKACuqg+/Twhs3P1jip5G/v1jp2l7+oh0FnOfevHr/aOGxplJ2Svx2Wtu9wHnceJEXHHEUPgRAraCDWl/yhxYpI9B2LKVpeJDSVmv2RKq1jVDmNOIYUr/ALTHn/8AxlsHiJiEZ5Ey5Q6FX7w00N620Nesei7obVWdLGIH+NLIE4ddFmU5Px/zV/FGO+0DY8tppmyT3WuF/CSbjwzH5j8Vrkr2QUcJOUNLnSytnDLe4ZTmAI8hGg2bgpzTneUrdmcxzEWVGqe82gpWlSeEZbcyS85+wl5e1IagcgZwveoM1VzCmhHCDm3du7TSknEIGRdEKtLFByEplVv9VInzQHHaGMlnHrRz2K5JZe+gFHYDUDMWYdIlNaWxSTMpMsWY11LVateOogedsutGGBwwVwQGPbtcWYf41AbiopW44ERaOBYkTZoCsVpRO6AVJAGX/SFt0McOoX4G7o64n+I943T3mlY2UFDjtkAExDY1p8QHEGCvYkGPnXCbNxTOvY5lmLcFKgivOkerL/HpKyvi2z5O7UJm5VIpx1pyjx+pcNSk9/z+f8NEcDb1r6hnfzZ8nEYTsprKrMymWTSoZTUkf7ag+MeZ7MkyhLsVEwE+ZFteULB/xP8AGBsQzzKtlBY1JHIcAvQUg5O2Akp1dwpUnKQAbE6VNqj6xyz5k9XqlVGnDjUFvkzU3ZCZc03WlSoIrShqbcKfn618Bu0O3Az/AMqoJBJUka0BGhIqOkFcbsiY2JzXEoC50FOVTc8resdH7VppMohVoBVhWpGtDQ0/aKjmlGu1/oQ1FyqihsbBJLxayg+btGZAK3KipU26gVEe64bCpLQaAIoAJ4ACPFsGqScbhsVPKqFmqmYcWmVQWpyzNX/KbCPbMWe7lFKmwqKivCsez0rvH3vkxZ/i7UQYhmF/Mc4G7Tw85yeyy14FiaAjoK+tPpFiRhnWxpUi9PhB5ivu0Iymy0LsTUCqgLWhvXXzi3vkigTO2KzZe1dKqwKhajWxqa1qTX5RyxcoSJTZWpTRphZvCpN4JTsQRrlzZgNKVvWwGtusOSrgjLatGrf5cOH5xz7UtIq20DNmzZjBS4Q11pUfI6xx2rgsneUd2pNNddfI8fdeM3asqROMuY4A+L4T97wHCxrprB55iTE7pDAjUXEPG7VNilpnleOaXhxNlywylFDqeJzCla9CVHkIM7lzmmYbEz5zlggJSp0uQNNfOBW/EgoGVVNWVQSdMiO58yTl/piru/iJr4R8HKA7VmLC4BdbHLfU60i3jjL4lYKbXDJ47bM9cMk7PdnUfClx/NrwqPhWL2H3ykVRxhV7Zbh85oDTWkZLbsx5MuVhXBzg9o4NsjGqol+S6nmx5RXlbwScHlmBVnTiO6p+GW1ePByLU4eMOGKEdxivyFKbfLPQPtB3g7STKkImWZMGdgeCsq16i9dehi3u1sCR2qPKDZJSrc/eYrckcKkk06CM9ubhu3czp5EzGTkqAwJAlswUf6SqksOnjHp2HwkvDyyM1JaAs7nkoqzH0jqt7IejIfajtTLKl4cHvTTmboiG3q1P6TGARLa+/rD7a2qcXiZk82UmiA/dRbIOnM9SYgG8ffzhS5KjpDlffvSIuKcflWJZjwPvwhKacKe+sIocM0KEXrx9+kPABSpX3eINWsSLQq+nyhiIaxGeuYc/GOo6+ohmNNIAKeydpTMHPE2XQ0qrI2jofiVuYI+kbrF4eTiJInSCTJexB+KU9Lo3XWh0YecYTGSgbxHYu2ZuEmFpZqrCjo11deR+hFxHSLIY23NmtJxAmqciuwIZdEatyOnGnDQ8CbG0NszZzAvS1qCyjwHl7pGywb4fFyjkFQfjlt8S/qOTD5cc1trdl5R7SWcyC5Fe8o68+VfDSCqdiKOExATNmo0tvilniRWjKfuuKmjAdDUEglMHtCUjgZM0ghcyrVTQNUMKk0cEmprQ5mFaGw6bs2YZnZqAWNLBlINRmGU1o1RemvjrEsRgnlsgdWQVytmUigJ6+B9Il1JbHtcHrclpK4dp+GKLlozAAVuKd4G4OX6xltobUnlyS4IK0qAQRXh6Rip2LZMrI5By5XoeFqBhxHjF/BbwKBSbLP8AqQ1rT/K30YDpHjZf6a4u4bXzN+Pqk1UtGj2Tj8c8xJYWtagVK0p1JueHOLu3NsYvDZC4D5q0KKCKjmSBQ+UBzvJKIzS5pWZpV0Ya9EDCLg2tKny0kmYXm5u7klsbnh38sZZdLkc0/T0VeKviBM3aGLxbHNmCU0BpTj+t40myJAl4chyQEBZ2vbiL6+QBJgFi9ppKnvJlp2plhquxAWqqS1FW9OubhpFN9tvMwTM7kskwKxUAZUnAiyigoDLFraxrj0LlXcko+yOfrxh8O2D97tpTMW/Zy1IlSFZwONLZnY8/hHIWHU+7fZ1vMuNwkslv56KFmrxqtswH4WpWviOEeLbrtJpj+/mzYYyZbFShJbLU0qaUyi5PAxw3MxbJipDycRSaxJcKpASWoLuGJAU1AawqLDpHqxqKpcGN3J7PpPG4jIpNKwAw+BK1ejOxFQrNdDoLg0HG+sZzZv2lysQqh6SZpFaM1Fa9O6xoBXkxHnBPZDYuU7TJt5b6APmyjgRe/wDblHHLTkm/9cBHWqCuKZHpmAJsQvJh3qevSKeKxpRikuWaswLOSSAT5eUExLGRWQEEmwK3FTTThSJY/BZ1pnI55aX8QQYntb2dG1wYadstnBWdmM0NRGC2yHmORPG/0g5sTZRwktjMcEGrMdAgpU1PEDwi20yVINZjgGlFByhiBcBQNQK004XjzbfrfN8QGkywUlaa3e/E8ug/SHiw7t8kTq9ArefbmMbEvMw86bKlOM2VxSX2Y7qvRgVIYCulaki9oFyd9toKe5Nl20f+GkAnr8Fop4rEFgFIGVdBwqBSvU9T5UED2JW8akiTZHbMzEJ2m0MdVZYrkWWvaNW2VSFCrXzjObHxrTJsyyKuI7tMgcqimwUnSvFuOWsU8PhziXSUKg1qza0XhRR8TG4A1JI0vHrOwN1paTEmzJYUoipKk1zZAvFyPjcsS3IE8bUVAGdytg/w0vM95rgFidQOA6eH5aDM/aVvgJlcFhzVQf5zj7xBsgI4A3PM24GOe/2/OSuGwzVmG0yYDZOaqeLcyLDx0wuzpFLmG9IErZckoAsdlW1tIQESVfdI5nQiF53hwOVae+sTCnheInw9++sMB+97p+kKIFutPP8AaFABTDDw8D7H1hBeREM1PevyiCrxGnWv9jDEdGDDhEQeUSluR0joTe9PPjCsDllJ1Foo4vCVuIJuKdB0928og0s+PhDTCgBIxEyS4ZGKsNCLRrdmb1iZQTTkfgwsCfpAXFYUH94DzsORFqRLVG/2ps+XNBKkS3YDvUBRj4D4b8R6XJgLMxUwrknZio7nE0A+GhPd5kDxgHgNszZJp8S8jHoG4+8uDabSY4l5xlZXFUYcmBqKeNoKQrM7u9ipKPO7aXLmhpTKnaVUZrUOYfCba8K3I1jhgEwrqB23YvxWapdCdKh5YJFeRXzMaXb+7KS8S74YOiB80tpUwDrVaggjy4axncBMnyJkwvh5GIR2zFJiKWrxpXKa9FPlCfABnC7uyaZmxmEVeYdmPkoWsaTYr7Owkl58tmnMMyGYVp3stQEU3UNfvG/dOkea7a2xhmZaYV8KwPeXOxBHRWXunzIizJ3swstJkuXIzB1ZazWLGpFAwAVVUjXQ+MT22FlfZM8gzmJq81GljiQXILtQdAR4tFHvSywdTkBGZWqAbVANCDWhr59YObvbyrgwWkyA08igmzr5QdckoWBP4mY+GoL47DzJy/xWLmh50zM1HWpIWgRQKAAEmppYADSwLYAnASHKTP8AvElWcUysZgb4gbUlkaAjXjDbNmzJYcSxV3luhoCTkPxEeQYE8qwSl4kG7YbD1AFDScpt/pmgQU2Hg1xDDsxLSeZgoq9opVVQkvLOZiSACCovoaGBgjLSjmlkMQMqnL1uWp8/nG4+zva6LIMsTmktJzzCV0MsS2rbQkPkAB/FGUxGMw75hOlvJnKT/MlgNLdhxaWSChJ1Kki/ww2zv4fK4M/I5AAopZWqQSCR3l4fdNxBQHpS7U2uRnwuIXEyjcGXLlFhW/eTLmB8oq4ibtyaCXabKTizZJCgdWotI89YGU65Zi0scyvUCulSLjwIr0gniZMkoGnbQ7Q8EQO5rw/xCtIngfJ6XsTdpFwkzE9us2aR/iglhyIBNzwvxjA/8OLKZrELKWZRjQm5JqwAuQtRX+8dMNtWesr+GkiaVI75yMATXRRStNATavDgYLydz8VPFcTOWUqgZZeWpArwlr3Vt+I5opCZkZsuSxIlzM9LlihVOtPvm3RR1i7s/dGdiu8CUlVP8x1ygjmq6tW+luZEbnZO7eGw2aYFr+KbPIyrevw/AL3FanlAjb+/siXUSq4iZ+I1Esf9TfLzh0wDOyNk4TASywIWg706ZSprrTlXkLmnGMjvRv602snC1RDZphszjQhfwA+p6aRldqbXxGKfNNckcF0VfBRYR1wWD5wN0NKyGBwnODCranv5Q0qUK2jssup0tENlpEFlmv8AaOrGliDeJKKcff0hi3s3hDGJEQrCI4/vDMDp8/esADl/fsQo5mvP84aGKysF5gU6QwS9okV5aQ9uPv8AWACPU298oktD7+n1iWX09+9Ij2fv94AHA9+/2hUppTyh8pETEuvL376QAczcXHnHCdhwwsYtgH37/WOZAp18ff0hABsTgaQMnYaNYQacfA/QxwnYdTrr6RSkTQG2bvFi8NZJhKVrkYBlPkaivXWNLhN+8PMtiZBRuLSjUf0Mf+oQDxOzeWkDp2zjFWiWmem4abs3ErlXESiPwTO58n7lfAmAuI3BJustgtbMoqvkRVPSPPpmDYcIlg8fPknNKmTJbc1YqfUXh17CN/K3ImmgDkU4mjfllpBPF7o4+blq0qZQADvZWAFa1qtDUknU+UYvCfaJtKX/AOZZx/7gWZ83BMGMP9r2OX4peHfxlkf8hELtCwqu5ONymsrvVtSbLpS9dfKJ7K3b2hhnWemGUsjBlzTFNCL/AAq4JjhK+2id97CST4GYPzYx2/8AzQ3/AOkn/wAjQUx2UNu7vYzETpk6aiqzsTTKw1PIKfzgQ25GI408gfrSD877ZJp0wcnzMw/kwgbO+1fGH4ZOGTwllv8AnZhDpiHwe4JNAzGvkPoTGiwu4fZrXs0UfjdRT+qYaDypGLxH2hbTmVpPKA/+kqy/mgBgRiJuInHNNmu55sxJ9TCr3Ges4Ta2z8E6vMxCO61osus0+RHcH9UDNqfakbjC4cLX7805j5KKKPPNHncjB9POLsnZxMHAUT2rtnE4o1nTWfkCaAeCiw8o44fBkwSlYEDUXi5KlxLZSRXw2EA6RdlS+n0+ekSVYmhiSh+zvwPjE+HERAGJlh4fOAYzN5xzzezeHAr/AHiBBHCsAhMPYiAJ0ESEyn7w+Ycv0hgQV6Q0Ty9fnCgAYCgFf2Pvwiai5F6++H7woUIZEEaAcKw6rW4Iv0h4UNoB0Whtb3yiakanSFChALJyv8obIG4Q0KACX8DQZge7T1+sceyrXjTWFCiU2xtHGamW8RdQwuAfKkKFFVqySq2AVhFaZsxOMKFDsVFabsXjaKbbJhQoakxNIidkkeUIbJMKFDtipHYbFPG0WU2LTUcvnpDQoVsdIuSdmLyi3JwAh4USykiwmFUcImkmxpcDyhQoAOiravCJhRChQAM1Ka2hFCBp5w0KGA2Ya8vfGIk6w8KACBeImYYUKCgFmOn53h8ohQoBCC9R78oaFCgsZ//Z;" vertex="1" parent="1">
          <mxGeometry x="765" y="808.42" width="255" height="169.69" as="geometry" />
        </mxCell>
        <mxCell id="0-I5_G3RzfP3J93G6mHh-31" value="&lt;b&gt;&lt;font style=&quot;font-size: 20px;&quot;&gt;Short term&lt;/font&gt;&lt;/b&gt;&lt;div&gt;&lt;b&gt;&lt;font style=&quot;font-size: 20px;&quot;&gt;180 Days&amp;nbsp;&lt;/font&gt;&lt;/b&gt;&lt;/div&gt;&lt;div&gt;&lt;b&gt;&lt;font style=&quot;font-size: 20px;&quot;&gt;&lt;br&gt;&lt;/font&gt;&lt;/b&gt;&lt;/div&gt;&lt;div&gt;&lt;b&gt;&lt;font style=&quot;font-size: 20px;&quot;&gt;End&amp;nbsp;&lt;/font&gt;&lt;/b&gt;&lt;/div&gt;" style="rounded=1;whiteSpace=wrap;html=1;fillColor=#dae8fc;gradientColor=#7ea6e0;strokeColor=#6c8ebf;" vertex="1" parent="1">
          <mxGeometry x="-190" y="828.85" width="200" height="132" as="geometry" />
        </mxCell>
        <mxCell id="0-I5_G3RzfP3J93G6mHh-32" value="&lt;b&gt;&lt;font style=&quot;font-size: 19px;&quot;&gt;Long term&lt;/font&gt;&lt;/b&gt;&lt;div&gt;&lt;b&gt;&lt;font style=&quot;font-size: 19px;&quot;&gt;JOB&amp;nbsp;&amp;nbsp;&lt;/font&gt;&lt;/b&gt;&lt;div&gt;&lt;b&gt;&lt;font style=&quot;font-size: 19px;&quot;&gt;&lt;br&gt;&lt;/font&gt;&lt;/b&gt;&lt;/div&gt;&lt;div&gt;&lt;b&gt;&lt;font style=&quot;font-size: 19px;&quot;&gt;&lt;br&gt;&lt;/font&gt;&lt;/b&gt;&lt;/div&gt;&lt;/div&gt;" style="rounded=1;whiteSpace=wrap;html=1;fillColor=#ffcd28;gradientColor=#ffa500;strokeColor=#d79b00;" vertex="1" parent="1">
          <mxGeometry x="130" y="828.85" width="200" height="132" as="geometry" />
        </mxCell>
        <mxCell id="0-I5_G3RzfP3J93G6mHh-33" value="" style="shape=mxgraph.cisco.people.standing_man;html=1;pointerEvents=1;dashed=0;fillColor=#036897;strokeColor=#ffffff;strokeWidth=2;verticalLabelPosition=bottom;verticalAlign=top;align=center;outlineConnect=0;" vertex="1" parent="1">
          <mxGeometry x="-310" y="740" width="22" height="62" as="geometry" />
        </mxCell>
        <mxCell id="0-I5_G3RzfP3J93G6mHh-42" style="edgeStyle=orthogonalEdgeStyle;rounded=0;orthogonalLoop=1;jettySize=auto;html=1;exitX=0.5;exitY=0;exitDx=0;exitDy=0;exitPerimeter=0;" edge="1" parent="1" source="0-I5_G3RzfP3J93G6mHh-34">
          <mxGeometry relative="1" as="geometry">
            <mxPoint x="-220" y="740" as="targetPoint" />
          </mxGeometry>
        </mxCell>
        <mxCell id="0-I5_G3RzfP3J93G6mHh-34" value="" style="shape=mxgraph.cisco.people.standing_man;html=1;pointerEvents=1;dashed=0;fillColor=#036897;strokeColor=#ffffff;strokeWidth=2;verticalLabelPosition=bottom;verticalAlign=top;align=center;outlineConnect=0;" vertex="1" parent="1">
          <mxGeometry x="-220" y="746.42" width="22" height="62" as="geometry" />
        </mxCell>
        <mxCell id="0-I5_G3RzfP3J93G6mHh-44" style="edgeStyle=orthogonalEdgeStyle;rounded=0;orthogonalLoop=1;jettySize=auto;html=1;entryX=0.25;entryY=0;entryDx=0;entryDy=0;" edge="1" parent="1" source="0-I5_G3RzfP3J93G6mHh-35" target="0-I5_G3RzfP3J93G6mHh-31">
          <mxGeometry relative="1" as="geometry" />
        </mxCell>
        <mxCell id="0-I5_G3RzfP3J93G6mHh-35" value="" style="shape=mxgraph.cisco.people.standing_man;html=1;pointerEvents=1;dashed=0;fillColor=#036897;strokeColor=#ffffff;strokeWidth=2;verticalLabelPosition=bottom;verticalAlign=top;align=center;outlineConnect=0;" vertex="1" parent="1">
          <mxGeometry x="-150" y="740" width="22" height="62" as="geometry" />
        </mxCell>
        <mxCell id="0-I5_G3RzfP3J93G6mHh-36" value="" style="shape=mxgraph.cisco.people.standing_man;html=1;pointerEvents=1;dashed=0;fillColor=#036897;strokeColor=#ffffff;strokeWidth=2;verticalLabelPosition=bottom;verticalAlign=top;align=center;outlineConnect=0;" vertex="1" parent="1">
          <mxGeometry x="-350" y="840" width="22" height="62" as="geometry" />
        </mxCell>
        <mxCell id="0-I5_G3RzfP3J93G6mHh-37" value="" style="shape=mxgraph.cisco.people.standing_man;html=1;pointerEvents=1;dashed=0;fillColor=#036897;strokeColor=#ffffff;strokeWidth=2;verticalLabelPosition=bottom;verticalAlign=top;align=center;outlineConnect=0;" vertex="1" parent="1">
          <mxGeometry x="-264.25" y="902" width="22" height="62" as="geometry" />
        </mxCell>
        <mxCell id="0-I5_G3RzfP3J93G6mHh-45" style="edgeStyle=orthogonalEdgeStyle;rounded=0;orthogonalLoop=1;jettySize=auto;html=1;entryX=0;entryY=0.5;entryDx=0;entryDy=0;" edge="1" parent="1" source="0-I5_G3RzfP3J93G6mHh-38" target="0-I5_G3RzfP3J93G6mHh-32">
          <mxGeometry relative="1" as="geometry" />
        </mxCell>
        <mxCell id="0-I5_G3RzfP3J93G6mHh-46" style="edgeStyle=orthogonalEdgeStyle;rounded=0;orthogonalLoop=1;jettySize=auto;html=1;entryX=1;entryY=0.5;entryDx=0;entryDy=0;" edge="1" parent="1" source="0-I5_G3RzfP3J93G6mHh-38" target="0-I5_G3RzfP3J93G6mHh-31">
          <mxGeometry relative="1" as="geometry" />
        </mxCell>
        <mxCell id="0-I5_G3RzfP3J93G6mHh-38" value="" style="verticalLabelPosition=bottom;html=1;verticalAlign=top;align=center;strokeColor=none;fillColor=#00BEF2;shape=mxgraph.azure.user;" vertex="1" parent="1">
          <mxGeometry x="46.25" y="869.85" width="47.5" height="50" as="geometry" />
        </mxCell>
        <mxCell id="0-I5_G3RzfP3J93G6mHh-39" style="edgeStyle=orthogonalEdgeStyle;rounded=0;orthogonalLoop=1;jettySize=auto;html=1;entryX=-0.016;entryY=0.557;entryDx=0;entryDy=0;entryPerimeter=0;" edge="1" parent="1" source="0-I5_G3RzfP3J93G6mHh-37" target="0-I5_G3RzfP3J93G6mHh-31">
          <mxGeometry relative="1" as="geometry" />
        </mxCell>
        <mxCell id="0-I5_G3RzfP3J93G6mHh-40" style="edgeStyle=orthogonalEdgeStyle;rounded=0;orthogonalLoop=1;jettySize=auto;html=1;entryX=0.001;entryY=0.31;entryDx=0;entryDy=0;entryPerimeter=0;" edge="1" parent="1" source="0-I5_G3RzfP3J93G6mHh-36" target="0-I5_G3RzfP3J93G6mHh-31">
          <mxGeometry relative="1" as="geometry" />
        </mxCell>
        <mxCell id="0-I5_G3RzfP3J93G6mHh-41" style="edgeStyle=orthogonalEdgeStyle;rounded=0;orthogonalLoop=1;jettySize=auto;html=1;entryX=0;entryY=0.084;entryDx=0;entryDy=0;entryPerimeter=0;" edge="1" parent="1" source="0-I5_G3RzfP3J93G6mHh-33" target="0-I5_G3RzfP3J93G6mHh-31">
          <mxGeometry relative="1" as="geometry" />
        </mxCell>
        <mxCell id="0-I5_G3RzfP3J93G6mHh-43" style="edgeStyle=orthogonalEdgeStyle;rounded=0;orthogonalLoop=1;jettySize=auto;html=1;entryX=-0.003;entryY=0.191;entryDx=0;entryDy=0;entryPerimeter=0;" edge="1" parent="1" source="0-I5_G3RzfP3J93G6mHh-34" target="0-I5_G3RzfP3J93G6mHh-31">
          <mxGeometry relative="1" as="geometry" />
        </mxCell>
        <mxCell id="0-I5_G3RzfP3J93G6mHh-47" value="" style="shape=image;verticalLabelPosition=bottom;labelBackgroundColor=default;verticalAlign=top;aspect=fixed;imageAspect=0;image=data:image/jpeg,/9j/4AAQSkZJRgABAQAAAQABAAD/2wCEAAkGBxMTEhUTExIVFRUVFxcXFRcXFxgVFRUXFxUXFxUXFxcYHSggGBolHRUVITEhJSkrLi4uFx8zODMtNygtLisBCgoKDg0OGxAQGy0mICYuKzEvLTIxLS8tLy0tMS0tNy0vLi03Mi8tLi0tLS0tKy0rLy0tLSstLy8tKy0tLS0tLf/AABEIALcBEwMBEQACEQEDEQH/xAAcAAACAwEBAQEAAAAAAAAAAAACAwABBAYFBwj/xABLEAACAQIDBAUFCwgIBwAAAAABAgADEQQSIQUxQVEGEyJhcVOBkZPRBxQXIzJSobGywdIWQkNicpKioxUzY3OC4eLwJTSUs8LU8f/EABoBAQADAQEBAAAAAAAAAAAAAAABAgMEBQb/xAA2EQEAAgEBBQYEBgIBBQEAAAAAAQIRAwQSITFRFUFSYXGRBRMUoSIyM4Gx0RbwwSNCotLhBv/aAAwDAQACEQMRAD8A+bAwLvAl4EgWIBrAJYDAIECwLtAtVgMCwCCwCEBogFeAQMA1gGFgEBAowJaBYWBWWBcAiYFpaBTIICrQCQWgAal4Geo8BAcX3QLzwL6yB5F4EEAgIBAQLEAxAIQGLAIwLgQQDEAoBAwDUwCzwCVoBKYBgwCDmBM0CZoFh+6BCRAtTAMkQIIA1GgCWEBTVIA54GZoCTAhgWIHmCAcCxAMLAvLAJQIBwDEAlEAgBAIGAWsCwIHrbL6O4iuuZFAXgWOUHw4nxgK2jsqrQbLUW19xFip52I+rfAyFIBdXAMJAJUgGKcCZIEFOBMkAWWBQSBRBgRWMAme8DPUPKAsEwKLQFnzwAJgUT3QKzDlAwKt4BhRAItAl4BZYBpAIQCEC7wDUQCCwGKIGvZuG6yqiE6M6qfAkXgfXEpZbCwFrCw3AAezSB5nSrChsNUzDVRnB71O/wBBIgfObQIRANYBZYAwDBgEDAswBAvAEqOUBbDugBpygQt3wBK8oCXW3CAkkQBJgKa0CoFEQMSwDAgWBAMCBBAu0AxAICAapAaqwG2gWBA0YWqUdXG9WDDxBvA+qbN2pTrKGRgNLlSQrDdowPfx4wPF6YbZQ0zRpuHZj2ytiqqDfLfiSQPCBxopmBOrMCBIF5YFhRAPJAILALJAEiANhAUwEBbLAAKIDLiAl4GN98BTNAUzQKzwKvAz2gEIBKIF2gGo0gEogFaAYEA1gMEBgXugepsnYVauewtl+c2i6d/HzQO42P0XpUbMR1tQbiwsoI5L95gaukGyuvokAAuozIdNSDqL940tzIgfOQDAO0CyIBBdIADWBY8IB2gWIFwKIgKKiAowFFzASTAJDAGpeBmqCAhhAAwFkQKgLWAQWAUAl3QGqNIEFoBGBYBgOpiA0LA9HZGFFStTRhozqDrwuLwPpu1McuGpByhyghQFtxGg10AgZ+je0nxCVHYKoD5VAuT8kHUnedRraB7C23aW4jd4eMDkel2wsrGvTF1OtQcj8/wPHkfoDlmEAlWAzLAAqIAgeMCNAtCIAl4AO8BTvASakAXeAnNeAYaAstAVWHGAktAU0BZgCYAKYB3gEu6BEa0Cy8AgIDlEBggMSA5TA9DYz2r0TyqJ9oQO/wCmVK+FY7rMpt/jA+8wL6E0cuFB+c7N9IX/AMYE6WY16VJCjFWLrY9wVja248IDtgbdXELlay1RvHzuZXu7uEDnul+whRtVp6IxsV+axuRbmND4QPAHngEqwJlPdAgMAXF+IgV54AlO+AmqbQFO3GBuo7CrPTSquTK/yRm7RHOwG7SZW1q1nDemz3vGYHV6OV/1D4G31iRGvVadkvHR5GLoNTNnUr47j4HcZpW0W5MLUtT80ASix+SjHwUn7pM2iO8ilp5Qa2ArD9C/olfmV6rfKv0ZcSpUlWBU8iLGWiYnkpMTE4llMlBbQAMAYCQYBqIDF3QCUQJaAYgNQwGIIDVMBggPoMVII0III7iDcGB0+1ulLV6XV9Wq5rZyDe9jfQcNQOcDr+jtIrhqQIsSt7eJLA/75wG7U2WmJTK9wQSVK8COO6xvc6QOJ2jsqthWD62BBWougB4X+ae6Bn2ltmtXCrUa4XUAAKCeZtxgZ0WBVbQboG7ojhqeIrvTqrmAplh2mUghlHA95nmfE9r1NnpW1O+XRs+lGpMxLrT0Uwnkzp/aP+KeR2xtPSPZ1fR081/krhPJn1j+2O2dp8vY+jp5h/JXCeTOn9o/4o7Y2mOnsn6OnmH8l8J5M+sf2yZ+MbTHT2T9FTzLbophD+YfWP7Yn4vtUc4j2PoqebLi+imFKnLTPj1j+2Wr8W2jOJx7J+i046ua2ph6+FosaLEKtstznAuwBtm4azv2fafn6m7ZS8X0acO542C6bVka1dQVO9luLd5F/qnfbQj/ALWWntc5/HDtcMadUA6G9jzHMEe2c3J3cJg0gg5QCO/hAZ1eUXYAyUPD2/gxWRtO2ouh5818DNNO+7LDW0t+vm4Vmna8wBaAEAYC1EBoEAxAOmsCFYFgaQGAQGpAaiwGCAxVgensXAmtWSn849r9kat9AgfUcZXWnTZzbKi3A5gbh90DjNk9LaiN8d8YpOp3MvhzHcYHa4avTq07oQyOD4HmGB+oiBx/SXYQofGJfqybEb8pO63cfogeGjDvgViR2YGn3Ob++639yeP668eE8T45+nT1dmx/ml0mD2e9nVaZGai6EsoVgxGillNquv51vPrPM1Nak4mZ74nhn+J5PdvqxP4pnvjr/wA8vc5aNSoylUemUw707sAO22WwGuvyd8pN6VicznNon9uKs2pWLcc5tE48oz/asNhezanQak/VMrObKM5Gl7H4zW5zcPPGpqRmZtfMZiceX/HBa+pmZmbZjPL/AHkVTwgykJh2RuodWY2XMxWwBsfjCTc34eeTfU/Fmb5jeiY/3uL3zMzNs8f99C8Lg/iXXqmDGmAbU0pMd1wH/OPjvl9TVj5kTvRjPWZ+39LX1P8AqRaJ7/OfsWMGxp1V6s5S1Mgqi02OU6nqicptYcs3ok/Nrv1ne48esx78/wCj5kZrOePHrMf3/TLtSiRgsQCmUZgV7OTMM9PXJc5Nb6C3O2s6djtFtqpie6fPr397g+IWidPhPT+Xz/GYQFZ9G8MHR7pCcM3VOTkJ7JP5l+HhMNXS3uMOvZ9fd/DZ9GSsHUG9iN9uU5HoNIrXTff65MIs86rp/v0iEOI25hslZtNG7Q+/6frnbpWzV5mvTdu8wzRiG8ADAkAkMB6iBADeARWAxV0gMVIDUSAxUgMVe6A2msDtugOAFqlY8wiekFj9kemAfug7TCU1pjQuczc8q7vSfsyLTiMrVjNoh4I2Mvlm9WPxzx+2aeCfd7fYWp449np7GzYdrrWJU/KQpo38eh747Zp4J9zsLU8cez28TtenURkZWswI4enfw0jtmngn7HYWp449nMDZo8qfV/647Zp4J9zsLU8ceyPs0EW60+r/ANcds08E+52FqeOPZWx8C2GqtVp1gSy5Tnoki1weFUa6Tk2vbtLaaxW1ZjHnDXR+EaunMzFo9pex/TOJ8rR/6d//AGJwbuzdLe8f06Oz9bxV9pc/jenuMp1Hp9XQbIxW+Vxexte2c2nrU+DaN6xbenj6PE1NqtS81xHCWf4Q8Z5Gh6H/ABy/Yml4p+yv1tukBPuh4zyVD0P+OOxNLxT9j66/SA/CFjPJUPQ/45PYul4p+x9dfpBb+6FjNB1VC5Ntz8f8cdjaMf8AdP2TG23nhiHZU8JUrUSuKdBnAJFMMu4g7yxvqO6NHZNPRvv1zw6um2b13bPNxHRGkfkVyARuNmIPjPQjXlzTste7Lj9udBqquCHDrxNrH75Pz/JEbJx5ui2ExCgfNAX0Tndfc9uoQBAyViCLQMGJwS1AVYX494PMHnJraa8lb0reMS5faGxWUnJ2hyOjf5zorrRPNx6myzHGvF4777Eajgd4m7lmMcw5oBWgNpLAfSXfAJVgGRAtVgNUQGpAaDAYBAag/wDnOB9Y2ZgOpopT0GUdo7u0dW+mB8j6b7S63EOwPZByL+yun0m588rf8sr6f549YdYBfQbzunxERM8IffTMRGZdHtDZtEIFBTNQKdcVPbZWIFUtp+axFt+hnsa2yaUUiImM1mN7HPE88+kvE0Ns1p1JtMTi8Tu55ZjlEesfcnalAr1jDD0lpo69U1vlDNpY/pgy6m+68ptFJpFp+XERExiev/tmOfRps2pGpNY+baZtE70dJx/44nl1OQI9fCoaVIK6U3eyAXLBrgnloNO6aYpfX0qblcTETPDyn7MonUrs+tqb9sxMxGZ6TH3L2fhgUodXRSoGZhXZhmK9u1ib/FjJreV0dGN2m5SLRMzvTzxx+2IX19ad/U39SazERuxHDPDp35ngPD4LDstNNLtiKgRzudUZLI/MMraHnbnL6ez6FopWOc2nE9YieU+sclNXadopNrd0UrmOkzE8Y9J5/wDx4G0VAq1ABYB3AHIBiAJ5OtERqWiOsvY2eZtpUmeeI/hy2OpA1an7b/aM+w2f9KvpD4jaP1r+ss5w4mrEDYcQFiiIGXE4e/dAzVHxAIPX1Tbdd2YDzE2lZpWe5eNS8TnLbg+lGIpHtqHHoMytoRPJ0V2u0c3tUOmVKoLMTTPENYD03tMp0bQ3rtFLc+DXhay3zIQQdeyQRfnM8NcxPJrXE33mBfvleYgFcbxJC6wvvgy8/G7NSpvAP1+YyYmY5KWrW35oeS/Rxb6Mw7tJp86zH6anVz4M6nCYjEXEB9F98Bl4BDWAapANRAYDAapgGDqBpqQBwGug1kxEzOIVtaKxMz3Om2Fsh1r02qquRTc9tTqASNAedp0fSa3hcnaOzeJ2G1caeqfqSDUKkL2lGp0vc8r380j6TW8J2js3ifMcZ0UxTblT1ie2RbY9aYmN1anxLZotEzZ0vU1/IfzKX4587/ju2eT6b/LPh/WfZOqr+Q/m0vxx/ju2eX3P8s+HdZ9ldVX8h/Npfjk/47tvl9yP/wBX8Ojvn2Tqq/kf5tL8cf47tvl9z/K/h3WfZ4FXpSisymlUupKn5O8Eg/ncxOfsjXjhvR93b23s84nE+0A/K2n5Kp/D7ZHZGt1j7p7b2fpPtAl6Tof0VT+H8Udj63WPuntvZ+klVaoZ2cXszFgDv1N57+lWa0is90Pmda0W1LWjvmQFtZozLJgLJgCRABzAQygwMtfBqeEDNSw7ob03ZPA2v5pExE81q2mvKRjaOKT9IW/aAP8AnKTpVleNe8d7Zg+lJBArJ511HnG8fTM7aPRvTavE6XCbXpOLo1+esxmsxzdFbxPJoGL0hLQCsIQr3QPnNp3PLGsByiwgMvpAdTgPAgATAtW7oDUgIqVD1iD9dPtCaaP6lfWGO0fpW9J/h9RtPpXxjZs7Dq7MG3KjNvC6i28nQCcW3bRbQrWa442iOUzzz3Rxnk6tj0K61rRbuiZ5xHTvk6rhEAqFWvlRG0YMAzNZlJAsbd0w0ts1bW063rjem0cpjhEcJiJ4xnza6uy6Va6lqTndis84njM8YzHPAtm7O6xWJzb8qWFxmIJu36u70xt3xD6e9axjrOemccPPv9ITsWw/UUtac9I9cZ4+X9phtnh0U3OcuQV5quXNb9YXvbx5Smv8RnS1bVxG7FYmJ85iZjPlOFtDYI1dOts/izOY8omInHnDBikCuyjcrMB4AkfdPS0LzfTree+In3hwatIpqWrHdMx7SSDrNVHz/GYS9WobfpH+2Z8vbnL7en5Y9CTgu6QstcLbhAcqQJlgLaAssIA5xASWgADAhgRVgVUUcbfRAwYnDgwMDYYqcykqeY0kTGUxMxybMLt2omlQZhzGh9G4zO2lE8m9NomPzOl2btpHGjA/WPEcJhNZjm6a3i3J6YxfeJC7iBO15YkgNvAJRA0U1gNDQBGpAAJJ4DUnwAgPGHfyb/uN7JGY6q71eohh38m/7jeyMx1TvR1ZqmHqdYh6t7B1JORtAGHdNNK1YvEzPey15idK0R0l9F/pWl87+FvZPf8AqtHxx7vk/pdbwyOntqmt7ORcEHstqDvG6Z31dnvjetHCcxx716aG0UzuxPGMT6DobeRL5ahF9/ZOvmKymtOya2N+0cOXHH8Svo02rRzuRMZ58In+UqbeRrXqHQkjssLE2udB3CRWNjrnExxjE8c8I9U2ja7YznhOenH9iG6WUCb++kuGLDXUMbXO7foI3NkxNeGJiInj3Ry9ltzbcxbE5iZmOHfPMip0kwxJJxFMkkk67ydTOimto1rFYtGI82Ntl2i0zaaTmfJE2/hb/wBenplvqdLxQj6PX8E+zmK9QF3O8F3IPcWM+cnm+ur+WCmeQsV1sCzUI4wIMSYEqYgHhARVtpAEWgKYwIogWVgJc62gKaAlzAGAqrTBgYnw5U5lJBHEaRMZTEzHGGpNt1wLWU24kf5zKdKraNos0ATVgtYDFgPpCBoVNIFkWEBeza599UAPK0/tiY7T+lb0c22foX9JfV+sbmfSZ87l8jmV9aRxb6bzbR0baszicREZmZ5RDo2bZ7682xMRFYzMzyiP59IhYxPe2+1tb33zSuyWvfdreJjEznPCIjr3x7NqbBa+pFaalZjdm29mcREc8xzj0xx7ljE6E3bTeNbxOx6k2pFJi0XnETGefnnjGP4RPw/Vm2nGnaLRecRMZxmOec4mMc/QXvn5PaPa3b+RP3GROx6kalqZ/LG9numPL17ifh+tGrfT3o/DWbZzwmOE5j1ieCzVPM+kzkzLz8z1RahuNTvHGTEzlaszmHyM7P7RPefrn1MPt45KXZwvuhJ9LBAQNgpi0BbQFEwALQBzQFu0AS8CZoAEwLzwKZoAM8AXa48ICLwKgCYAmAlkEDaggEVgWBA0UW4QNQHfARXeAjZn/NYf+9p/aEx2n9K3o5ts/Qv6S+urPnHx6OL2INiN3Ed4Im2hrzpZiYzExiY6w6dl2mdDeia71bRiY5ZjnzjlMSFaWg11BuNNBpa1id3nnVb4labRO7wiJriZmcxPWf46O6/xi9rxO7+GKzWYmZmZi3Gc2590Y6CNK+88bmwtuGnHzyK/EJ08Rp0iIiJx38bc5485xwRT4tOlFY0tOKxWLY45xNudpzznHDGMIaJ0sdzZhcX3ixG/XfEfEZmYm9Yn8M1nuzE+nLCK/FpmYnUpE/gmk4/Dms+kcMcowMX4/QLfeZxalqWtmlcR0zl5utalrZ067sdM5+8qQ6jxH1ysc1a83zXNqfE/XPqYfbxyEGhKyYAs8BBMAHaABaBQMAWeApmgCD3wBzQIKkA73gVl7oAFIAZIAMLQAMChACBrUQDEA4HtdAqSVdoUKVRFdGLBlYXB7DH6wJlrWmtJmE1jMvtb9FcAoLHC0AACSSoAAGpJPAThrratpxE8VrbtYzPIFTotswfKw2GF1LC4UXVbZm8Bca98vXU155Z6furN6RzmOv7F1ei+yVZQ2HwoZtUByhm5FdbnzS0TtFomYiZiOfBS2ppRitpjj9zj0W2aM18PQ7Hy/wBXS/a100I3zON+cfh58uHNWdPQjPCOHPlwAnRzZZTrBRw5T5wIK77b72l5pqxbdmvHphWI2aa78buOvDBo6JbOzFfe1HMACRxAN7Ei+42PolM2xnHD0X+Vo5xiM/sTtLojgVo1CuFpgim5BANwQpsd8mt82iMR7Qn5Gl4Y9n59pYaoQPjH/ePtnd8unSFflafhj2X72qfPf95vbHy6dIPlafhj2Pw6MDfO37x9sfLp0g+Vp+GPZrUy7QTGBSteANU8oCWaALNArNAUWgLLQBLQBzwJmgVvgXArNAFjAom0C1c8RAKplPGBme0AIGuA1YDFge17nQ/4thvF/wDttMdo/TlavN+hqlEMpVhdWBBHMEWInmxMxOYWnjGJcrhth1+qrioAWWg2Gw+o7Sdo5zroW7A1t8merfa9LepNeGbRa3r0/mf3eZTZdSItFu6s1r6f7iP2DtLY1Y2yUSWalSQnNTNIlN4rJU1sDuKXMtpbTpZ/FbhvTPKc8e+sx3+qurs2piIrHHdiOcY4d1onnHpxaMbsaszV2yAg16FUKSLVVp01DL3ag2zcQJXT2rTrWkZnhFoz0zylbU2W9pvPDjNZ9cYzBeM2RVqjEN1HVir1CilmTM3V1AXdipyg5dN97CTp7Rp6Xy4i2d3enOJ4ZjlHfz4o1Nn1NXftNcb0VjGY44nnPdy4N2wtm1qVeqahzIEppSe4JZVLkBhvzDNa/HTvmO07Rp6mlWK8JzMzHnOOXq22fQ1NPWtM/lxER17+E+mXq7V/qKv92/2TOLT/ADw7n50pOMo8J6rNHqiAoNAFqmsAut4QAd+AgLeqbwAvAhMCmMAWMATAEwFsYAgcoDA0CrwBJgWWgCG5QKMBZgAYAwNqmAxWgMpmAWEx9XD1lr0SFqJcqSMwFwQdDv0MrasWjEpicPd+E7a3lk9UnsmX02mneQe6btby1P1KeyPptM3l/CZtbyyepT2R9PRG8v4TNreXT1SeyPp6G8nwmbV8unqk9kfT0N5PhM2t5en6pPZH02mneGPdG2kwKvWQqwII6pACCLEaC/okxs9InKN5z6MRpNkGAwBZoCy0C8+kACYFZoFM0CEiAJqQFmpArrBAhcGAvPAjPArrIFF4AloBBoEDQITAC8AYAmBsWAYEAkNoDCLwCVBAMIIEKCBZQQIqjlAjoIAiBLwJAomAJMCBoAs0AMwgVeBTGABMBbGBUAbwBgWTAq8CEwBvAu8CBoEvAhMCrwKgbFAgPWAVhAIra0CwYF54EJgCWgQvAq8CoFgwBJgCTAEwKzQBzQBvAvNAotAAtAAmBV4FEwKJgUTAG8C7wKvAuBIF3gUYAwKzQNqmA4QCQwDLwKzQIYAsYFXgUTAl4FF4F5oAFoFEwKJgCWgTNAomAOeAJaBC0AbwKvAotAAtArNAgaBZgDmgQmBLwCvAsmABMCoH/9k=;" vertex="1" parent="1">
          <mxGeometry x="370" y="802" width="205" height="136.42" as="geometry" />
        </mxCell>
        <mxCell id="0-I5_G3RzfP3J93G6mHh-48" style="edgeStyle=orthogonalEdgeStyle;rounded=0;orthogonalLoop=1;jettySize=auto;html=1;entryX=-0.003;entryY=0.558;entryDx=0;entryDy=0;entryPerimeter=0;" edge="1" parent="1" source="0-I5_G3RzfP3J93G6mHh-32" target="0-I5_G3RzfP3J93G6mHh-47">
          <mxGeometry relative="1" as="geometry" />
        </mxCell>
        <mxCell id="0-I5_G3RzfP3J93G6mHh-49" value="&lt;b&gt;&lt;font style=&quot;font-size: 14px;&quot;&gt;Devops + Cloud&lt;/font&gt;&lt;/b&gt;" style="rounded=1;whiteSpace=wrap;html=1;fillColor=#dae8fc;gradientColor=#7ea6e0;strokeColor=#6c8ebf;" vertex="1" parent="1">
          <mxGeometry x="166" y="1070" width="250" height="60" as="geometry" />
        </mxCell>
        <mxCell id="0-I5_G3RzfP3J93G6mHh-50" value="" style="shape=image;verticalLabelPosition=bottom;labelBackgroundColor=default;verticalAlign=top;aspect=fixed;imageAspect=0;image=data:image/jpeg,/9j/4AAQSkZJRgABAQAAAQABAAD/2wCEAAkGBxASEhISEBIVFRUVFhgVFRgVFhUWFhUVFRgWFxUVFRcYHiggGBolGxcVIjEhJSkuLi4uFx8zODMtNyguLisBCgoKDg0NFQ8PFSsZFRorNystNzctLSstKzcrOCsrNy0rKy0rLS0rLSsrKysrKystKy0rKy0rOCs3LS0tKzcrN//AABEIAU8AlgMBIgACEQEDEQH/xAAcAAAABwEBAAAAAAAAAAAAAAAAAgMEBQYHCAH/xABNEAACAAQCAwwFCQYFAQkAAAABAgADBBESIQUGMRMiNEFRYXFykaGxsjJzgcHRBxQjJDNCUlOCFUNiksLwFmOis9LxFzVEVJOUw+Hi/8QAGAEBAQEBAQAAAAAAAAAAAAAAAAECAwT/xAAeEQEBAAICAwEBAAAAAAAAAAAAARESAjEhMlFBIv/aAAwDAQACEQMRAD8A3GBCNZOwS3fbhVm/lBMZBV6xT3LvMcHMk3vZQL7BewEBsTTFG0gdJEJNXSRtmIOll+Mc2VHymTbnc0FuK4W5+ENH+UesOwIOgQHTZ0nI/NT+YGCHTFP+YO/4RzE2v1cfv26DCLa615/fHugOoDpum/M/0v8ACPP27TfjP8j/AAjl4621p2zj3QX/ABPWcc0wHUX7ep/xH+RvhA/b1P8AiP8AI3wjl7/EdV+Ye0/GDDWCp/MPafjAdQft2n/Gf5H+Ee/tym/H/of4RzCusNV+Ye0/GFF1kq/zTAdNjTVP+YOxh7oONLU5/er228Y5mXWesH75u6F01rrR++bu+EB0qNIyPzZf86/GFFqpZ2Op6GEc2prjWD79+mxhxL12q+PB/L/9wHR4IOyPYwHRmuM13COFBOw2Fr8hH98UXbVDT0/5ykotdJmRBvkeIrc5QGkQIECAY6dNqaoP+TM8jRg2mT9XqfVzfK0bvrAfqtR6px2qRGCaaP1ao9XM8pijLxBhBBBhECiwYQmIOIBUQYQmIMyX++w5gPfcQCog4huJH+Y3Z/8AqPRT/wCY3Yf+UA6EHENBTH81uw/8oWky8N98W6eLvMA4EHEJCFBAKCDiExBhAO6BrTZXrJfnWNN1Wb65T9YeMZfR/aSvWS/OsaVq231um9YvmEBs0CBAgI3WM/VZ/UMYHpw/Vp/q38DG860G1LO6vvEYFp0/VZ3q2gM0EGEEg4MAcQYR4i32QslO5DMFJVSAzAEqpa5UMdgJwtYHbhPJAFWDiPAhgwQwBhBxBQpgwUwBxBhBQpg4UwBhBxBAsSKaErDspKk32Wp5xB6N7nANBBxBCCCQciMjzQYQDikP0kvrp5hGkavn63TetTzrGa03pp1l8RGj6CP1mn9YvmEBtsCBAgIjW3gk/qjzCMB1gP1Wd1D4xvmuB+pz+geZYwDWI/VZvV/qEBnMGEEEGEBMatmlE0NWJOeSCCVkYcTWZSVJYiylMYuCDe1ot+s2tdHPohSUtNNk2aSwBSWqfRibuh3rE3LTL7M84pOjNjdIh7GpGbTPCeQ9ke4TyGHcCGqbGwU8kGAhePYarsREHEGgQ1NgB5geY7DzHmjXf+0rRxluhps33Q4ii3XdWZtltoxcvFGRQIapscaQniZOmzBezzHcX2gMxYA8+cJAwnBhGWzinO+XpHjGjaFP1mR1x4iM2lnMdMaLog/WJPXEBukCBAgITXTgU/oXzrHP2sp+qTeqPOsb/rvwKf8Ao/3Ejn/WXgk3qjzrAZ6I9EFEGEBJ6K2N0iH0MdFei3T7ouesGitH0uKWWrGnCSkwHDI3DHMlLMUM1w+EFgDlfbtjUrne1agRLV2rVbJVXm00xVZlQHJjjf0VKoSVY7ACAScoPV6q18oEzKZ1srsc0bKWMT3wsbEDPDt5ouUQ0CF2pJglrNKkI7MiMdjMliwXltiXPZnE3pnUytpzTgyncz1SwVQSs5w5MiwJLMAhJbZt5IZFdgQ+0roiopmVamU0ssCy3wkMAbHCykqbG17HK4vtgq6Mnl5csS2LzZYmy1yu8oo00OM9mBWb2QyGcCJOfoCrSR85eQyycKtjJUDC5AVit8QUkixIsbjlgaQ1erJCLNn08yWjWALAZFhcBwDdCRxMAYZEQ22DAwWZtgAxiuk6KoY0bRZ+nk9cRnCbRGiaMP00rrwVvMCBAgIHXngM/wDR/uJHP+snBZvVHmWN/wBe+Az/ANH+4kYBrBwab1feIDPY9EFEeiAldE+i/T7o0rWbSsupQgaU+g3KSDTYam5aTLl3Vby9zDGYlwSbXsTGaaLeyOTxZ9gi061auz9HzhIqDLLmWJt5RZlwszqM2VTe8tuLkiudvmrRO0tRSpVUtLOpJIebSvSmnpp+6pLk1UuZjqWdN+6quLDcklW5QIaTtJU8qdS1MlaWZW/OgWFEk9Jc6ndSjI6TgFE52crZcrMb8UNn+T+tFRTU2KRjqZbTZZxvhCoMRDnBcG3ID0w7qvk80pSKamW0iYZBx/V5jPMQpniCsguRa+VzlsgZvxE68PJWoFJTcHowZEu5vd8Reoc85mEqfViJKk0nSh6OcahUto/9nzLJN3encpOT5wgCYXQYkOTXsTlcWiG0lq5USqWRWzGltLqWslmZplyGYlwVA+6dhMRdJTtMmS5aZtMdZajlZ2CqO0iDOfKY0pMkSqKVRy5yT2FQ9QzS1cS5StLSWJSGYqlr4S5sAActsTejK6i3WjqplUq7jQLTGVgnGZu6U0yQb2QruZD3DX22FtsQOtWq9To+YkqpwEumNWllmQi5BF2VTiFhfL7wiGtAyuX7RpMCz6pqWonS1kGS8iXUSqt5klpW8qcaiUyBFK4jmQBbO0DWzTEp0q/m8yiMurmK7CXJqUq2CzRNUzi/0YYMMzfO5ta8Uy0CBsbzdseAwJ+2CgxHWdFkOYjRNGH6aV14zqVtHSI0PRh+mldcQVvsCBAgIDXvgM/9H+4kYBp3g03qGOgNeuAz/wBH+4kYBpng831beBgM7j2PBHsBI0H2U3oPljVfl2U/tBDxGjli/FlNqb+I7Yy/Qwur35fdGmyflBlTJUpNIaOk1kySuFJrsAxGXpAo3IL8RPFBy5XuL5U5aX0MOMUk6/8A6cQNDN0domp0hWfP0qJ00zlFPKW1neaXwTbM2asMOI2sC3LaKsdf57aRTSMyUrFEMtJQcqioQwtisSTdiSbZ8wtarV9Rus2bNIsZkx5hF74TMcva/Ha9r80C8vi9a1rbQGhxyPbsSbDP5INFbtpBZhUlaZGnG1s3IwS1z47szDnlxE6W1nafRUtEZQUUzYg4ckvk4sVwjD6XKdkF0LrNMpaWqp5KYXqSl56uyuiJayKAOeZvsQtunNmTMzldvlB0fWTtEyaqulblU086ZugurfQz5hC4ShItcyB+g7Icafn6OoG0eo0ZTTTUyk3Usiiy3QEquEgucbEttOEA34qPozXGfKp6ynn46lKmXuf0s9yZWTjGhYNnvgbZZoI0DXXWGRSfs4zaCVUuKdXlvMbA0plwWtvGuL2PFYiDWZfISNVNH09bpZZtOk2TLpZVSiMLmUGE/dFlMc0JMs2IOVwOKIKrWk0jomqq0opNJOpZihTJACsn0ZKtYLi3rsBfYQDxkQ+1C07MqH03WVCrMY0ysZZvuZVFn4ZVjfeWFue5O0mKtpzXMTqX5nS0cqjkMweYstsZmMLEXOFbC6rxEnCovbKCWzCkVHpdkFBj2q9L2CCAwdOPUOKb0l6w8RGhaL+2ldcRndJ6cvrr5hGh6J+2k9cQVv8AAgQICB154DP/AEf7iRgGlfsJvq38pjoDXfgM/oXzpGA1y3luOVGHaDAZxHseQICa0H6LdPuiStEboL0W6fdEnBw5+1JTyQrEbQDbsi6ay6qD53UJSzJG8eX9ArTN0lS5rS5au10sVDTFLYWJUOLiKdMW4I5QR2xaK3W0NNnVEmlEmfOw45hnNNGFHlzCqyyi4cTSpdyScgbBbwSY/SGgtXXeoKMsuYJdSKZ0aZMlq7kT7WdFLBfoWN9uzLM2fTtXad6cTt2lyCtDRTTi3WxmT2RZkyZgltk2IgYc8Vri2cFp9ckluZkqjClqr5296hnxPhmgoDuYwpecxG0ixzN8o9NYFKblNkY5ZpaelZVm7mx+asrpND7mwUkqLrhO3bBf5hCg0POtOabTOAtNPmjdRNkgbmmLGhC2mOu0Id6eM2h1pvVudIE7dKiVMamKCaiPNZpazWCyzd0CkEstwpuMQuBxM6XTk9RNEx5k4TKedTgTJrkJuy4C6hr7OTK/KIcaT1hac1cxlBfnm5XGMnc9ymS5uW9GO+524tt+K0E8YQyOwvZiL5GxIuOQ22wW0ewIMo6s9M9AhMGD1vpnoEJAwejj1Dqh+1lesTzCNC0P9tJ64jP9FfbS+sO6NA0L9vJ6490GnQECBAgIPXbgU/oXzrGBzs1I5j7437XMfUp/VHmWMCPF/fHFGaQI9YWNjxR5EE1oL0W6fdEnEXoL0X6R4RKWg4c/ahAgWgWgwECBaBACBAtAtACBAtAgIyu9P2CERCtf6Z6BCEHo49RIaG+2l9J7lJi/6C+3k9ce6KFoEXnpzYj/AKSPfF+1f4RI648RFadAQIECIIbXHgU/qjzLHP7cUdAa48Dn9UeZY5+f++2KM9rltMmDkdvEwjDvS62nzR/Gx7Tf3wziAwJj3GeU9sFgQB8R5T2mPcR5T2wSJeXoJ2pxPRlNwzYM8WBGKsw5bZE9MBGYjyntj0MeUxOVmriSft6lEuSF+jmNiwhSx3oy9IQ5namTU3zzUCLuhmPZrS1lmwNhmxbiAgK4GPKY9DHliekaqO7SLTVwTZTz2dgQJUqWc2cX6NnGYjtN6LmUs55EyxK2sw9F1IurrzEe8cUA0DGDBoTEGBgDgwcGEwYMDAS+rn23QhPeB74vmrvCafrjxEUbVlfpHPItu0j4RedWuE0/rB4iKjoCBAgRFQ2uHA5/VHmEc+TP77Y6E1u4HP6vvEc9TP77YoqWs1IVm47b17Z8QYCxHdf2xDRoEyUHBUriHGLEj/r3xD1Or0niZpZOwN7g1j3xBWIETszVp/uzFPWBXwvDeZoCoGwK3QwHmtARcPqfS05NywPbcsWDIZYzdgfxA88FfRNQP3THoGLwhNqGcNsqYP0N8ICR/wATVWd2Rs776VLa1wAbXXLYI9/xNWY0fdd8mO29WxE0guGFrMCQMjssIiTKYbVbsMeYDyHsMBOLrbWhcCTdzFgo3NEQqoYsFVlF1Fych0bIZ6T0xPqdzNQ+6GWuBWIGMre9mYC7WJO3lPLDNJDnYjHoUwqtDO4pUz+RvhAJCPRDtNE1B/dEdJVfEw4TQM87cC9LX8oMBHAwYGJhdXiM3mgdCk95Ih9SaEkjOzTOkXXsUW7SRAF1bpyqM5+/a3VF8/bc9kXDVnhNP6xfERCg/wBnL+xE1qvwqm9YvmEVHQMCBAiKiNbOBz+p7xHPE3++2OiNa+CT+p7xHO04+/xihrJNwes3mMO5cmcExqszB+IK+DLaMQyhhImDNb5gk25mJII7e6HtNWzpf2U2ZL6jsnlIghMTRyKf0rftAvHoYfh/1P8A1Ejuh+2n6lvtHWaOSdKlTe91J74Z1dTujYsCJla0tcK9NrnPoyygEi4uBnmCc7E5W5AMs+TigwPJ/fOTxDnMIMd8vQ39MCW5Kgj72fsOzsHv5YB2CeW36h7jAxH8X+qGm5n8R7Y93M/ibtgHRxdP6h4E5+yCg/37jzw2KMNjH25iD481P4svaBcdwI7OSAUlOCLm+02sQBYG2eV+LlHvhTEPwjtc9xa3dDamO9Ht8TEhR15lggSpLEm+KZLWYwyAsA11tlfZxmAQR87LYH+FVDH+UXhWpkzFI3VXUkXGNWBI5Ri2iHTafq7WE90HJKwyR2SgsMZs5mOJ2LHlYkntMAUHfDoPcR8T2xP6q8KpvWr5hFblzQz703wixtsubZdOXeIsmqfC6X1qedYDoGBAgRFRWtPBKjqGOdJ3x8Y6M1o4JUeraOcp/wAfGKGM6mSZfEFNshe/t2A5cXs2Qj+ziPQYjqzLAexyPCHEg5fqbzNErTUcoS1m1DuA5ZZaylVmbBbE5LEBVBNrZkm+wC8EQO5VC7GY9eXl2gAHtgq1U7klt0Ej4xYRS0hzSqZDxCdIdbdLSWmdtob10mZLbBMN8gQQ2NHRhdXQ7GUgg399xARskuTicBbCwAN9trknj2CFaT7NOqvgI8YgMAABcHYABkVtkMr5nPj9kCk+zTqr4CAWj28Fj2ANCD/u+t/Q8Kwi/wC7639DwCRealwqqy3JBJIIvnY5G8F+cTibAyweTNj7M4dU5BF7C9zmQCdpyBIuBs2RKUlPiltMmzjLlhsAspmM72xFUTEBkpBJLADEu28BCfN552u4/SEHsZgPGPRowH08+UO5bstiHfFonaNkS5YmmVUOLAm82mkkBsOFmlqJrqDjTb+NfxC7DSFKiiW8osZc1SVx2xKysVdGIsGIIBxAC4YZDZAMpMsLvQBzW2f9YseqPDKT10vzrFbvvh0HxWLJqfwyk9dL86wHQMCBAiKi9Z+CVHq28I5xqPj4x0drPwSp9U/gY5xqPj4xRGGpCEhgbXJBAJGZub2zGZMLLXo1hugNtgJ2XNzYHZncx6AGve+0gWsNmRvcHjB5IJMpEPJ7Vt3gnwghcGF6urMzc7gDc5Yli18wpZrm/HdjEUdGKPRt+h8PmwwPmc0ei0z2b/wvAOZh3y9Df0wKBxbA2WHI9H3W5xbwMJyJJBJYkts32RA5LcUeVEgGxvYjYQbHtgJESB+YnaR7o93AfjTtPwiIEqb+cexPhHu5TfzT2J8ICWMoDa6nmW5J7oZM4LgD7tyeZiLAdhPaIb7i59Ka1v0r3gXhzIlhRYbIA1Kd6Ok+Jh2Z7FBLywh2cZZ4nVFbPktLTsiMane53NnGdyFGLM81ja8eGhc7WmHpbB3EiAsVXpwtLKMihiLPMxNmDuOKyk2Ut83k4js3psFxNeFavlD7wPVu3hCK6NS97L7SSe4Ed8OUp1HH2KB3knwgBTzcZvYgAWF8ib7TbkyHfFp1O4ZSeul+dYrSZG3NcXtfnvYAcnbzZ2XU3hlJ61POsB0DAgQIiozWbglT6p/KY5vqfj4x0jrLwSq9TM8hjm2q958YoZyNn6m8zRKNMVqVrS0UpOpxiAJdscqrx4mOdiUU4RYCwyvmYQ1AQkMDa5IIBIzNze2zMw4l6RQo0sOtmZHIORxSxNVdvFaa/dBDunoZri6LcXw7VBvdAcib2BmJc7BiFyIRmyyps1r5HIggggEEEXBBBBBGRBEL0ekpsoWlsANuao23CTbEptmibNuBeQQhNmliWY3JtxAZAAAADIAAAADIAAQCTNvl6G8Vj2mmGxPKzX57MQO4QRzvl6G/pjyl9H9T+doCVpaJ5gury8RDFULfSMEBJsACAcjYMQTbIHK7PH0dgiTo5WGUHlNK3Vw4JedJRpSZoVRHcHGwxb62SkYcyTHuiqilSX9Ip3W8wAlSVCvKZFBUMLi7XPH7wjMZ5YSZt+OdSTz2K28T3ckSGk5kgkGnXCt2yIOIC+WJixDc1rWGRvtiNf016reKQBqY3UdLeJiSpdFzpi4kW92AAuoJuJm+zOS3lOLmwJFhexiLpTvR0nxMSNPpOcgCowAGzeIct/kSVJZbzJhwm4uxNrwHlZStKZVYjEUVyBnhxjEFbnsRcc8P69g9OjkynbdLFpUtZe5ApdZTgKuImzEEAgYGsxubRMyeb4nIuMIztayAKoI2EWAHsj2s06rgLeWqg4sMlAAWtbEcIuTbLPZc2tcwBPvDoPisWfUvhlJ61POsVOnm4jexAAsL7TfabewRbdSeG0vrV8wgOgIECBEVG6y8EqvUTfI0c21W32nxjpLWXgdV6ib/ALbRzZV7fafGKGYAN732kC1hsyN7g8d4I9Ih4x7V8SCfCPZGz2t5miZOj2FPcJd2UVDEqSVk41lS1Q29JjMMw5+giHjNyK8dGgejb9LYfNhj35pNHotM9m/8LxLUOj5k4gIBmbXJAF7qOk2LoDYZY15RCVTTNLKhxYlcQHNiZduw3wkgi4IIzgGUiUQTiJLbDfIgcluKE3xqTgK2JvZhx8dsxDhzvl6G8V/v2x7SubEg2N2vnYmzFQOfK2UA3E6d/B3/ABj3dpvInfEvJpGaXuhmS1F2UByQzFFVmwjCb+mvtMNcXR2CAY7tO/gHb8YVpwx3zEE7BbYBzQ53Q8tu6E5h3/SDc7blSoBvx7Tn0ckA3aQ9zubMM7kKuLM8ew2gGjc7S56WwdxIheQ29ueVj3m8Sn7Gqb23I32EXXI4sFjnkcQK87Kw2ggBDLo5dtl9pJPcCO+HCU6jj7FC95J8IkaLRzNOp5cwFROmS0vlfC7qp6GAa9jmLi4zhfSRV0E2W0soHwWSSsrAWBZADbFMQhWsznFvTcAnMItMjbmuL7ee9vZ282dq1G4bS+sXxEVT7w6D4rFs1D4bS9ceMBv0CBAiKjtY+CVXqJvkaOa6vb7T4x0rrDwWp9TN8jRzTV7fafGAjDUBCQwNrkggX2m+dueH1Pp1wrIs9rMgSxdxhUMj70XFvQC9UsOOG2ENmb7SBYgbMje4PGDsgj0injHQV8WBPhFRL0Wl5kuU0pLWZsd8jY7zitnbALdZr3ys0n1Lvhxm+FQi5AWRb4VyGe07c84jTo4D0bfobD3thgfNZo9Fpns+k8LxA5c75ehv6YJT7B1n85jyRLIJxElufIgdHFCczGpOErYm9mHHx2ziiy6Lc4VE4yTTjdCQxpzNBZT6A+2DEqtrZZAne3gmgpkhd0aosVw4bDCXONJinAL34xvsgMsxlFdE6b/B3/GPd2m8id/xgJPSDhmOC1sEtcgQMSykRrYs7Ylbbnxw0J3y9VvFIbGfN/g7/jC1OGO+Ygnm2Ac0ApTZp2jvMSQ0nPzO6HfMrHepmyzWnKdnFMdm9ttmUQzyXudzZxnmFUtn0WNoBpHO0ueYsE7iRASsyvmXRmexQhlNlUhhh35IAxPvV3xuThFzlBK3TquMP0YGIsVlJYFzkWIW+duLYLmwFzePXR4vey+0knuBB7YXSmUcfYoUj2ktfsgPZE3Eb2IAFhfab7Tb2CLjqDw6l64iooLG3Nle1+e9gBycXHzZ2/5P+HUvWgN9gQIERTDT/Ban1MzyNHM9ZtPSfGOmdOD6tUeqmeQxzNWbT0nxgGMjZ7W8xiYpp/0E5nlySAqyZZ3CUHMx/vboFxXWWkw3vfEUvtivpVKL8YubEZjM3Iy57w7OklZElhlAUsw4iWfCGLX2myIOhem9Q7l6OnthwyZhxC62RjiGWYyzGa9o5YTnUc1BieW6i9rspAuRcDPmz9oh5T6cmKZZVUwrud1Kqce5bnhLNa97oCDxX7W03SE1kZGIIZ90OQze1r82XJAMnO+XobxWPaVzYkG12bZzMQO4QVzvl6G/pgUvo/qbzNASlNQTpihltvrhAzoGmFfSEtWN25MtpyFzlDMOf7tFh0NM3kjKWVBfdJrOizKXExW8oE3uFtMFw12ay4WBMRNAZBlFZuFHuSGImG15bBRvARhEzDcWvnx52BqJh5TCTtvxzg357FbeJ7uSH+kzT4vq4YC7E4r5C4VRntvhL3/zQv3Yjn9Neq3ikAekBYAAEkk2AzJJY5AcsPPmM7buUzZf0G2A2J2cuXTDOgmlcLKc1bEDyMrXB7REt+3ZxcM+Ft9LYjCovuLY0AIG9sceY/MfbeASpKS0yT84V0lPMQMzBlGDEu6Wa3EpOzZD3SVK4kCZNlypcwTggErcwCjo7ZhCQQCm9Y5kMczlEbUV7MF3TAcLM5NrYmdsTlrHO59tgBfIWRqtLoyqgCIiksElByMTWBZizMxNgozOQGVs7gX7w6D4rFw+T3h1N1opciZiN7EAZC+08vui6/J5w6m60BvkCBAiKZ6YH1ef6p/KY5jrdp6T4x07pb7Cd6t/KY5irdp6T4wEfLlJbIWFzYLhHMb3B448ekQ8favvB90Gk7Pa3mMT+iNDiYk51eVMtILWLYGkviQ3cPawAD74XGRiorH7Ptst+lrebDHvzaaNhf2b/wALxIVUpVbCsxZmQuyBgt+MDGATbltnCRHLAISZZBOIktzixA6OKE3ZlJwlbE3s3Lx2zhw53y9DeKwKWYbEg2uWvbmYgdwgG4nzP4O/4x7u8zkXviYpaCfMAKAG5KqC6K0xlAJWWrEGYRcZKDtA2mGgc8vhAMjPmfwDt+MKyLnfMQTsFtgHNDndDymEnbfjnBvz2K28TAINKe5wFtuYVS2fYbQDSOdpf+YL3EiF6c70dJ8TC4ltYHCbEkA2NiRa4B4yLjLnEAzWgHHh9pJPcLd8LpTKOM+wBfEt4RI0WjmafKkzFmJjZVNkuyhyAGwkjLMXN8hc52tDrTUmSqS2lrMUzWmzQHlCXaWzlFl+mfR3M2HJMvle0BEILG3FxXtfnvYDm/vbc/k54fTdJ8DFL+8Og+Kxdfk24fTe3ymCt6gQIEQNdKj6Cd6t/KY5grfSPSfGOo62WWlzFG1kYDpIIEcv6VlMkx0dSrKzBlORBudogIrdQpIa9rkg2vtN+LnvD+n0wyrLWU4TA+63XJmmbFZ77cIuALWszZG5u1ZYTaSDxRUPGqPpDMVUTfYgqrvFzvhCtfejkjyqqGmO0xrYnJY2AAueQCGHzYcVx0G3hA3NuJz4+MAu3pL0N/THlL6P6m8zR5KQ7SSTBCGW+G1ib2PFy2tAWbR8kzBROrKFkNaaSyruVp7Td0a5vhwOLEbShAzFojwZLtNZmZLviSy4hhJcsGFxYjeW9vNEVjfkXvgbq/IO+AkalJYw7mzNkcRK4Re5sFF9mHDt47wzb016reKQnukzkXv+MGlA3u23ZlsA5oA9N6I6T4mJJ9JMZSyiAQMIJu2+WW01kUi9gAZz5ix2ZxEtKYE4WIvnxHP2iPNxJ2s3bbwgJ2dpp923dVSWQuFQtwFXBuai98TWABBYnMDiAEMq3SxmYMb3wKEABZtgzPHmTmTzwwFMu214WWWOSA9lPiN7WGwX477T3CLx8mn/AHhT/q8piloIvPyVyGevlMgJEsMXI2KCpAv7SIDdYECBEUIidMatUVUb1NPLmNa2Iiz25A62YdsS0CAzzSPyQ0D5ypk6VzYhMX24wW/1RWq/5G6pfsKmTM66vK8McbRAgOeKz5NdKy//AA+McsuZLI7CwbuiFqdW66XfHSVC24zJmYf5gtj2x1DAgOTJqFTZt6eQ5HsMFtHWbKDkQD05w0m6Ipm9ORKbrS0PiIDlgJzQMPNHTraraOO2hpT0yJX/ABgv+E9G/wDkKT/28n/jAcyYY9uOUdojp6Xq1QL6NHTDokSh/TDyVo+QvoSpa9CKPAQHLdPTPM+zRn6gLeW8StJqjpGb6FHP/VLaWO2ZYR0xAgMCovku0pM9KXLlesmr/wDHjiw0HyOPkZ9WByrLlk9jsR5Y1yBAUnR3yW6MlWxrMnEccyYQP5ZeEHoIi2aO0bIp1wU8pJS7bIoUE8pttPPDqBACBAgQH//Z;" vertex="1" parent="1">
          <mxGeometry x="-150" y="1194.67" width="132.24" height="295.33" as="geometry" />
        </mxCell>
        <mxCell id="0-I5_G3RzfP3J93G6mHh-51" value="" style="shape=image;verticalLabelPosition=bottom;labelBackgroundColor=default;verticalAlign=top;aspect=fixed;imageAspect=0;image=data:image/jpeg,/9j/4AAQSkZJRgABAQAAAQABAAD/2wCEAAkGBxITEhUTExMVFRUVFRUZFhUXGRcXFxUaGBcXGBgWFRcdHiggGBomGxUWITEhJSkrLi4uFx8zODMsNygtLi0BCgoKDg0OGxAQGi0mICUxLjUvLi82NS0vLS8vKy0tLTAtLS0tLy0vLy0tLS0tLS0vLS0tLS0tMC4tLS0tLS0tLf/AABEIAMcA/gMBEQACEQEDEQH/xAAcAAEAAgMBAQEAAAAAAAAAAAAABQYCAwQHAQj/xABIEAACAQIDBQQGBwQHBwUAAAABAgADEQQSIQUGMUFREyJhcQcygZGhsRQjUnKywdFCYoKSQ1NUY5PC0ggVFjNzovAkRLPh8f/EABsBAQACAwEBAAAAAAAAAAAAAAAEBQIDBgEH/8QAQREAAgEDAQUEBwYEBAYDAAAAAAECAwQRIQUSMUFRE2FxoQaBkbHB0fAUIjJCUuEVI2JykrLC8SQzNENTgmOi0v/aAAwDAQACEQMRAD8A9qgCAIAgCAIAgCAIAgCAIAgCAIAgCAIAgCAIAgCAIAgCAIAgCAIAgCAIAgCAIAgCAIAgCAIAgCAIAgCAIAgCAIAgCAfCYBGVt4cKuhqg+QJ+IFpAntO1i8OfsyybDZ1zLVQ+By1N7cMOGdvJf1ImmW2bdcMv1fNm6OyLl8cL1mulvfQLAFXUH9o2sPPWa1tuhnWLx9d5nPY9eMc5T7vpFgRwQCDcHgRLeE4zipReUyqaaeGZTI8EAQBAEAQBAEAQBAEAQBAEAQBAEAQBAEAQD4TAPN9p784lnbsAiU790lczEfaN9BfpaVFS/qN/cSwddb7Ct1Bds25c8aIjH3o2gwv25APNUQDyuFml3dw9c+RNjsuwi8dnr3t/MzwO9eMoku1U1RbVH1B8AeK9Ljrzm21q3M6qhHMm+RovbCwVJyklBL83T5+HF8EWmp6RcIBotZj0CqLeFywnXw2JcyWuF6/lk+ez2hSTxFN/XfhnLV9JVL9nD1D5sq/K83x2DU5zXmantJcoP69pEbX3+qVqZprQCBrXOckkdPVHGK3o3CtTcJVWs9F+5nQ2vUpVFNU08dX+xr2HQGJIUOlO9ySx4AetbqQNbXE4u/8ARWvazb306f6uGPFfvjwOotPSOlXjiUGp/p458H+2Ts2jshqLBWINxcFbkEXNtSOOl/bKG5sp0Jbr1zzRcW95GvFtaY6nL9Hmjs2b+0MG3rxOGJpIVy3uCRci/EDw/Wdx6N29Odq99cJP3I4D0nua1K6SpSxmK5Lq1zMhvZjG/pfcF/SdKrS2/T7zlJXt5zqPyXuRc909umuuSp/zFF/vAEC/xHvlZe2qpPehwZc7Jv5196lV/Etc9V80WGQC6EAQBAEAQBAEAQBAEAQBAEAQBAEAQBANdf1W+6flB6uJ5Zg8KgzM4DLTTNlPBjmVEVhzW7XI55bc5SRhFavkdxVqzeIx0cnjPRYbeO/CwumckpW2hUXD0qpZjnaqCWdmSoFYjIaPqKotaw6Ta6jUFLrn1+rgQoW8JV508cFHgsNZXHe4t+JX94aCitkTRbZrdMwRgPGwcj2TpPRqEI1qsktUljuTy/gjn/SOvVlb0YSfFyz3uOnxbOKhgGdgiLmY8B+ZPIePl1nWzrKEXKT0OTUG3hEiNhUgQr4lQSrN3abMllJDd8sCdFZrheC3F7i8X7ZUazGnplLV4evdh9UuPF+Js7GOcOXl+/wOTG7LNM2JVgeDKbqeB0PkQfIg8CCd9K5VRZWnc/r68TGVPdZopAJUok3y9tTzAc1vZgPHLcSPtBwlaVVUWVuyz4YbNtrvK4g4PDyse09KxNbDNRp16wIpmyUkQsQgUtcHgL6AG32dCZ82qTt5UoVaq0eEks6fXPwOxhCvGrKlSevFt41z9aeJFbxUBQq5V1BGYCxGUEmy3vr5yuv6at6u7Hg9fAn2NV16W9LitPEp+2KYYtUvaxVbeYJvf3fGdP6O180HFLm/cjk/Se3/AJynnkl5s37Pw5KBraAA3uOBNgbXvYnh1tOgVVZxnU5mdvLd3safWO/XkW7cmnauT/dv+KnNF9LNJePwJOyYYuJP+n4l3lSdEIAgCAIAgCAIAgCAIAgCAIAgCAIAgCAa8R6rfdPyg9XE8c2dj1S4cFkdMrgetYkEMt9MwZVIv0tznOU6iXHgzv69JzScXiSeV09fc02iUxO0ML9Ho0i7VRRao2UIUNTOxbK5OiLrY5SxPK3Gb3Vp7kY5zjPdnPX6ZChSuO3nUSUXJJZznGFjKxxfTOPWRKYk1arVHIu2Yk8BckaDoPCdF6MTlKdZ/wBv+o570phGEaEY8Fvf6SY2U2VHdMh9cHMaQ9RaeWwqEftVixP7i+E6S4W9JRlnlwzzbzw7o49bOVpvCbXw7uvibqFUirSXNQXuUQbdjcg0lzWyAmxufCx6TCUU6cniXGXXq+rMot7yWVy6dO404rFZqAL1FqWQMAC517d6YIuoFst169wcheZ06eKuIxxr3fpT5N89fX3mMpZhq8/7tEHiK9M5NbHOp1nm0oyjaVf7Zf5WZ2bX2in/AHR96LPs3ep6VMU2RagUrkzWGQDkNOPQ8p8ut9pTpU1CUd7HDPLyO4r2Mak99PGeOOZEbW2s9V2qOxtrYE6KL3CjwF5FrVJ3FTel6l07iRSpwow3Y/7ldr7WpulRdTmK5SACO7fib8DOx2FbTpUlJ9X7kcht+5p1KjguOF733kqdsU2R8qtdyh1IAARSoXTkDqOsuqNGcXFtrTPmyhubmnJTST1x5L4cfE2bI25Uw7B6WW7BlOYXFiVN7X46SJt6rOnaxcHh73wZo2bJwuG10+JZaW9OKPFl9iicFU2hecp+S+Rf9rItWwNr9utm0ccbcDw1HvEuNl387jMKn4lz6r5m+E94l5bmYgCAIAgCAIBXtvb54TCAdo5N+AUXv5dYBFUvSls08XqL5o0A7aPpD2a3/uVH3gRAJDD714F/VxVE/wAQHzgEjRx1JvVqI3kyn84B0CAIAgCAIAgFE2z6O87FsPiOyBJJR6faKL8kIZSB4G8gzsKcpZ4FtS2zcQiovDxz5nFT9GNX9rH/AMtBR83M8Wz6Yltm5fD68iH3m3YGBake3esagqDvBVC5Snqheub4CdP6O0IUpVFHnj4lHte6q3G46jzjPwNOxcdSuada4Vs1mBtlLrkbNodCMpHRkW+l5eXVKpjfp8V8HlfXRvngqqbXCX19fAlzgwrq+SllFHSq2IBphlXsk7wIuLBX62vpcWkPtm4OOXnPDd11e89Paume427mHnC4cc6dP3ITbm0qRtSoABFsC4zd/Lmy2DEkAF3PiXPQEzbWlUWZ1Xq+WmmcZ4eC9SNdRx/DHgQVSqC9MMSAXUEqAWAvqVB0J6XmV7BTt5xfNNeTM7SLdeCXHK96JNjgOdfaLeX0dPyM4dbEpLp9eo7/AOw3b41I+fyK/WwhdiBWYqWOXtNNL93MQSAbWvykunsq2jxI1xsy7cHu1U30w/fl+4yw2x8YdEwmIYAkXWkzLobGzAWOo6yc61On93GMHF1rCvGo1UX3uZzUtq2FhTcnytNf8RopEaWzpt5bRNbCoVqjBits2iL+Ik+z4Sh2teSud2lBacV3vBJo2apPTiy5UqagWFieJa1je3DjwnPVVTxuRw+/n4eBK04Ise6C/WN9xvmklbJhu15P+n4myktS2ToTeIAgCAIAgERvQzdhYG2ZlUnwNyflaAeAb64hnxlXN+ycqjkACbAQCDgHyAZNh2tco1vIwDFWK8CV8riAdVDb+JpGyYisp8Ha3xM1xnnkbJQxzJ7ZvpH2lRYHtzVAOqVAGBHS41HnNhrPd92ttpjMNTxFPQONV5qwNmU+RBgEpAEAQDl2ljRSTMRc3sB1P/gMEW9ulbUnUaz0XVkA+8dbkiD+Y/nPcxOZlt67fCMV7X8UVbfWrXxKo2UE0i3dUWJDWva51IyjTzllsy8hb1HvcGZ0dqVa0sV8JcsLn36soFfHqpytdW+yVYH3EXnSfbrf9RZxpyksx1Pi4jN6qVG+7Tc/lMXtG3X5jP7PPofarVVFzQxAHAE0nAJ6XI8DNb2nQ5MzjaVZPCRu2Ps2vWqq702RFYZVIszteyqFOvEjUytuL6VVvGiL3Zey5RqKrVWFHXXu+XEnTsKmGyviaaVL6rkZlU9GqjQHroQJB7V4ykdH9uqNb0abceuUm/UcGL2e1N2RxZlNjz9oPMWmSnlZRvhcKpFSjwZ6l6OC30eoCSbVjbwvTpn5k++RLl5nkodsPNdPuXvZ4lg6RZrgX15jTjz8Jz8pJNIo8N8C67Kq5AwNraZ1FgSbm3ZG2i9Zpq1KWHvNcdVnV/293UOnPDbi8c9Pcb6lexsGDaDUcNRwlZVpxjLCefAjvRll3ErXquP3G/Ekn7IWK8vD4m6hxLvOiJIgCAIAgCARW8o+oJ6Mvzt+cA/P++NIfT6ilioL6sFzEC19F5mECHrogpsVNU1BUIRWXQ082jGyizZbc/ZNu5HczrnoR9+r2uMLcxx558M/Aj+3fmnwImvDN+ST2finZR9fk7wXKWbQaWNumvS2nEaTw9MsbiqwDBqiuoIBysjXvaxA9a3j4TGWqZ7F4aIXEV1zG15go4M3LJKHZtfT6phmprVX1dabAkPa/Cyk9RbUSTSg5PKRDuKsIJKTxk9l9A9a+AqL9nEP8VUzGRuisHpMxMhAEAiN40uqffP4TPGVW2I5oLxXuZBNhzlzWOW9r8r9J4c72D3N/GnDJ9TBAoajHKvBOrnw8PH9NfcG+naJ0nVm8L8v9T+X+/BaxlOn/wCrwv8A1RCN+z4fz4no156dSVzfqpaghP8AXD8FSbaP4ix2Ws1/UysbtlqmJp5UuFbMx5KAD3ifMiw5mSaukHkt79xhby3nx0XeQGK2HjFqsnZE2J+sNhTtf1i50A59YVSGM5PI3ls4b296ufhg4ts7SU1bIQ6oqIH+3kUAt5Egz2EWlqbLajKNP72jbbx0y+By4zHOXARnUEDuqzWJt0HE/pKPasM1ksZ0+LFd7kuJzu9QGxZx4EsD7jKzsYrTd8jUqraymTFFW0Nz7zNLprobFNneMDia5+oo9oQPrLMiDiQrd4jU2PDpPKNnKrJqPIotq2kE4zho3nJd9yd3quHDVK5UVHFgim4pre5u3NiQOGmkurOzVDL5srqdPcLVJpsEAQBAEAQCO3hF8O/8H41gHgm+gttFvEj8Bm2jrNGM+Brw2BqVL5ELW42HCWMaTZAr3lGg0qk0s9RVwLUyDVpuq3F9LX6gEgi9rzJ0X0FK7o1ninNPwZG4+kpC2VibngLjLp8bzF0kiVCNSf4E34Jv3HFXoIC1gw73czKASuvrG+h9XhfieHPF0ovgEqsEu0WH6/LODmx1OmGNiLciQFJ9l5H7BPkbN4+0hYd1iNLaEjTpoeGp95mao7vDQ1TxLisnr3+z5V+oxSdKqH3pb/LITNyPWZiZGLuBxNpqrV6VGO9Ukku89Sb4Gv6Un2hIT2vYr/uoz7KfQid4WLqgp6kNc620ykc/G01vblgtO08n8iu2nZV61FRpxy893R9WQ2H2i1ElKiZkYd5G4HxHKT7e4pV471KSku4oac6tm3TrQ+6+MX71yOLaW02qtciwGiqOCjoJvI9zcSrz3nolwXRFfxm0Gp1qVRAC1Js9je3gDbjNkIJ6s6n0X2F9szcVJYgnhY4t8/BLPfqSLb/437ND+R/9c29nDv8Ab+x3S2FZ9Ze1f/kjtsbz4rEoEqdnlDBu6pBuAR1PJjM4xhF5RKt9lWlCW/HOe9/sc+xtsV8O5dGANuB9Vh9lh8puxTqLdZturChcQ3X/ALELtDbC1XY1WcszXYkmxPUgafCYJqOiIapxpfdSSxoar07X5dbz3ePXNLiZYDGLZ2BIJIVTzyi+ax5X7vulNe1ouo8PXCXv/YrrlqtUTXBe/kWjA7Bq1qKMSp711zE3yEDQmx5jh4zR2U6lNP6wQHcU6VVr3dSRxOwqlJDUfJlFuBYnUgDTKOsj1LadOO9LH16jfSu4VJKMU8/XeT24Vs1WxHq0/m83WGN6WO74mnaWd2Ge8uEsiqEAQBAEAQBAOLbI+oqfdv7iDAPA9+1tjx4hPiv/ANzdb/8ANiYT/Cyx7luqJUD6Xf5LLxQlj7pyO3KcJVabnww/L60JLeulTqUCtJgTmBHHgGtr5gzxKf50adnUqNO7i6Us53vZyKjsmjZ2R1bMSgVRxJJNgOt5jXxFJn1L0YqSTrYwsKLeeiydG+2FoLSy0751IzAtmIIfKc2gCH90cgOsjUJuctfrQm7YnWq2Ep1FpmLTxjjjh10fElfQ9TpsuIDgXz0tbXNiGsPK4PvnIeltFfaLdSk0pZWnJ5WvmcjT3WvvGz0x4CktOg6Bb9oVLBQtwyFracR3PnHo2uyuqtKNVzjup+vONNX1+sCok1oYf7P72fGJflSNvIuJdSf3msc2bUtEz2SeHpD7QYmofCwHuB/OcP6SOc7qMOSisLvbf7E+2woZNfYt9lv5TKb7Bdf+KX+F/I29pHqj41JhxUjzBExnZXFOO9OnJLq1g9U4vRMru8Wzq2MYYekyKyDOGcsNOBF1BOtxp4S/9GoONaTT4p59qwV207WNemlwafEi6fo4xwN/pNEeXan8hO0wik/hS/V5HDjdkVKFR6dV1dwQcyggWKqQLGb4cDutgQVCyVNcm/ea6OAZ2VFtmYgC5sLk21PITJvBbzrxhFzlwRa8Fu3hKDJ9JqCrUZlC0xcICxAF1GpFzxY28Jr3pPgU1XaN1cRboR3YpPL56Lr8te8qVbCd0zdk6CNXVFo3f9H+z62Ho1qtJmqVKas57WqoJPGwDAD2SPKTycjf3VVXM0pPGWY707h7Po4LEVKdAh0pOyk1KzWIHGzORNdST3GRY16k5JSk2so802fh1IueXLlKOTLlLCPQ9jbew6UUVnIZVAIysdfO0n0rulCCTfkVlW0qzqNpGzb28VCpQZEZixy2upA0YE6nwE1XN3TnTcY8f3NtraVKdVSlw/YjN2t6qODZzVDt2ipbKAbZS3G58Zt2LbSrTqYeOHxNO3LlUY08rPHh6iw0/SbhGNhTre5f1nQfw2f6kc49qRX5H5Fr2VtOliEFSk1x7iPAjlIVWjOlLdkTba6p3Ed6HLinxX17DsmokCAIAgCAcu0xejV/6b/hMA8I37W20KR6mhx1GpUTbReKkfFe8wl+FkngNnV2Zu909QCxHMkHnbQeUubq+oWkFKrNRT6kF2SuvuuG9g0bTpYqkGJFQpzdgoyknll5cNTzmFrtWyupqnCtGUnwS5+Rr/hStn2ipY7/AKbISlTqVKiqpYk3vZcxI01P6nrJ11Tp7n3tCTa7VqbPk6sJqOdHnGH7SUr7KdbEglLHPmW2txbqOshUo0t7R6+JKr+k9S+h2DqxafJYy8am3ZeI+jXNPKocjOSLjS9ja41FzwmjaOxqO0oxjUTbjnGOOvHr3ENuKjqdWJ2u1bulkYDXuqV11GtyeR+Mg2no7S2fN1IKWXpr7eiEJR5Mz9DLZdp41PtUyfdUB/zTVVWKkkTY/hR7VMT0iMW47UjxX5LOQ2xNLaMFj9P+Ym0F/LfrMqrA+sQrXNr/AGfHx6SNc7k9LiSjPLw8Z+4uG9/Vj8PVaPijKKa/Csr4/XE+O4Ckj1LC3ncXv+9FaWLabpr+XiO7/iW9vf1dfVjQJfeWeP15ENhto0qeLZ6tRKailbM7BRxXS5kz0bhKpXe4m8p/AV4SccJZJU724D+10P51nbfYrj9DIvYVP0soe9O16dTE1GouroclmXUEhFvrPOzlT+7NYZ02yqLVv95c2c+wajtXpkBiA4uQCQvPUjQTyXAk3ihGhJPGqJTd9cIKa4ivim7RWD9kCL3RrqCpBZybDXhr7Z5Jy4JEa8ndOboUaS3WsZ8V1zhYK5Vx7BSdDpzmwuVRi2WvYG/lGlhqVNqdQlKagkZbEgcteEo7jaKp1HHdzjvOD2hLF1UXezvrb8YWqjU3o1Cjqyspy2KsLEet0Miy2v8A/H5/sRFMpibsLcilXIUnuCqmoBtozq2vnlEqam1I72ezeO55fuXvLCntHlJExS9HWIIuMTRt9x/9UuqFvTuKaq055TNv29r8pSsQtdaj0gEJR3S+oBKsVva/DSWEdiZSk5+RClt3Et1Q7uJtxW79Qa5jUY1OzOmXv2BAXU93WXGz4Qt4OKWNM56oqNozqXE1JvOu7jozYuy+zZhfNbS/U8/ZeWVOo5RUmsFbUpqMnFPJfvRnTKmqOWVdPaf1kLaTzCPi/gS9mRxVm+5fEvkqS5EAQBAEA1Ypbo46qw94MA8I9JS5cRQqeCH+RhM6f44+K95jLgyy7l47PWq3HdyJlHjfUk+23skb00oxVCjJ/ra9q92hlsqTlOSXQsO9wpnCV8tr9m/A9FzA2949k5bZyox2lbzhhffS0emuNca44tPXGVpxLC4VTsJ56Mo+6NEI5qNqCji38Saz6htV/wAtLv8AmcNtOMXbb0lnDXxLJt3sXoVFpm5KMbkaDS4BU8Tob8tfbKW3eKsfFFVQ+zRuafZZbb48Md2OvXl0zxKbhezUAVAMoIDWAFiSLkDkLa+2dXb77k9zjg6arjdWep344UARkChiCe6QRYGwOh5j5TGr2rpPe4ZR5S3VUWO80+jGrl25UHJ6L/hptOVuVitJfXAt4fgR7eak0mRXtr1bVfvAEezQ28rfETjPSKlONxGrywte9Nk22kt3BqGOf7b+8ym+2XP/AJZf4n8zfux6I11cY5GrG3iTaYzuK1Rbs5ya6NthRS4I8s362qlZ2RDmsV1HDS97f+c53HopaVKc+0ktMPzaMd7UrOGwRbW6qAQMzGwvxsOpncSrKLxht9wc0ngslGk1L6txZrA+fdHA8+vtErrr70t5cGXuzKsZU91cSx4TfGvSw/YItNQAQHscwBvfnbNrxtIm6m8mdTZVKpW7aTb7uXzwV/tpmWiRz4zGhV14ngOZ8olJRWWYVq8KMd6TJTZuCY0xcgNYd0nW9pyk6auqs5QktXonxZ8/uqirV5zXNkhQ2ZU4W1PiJi9l3Hd7TRussDYRkAzAD2gypurCrb47TGvQwccFv3cYlGub2e3/AGJ+svvR/wD6V/3Mzp8Dw3bWMYYuvY2tiK3/AMjTt6UV2a8EUtdvtJeLJ6htFzTNao3MpS0A77CzVDYalV59TPHRhv8AZxXe/DkvWzNVZ7jnJ9y8XxfqR1bXwq0qZZQy5aoRSST2q5A2cX8emkW1WVSWG86Z8Hnge3NKNOOYrGuPFYzkn/RjiCz1gbaKvzMw2lFKEH3v4GWzW3Un4L4noEqC4EAQBAEA+MNIB4h6ZUs1Bh/Vt+X6T1PDyDDB4OooFWlUNNmFyABax1sL6W9hnS3lrQvIdjXgpRzz69Sojcu2/mKW6Z7Sr1yrL2tZlN8wYUwCvmush2vo/s+hUjVjSipLVPLeH63gxqbcdVdn2uc6cvkRK45qRW17EnQcfZfT3yzvFSVJyqtJLmxb28ruSoRjvb3Lrz+GSRw+0VdSC1XMdLNksfO3KUdO5sO0W7OPdx+JYy9Frigu1+zY3dc5T8t5nDtUropDFm+za9hz6e/rL6jvt/cepDp0Z1ZqnFZbNezNlLWfswaqgi7MxT1RyWw4kkDXS15Xbe2lW2da9rU+828RXLPHXuSWSyobGrOeJx3V1yn7mW7YmxKGFxC4mmKhqKpUFnuCCMuosOXynzOrt+8qT33u+z9y6js2lFYTZaTvE/2F+Mw/jl3/AE+x/M9/h1PqzJtp06q2qopAOoYBgOhF5nR27WdRRrxi4vovm2ap7Pa/Azd/uzD/ANRS/kX9J1PYUv0r2FbvS6g7Lw39no/4afpHYU/0r2Hm8+p5d6RzTpYwIlOmi9jTsAqqB3n5AS8sIfyvX8iZbrMfWdew9kUKtGkWJBN3uuUasFH2eHdEi1rqdOtLGOns/wBzXKo1J4Mt68BSo9iBdwykWax/5YUDlxsZNsZdupKaXH35NtvJyyzLcPA4etXqq9FHApggOoYDvDUAzTtClGmlurB7cVakcYk/aXj/AIcwX9lof4afpKzLI32mt+t+049q7GwtNMyYeirZl1WmoPPmBeV21ZNWsn4e9GqrVnJfebZG0MMCwCoCbiwsNdZylvVqutHcWXlaEZNkwuIpK1sjBgbWsL36cZ0stsUYz7NxlnhjC4+0276NW0HbtCCLWA0PHrylHtW4qTuGpRxjGE/by0MJN5LJu9V7j/f/AMiS32A82r/uZnB5R5VvjuZi0xVWpSovVp1KjVFZBmIzksVZRqCCTrwItOvoXMNxKTw0Vtxazc24rKZwDYmNtrhcT4Dsqht8JLV1R/UiO7at+lmY2RjNB9FxPQfVVdPLu6TNXVD9SMHa1v0s9H9HGwq1BKlSuuRqmUKhtmCrc3a3Am/DwlZfXSq4jHgviWNlbOlmUuLLnIBPEAxYwDW1SAYNXgGP0iAeR+mZO5QP7pHwM8fAGjYGPUqA4vZLg9RoAPj8J17g2k48zl7/AA6TTXBlgxmIwzU7rlBbTIDcjMLcfZf2maIwrqTTz4kGcKDipwSTzw5/WnmUY2D0ywuO9cfwzDbcd6wqeCfsaZ1fo5NradLHV+cWviWCtWw5orlFO+osLBx6li3Ph2l78wLT55KUYpP/AH5H0vs6+/JSbx5c+Hlju4lbONXtxfvBVIFubEa69NJ9QoR1XefNdkz/AOLis9V5F6wVTBv2f0dyz9l9aCuXLpT0vlGbvZuZ4ziPS7t5UYqotN/TXul3vu6HT0Z1N+W9w5Evg+wAIqIxJOhDEWFhyvrznI2v2WMd2vBt54rl5o9q9s3mnLHcZY7ZwUB0bNTbgeYPQxd2EaaVWk96D8u5/XcKNy5NwmsSRC7XUimZEpU8S1N0pZRI7exlQMtNSVAVSbaEkjr0tPrGy6FN09+Syz5nt+4qOoqMXhYy+/OSI7Sp9pveZa4h0Oa7LuPhqP1PvnuIdDzse420cQQDm4WuD0trNVWlCaw0ZQVWlNTpNp9xS94drvVqZXZbUywWwto1jrrxsBNNChCjnc5n1bZ0+0t4VGsOSWfHn5ll9FeFcvWrWPZlVRWPBje5y9QLcfGVu0asZNRQuZpvCPRZWkUj9u0Wai2UEsCGAHE2OoHU2vpIl9RlWt5Qjx/fJjNZjgqNLHi/EXHjqDOMdKUHnVNEXLRuGLBN76+cwcZN5fEZMq2NGrM3mSdYcZ1JZeW36z3ebLZu3UbsszKVzMSAeNrAAkcr2v7Z1+yraVvb7suLeSRTWETlOpLIzOim0A2QBAEAQDXUgHLUaActR4BqzmAee+mBL4egejke4EQCubCZbUi3qlEzeRUXP5+ydhTk3bxkui9xQOk6tfslHLbxhcXqSONWlrlapYXA9UA+JN72nkKkvzNefyJkvRy9/Jby08PmROLTNlAGpNhb2WtN1fs1Sk6mN3DznhjGvkVFrOsqsezyp505POdPXk6v9yvksEYPzbtND/Db85xz2lsOMspL/A/ijtJ2+3qkcSqP/H8ivJQZnVAO8TYDhrOmuLiFOg6zf3Us57jloKUJ44NPzLZuzhGpVmJCrdCNGZv2l01nzrb21ad5Riqe9o+eFyfRs6bZM5SqS3ny655l7wNR0pB+61JqgVkOpN9L8OOnWVtn21KiptpwlLDi9c8izrbk57qypJaM3YdbNiaF+6FZh4FeHzHum+hS3HcW3JJtd2OHw9hrqT3lSq88pe0rOOxRy8ZUUpSyS5E1taleofup+ET6ps+WKH10PnO14b10vBe9k6N36JY0+xdVGorZwS/ha5PM8uUj/bKiW/vpvpjgTv4bQlLs3TaS/Nnj558uRHrsrDE/04TNlFS9PKTfLe1s2XNpmtaSPtNdLjHPTXx8M9xE+xWjlwlu5xvZWOOPHGdM4wR20cAKdR0FyFuBfjw5yVSrOdNSfMrbi3VKs4LgmSezcDSNJCaaE5RqVUnzvaUtw/5sjq7LS3gu47wJoJJ9gCAanw6E3KKT1IBnmAYHA0v6qn/Iv6RhAU8FSU3WmgPUKoPvAhRS5A7KYnoOqkIB1UxAN0AQBAEAwqCAclUQDlqiAaYBRvSyl8HTPSq3xNoBVN27ZKJPAKL+xT+k6qj/ANFH+1Ffs2TjtaGP1PzTXxLbWq4daIP1ZJF7AkurZyLHSwGUcP8A9lcpy3ufw4fM+jxVd1mtUk/VjHt4lXoqO1ToKg9wYfpLS4jv2Ul1g/8AKfKJN09qy7qn+sv2GxuFNJzUbLUW/ZqAbN3RbMQp/avznyqFWhKk3PSS4L1c9Op9IqU7hVUoaxfF+vlr0PL2IXE5hwFY+7PPoMoOtsndS1dP/SfPbl7t7UX9T97JqrthFcMf4uHDqNeonz+Vu61JRitS4srhUZ5fB8TeN58Np9bYnh3WH5SNLZN5T1dNouo3tCfCSJY1KouclcX4/V1RfzOXWY/Y7tZe7LXj3+Jl21J80cn+78VXdESk6LfvVHUoqjnbNYsfKTLTZk28zWEaK11H8rJfb9cLibch2fuFp9C2dH/h2l3+44PbEsXcW+kfey6rvPgz/Tr7Qw+Yla7Kuvyl2tpWr/OiIFTDFgPpVDsxYXtarkD5xSzXtlzc7XtJbVbGdyWfLOMZx1wQF9n3sdrHd/8AtjOd3OeGe4r229oA4isyPdSTYg6Hu8pYW9PFGKktcFNe1VK5nKD0b+RZdiPfD0j1QShuf+dLxOssf+nh4HZNBKPtoAtAPhEAQBAM0aAdNN4B1I8A3K0AygCAIB8MA5qqwDlqCAczCAU30opfAHwqD4sDAKNsE3oJ/EPczCdZYYnaxT6fFnOXVSdG6c4PDTTT6PRkn9Ep5daj3I4BRYG3W/C9p6rSOcbuniT6vpTtB/8AefqjH5HNVp2Cjz/KTlFJJI5x1JTlKUnlvmbKlalzRz51WH5cJWfwy3jruQX/AKotP4rcPTfn/iZFYjIDcZQL+re9vCSpbijjJGi5OWcEXia6XuEpj2E/MyqqKK5lpSlJ/lI3F1BYEcj+RP5SFdtOC8SXbJqTP0vh2zU0PVFPvAleTRaAVfezY9V2FWkpbSzKPW04MBz42sNdBLOwu40k4T4FLtTZ868lUp8eGCsNhK440a3+FU/0yzV5Qf5kUr2dcr8jMClQcadQedNx8xMvtNH9SNbsbhfkfsPtLC4moctGk7E6ZiCqLfmznT2DWaq15SgtHkkW+zK1SX3otLvPSNn4bs6SU73yKoJ6kDU++c/Um5ycnzOspU1TgoLkdNpgbD6IAvAEA+EQBAEA+q0A6adSAdNN4B0qYBlAEAQDTVEA5KogHLUEAqnpGS+Aq+DqfcAYB5ZsSs/ZqoNu8R72P6y+s60oW2emfiymuqMZ3GOuPgi7f8LOVzGpUte1xoLzlJ+lt84b8KSSfVt/FHQx9GbHe3ZTbfdhfBlV2vhTSqMmYnKba+QP5zq9m3c7u2hWksN8V4PHwOav7WFrcTpQeUseaz8T1LZ+5OByIexzEqt2ZnN9LkkXsPdPmdbbe2a1SW7VUVvNJYWmP/VvGObepfUrC2jFfdyeZ75bOWji61OmuVAVKjXTMitpfxJnebAuat3s6nVrPMtU34Sa5dxS3sI0rhxjotC2LuujURVWwUkgAIDwvxN/CWFW5jGe5u/XsK63s6tSmqrm9c9/XvPKtr4fKz24B2t5a2+ch3cMRb7y5s6m9u+B+htg1s2FoHrRp/gErSxO0wD4YAgC8AyVbwDctGAZdhAMGowDUaZgHwKYBsFOAbBSgGfYwDHsIBtSlANyJAN6iAZQBAEAxcQDkqiAclUQCtb9pfAYjwUn/tMA8l3dS6X6Ofkp/OdBs2n2lu13tFJf1OzrJ+DPT8PvKiAhmVgQbKStgetrcP15T51bW+0IOVN0Zy7sPCfsx9aHc1qtlJRn20V35Wq9pTtr2qVC41uRr1soF/hPofo9aVqFhCFZYlro+OrbWTgtuXVKrfTlReY6arhwL1gd6AKVMClWYhVHdUZbqLGzEi+onDXHoptJXNXs6kFFyk1l66vK/K2uXwLejte37KOYyzjp++Ck7zV+2xDuUK3yjKbE6KBrbnO42DsyVhYxoTlvPV5XDV55lFtC7Veu5xWFocFXFPl1qUlH77G/8okyo93kR6VtGXP1FZ2jVDBu8pYkHQ+Osr7ydN0XFSWf3LazpzjUX3Xj9j3Pc182Bwx/uU+At+Upi3JmAIB8gGSiAdNNYB100gGzs4B8alANbUIBh2EAzWjANi0oBmKYgH3IIAyCAfbQD7AEAQBAPhgHPVWAclQQCv72pfCYhf7v9RAPEdk7UFFWBUtdr8QBwA/KWljtCNvTcXFvXPkiuvLKVeakmloSFPfCooslKmLczZieeugvMqm1d553PN/JGuGzMLG/5L9zgxO8Vdjc5Bck6Lbj5kzD+LXHBYXq+bPVsi3Ty236/kjSu0sU+ivUI6IP9ImiW0LmT1n5L5G+Oz7ZcIeb+Ztp7IxtS1qddr8L5hf+YzRKvVlxm/ayRG3pR4QS9SOqluTjDqaap4uQB7xcfGR9+LfU3uEkuBDY7CmlUamxUlTYlSGXgDow0PGZmB716Ne9s3D+Cke5jB6WY0IBg2HgGHYQDalKAb0SAdCCAZwBAEAQBAEAQBAEAQBAEAQBAEA11RAOOqIBC7ep3pVl60vkTAPzoIBZMBtTZ1OigfB1KlYDvuagCMbnUAhrC1v2R+cHjTfMzG91NAexwOHQkEXYs9vYuQXjAimuf16jGvv7jiLK1Kn9ylT+bBjB6RuL3lxtT18VWPgHKD3LYc4BF1nLG7kserEsfeYBtwmEeowRFLFjYACAfpHc/Zf0bCUaJ4qve8ybn52gE9lgHw0xAPnZCAfRTEA+hYBlAEAQBAEAQBAEAQBAEAQBAEAQBAPjCAc1VIBD7YotYOq5ioIZRxZWte3Uiw+MA8R3j3cqLUZ6Sl6ZJ4DVT9lh+yw6GARtDd7FP6tCofHKbe+ASWF3Dxz/ANHbzI+V7wCYwvotxJ9eoi+Vyfdb84BM4T0U0h/zKzN90BfneATmC9HmCTjTLHqxPy4fCAWPZuwqFE3p0lU9QAIBMU1gG8QD7AEAQBAEAQBAEAQBAEAQBAEAQBAEAQBAEAQDBlgGlqUA53wak3Ki/Wwv74BiMGv2R7hANgoQDIUIBkKEAyFCAbBSgGYWAZQBAEAQBAEAQBAEAQBAEAQBAEAQBAEAQBAEAQBAEA+WgC0AWgH2AIAgCAIAgCAIAgCAIAgCAIAgCAIAgCAIAgCAIAgCAIAgCAIAgCAIAgCAIAgCAIAgCAIAgCAIAgCAIAgCAIAgCAIAgCAf/9k=;" vertex="1" parent="1">
          <mxGeometry x="209" y="1280" width="347.84" height="272.52" as="geometry" />
        </mxCell>
        <mxCell id="0-I5_G3RzfP3J93G6mHh-52" style="edgeStyle=orthogonalEdgeStyle;rounded=0;orthogonalLoop=1;jettySize=auto;html=1;entryX=-0.004;entryY=0.522;entryDx=0;entryDy=0;entryPerimeter=0;" edge="1" parent="1" source="0-I5_G3RzfP3J93G6mHh-50" target="0-I5_G3RzfP3J93G6mHh-51">
          <mxGeometry relative="1" as="geometry" />
        </mxCell>
        <mxCell id="0-I5_G3RzfP3J93G6mHh-55" value="" style="edgeStyle=orthogonalEdgeStyle;rounded=0;orthogonalLoop=1;jettySize=auto;html=1;" edge="1" parent="1" source="0-I5_G3RzfP3J93G6mHh-53" target="0-I5_G3RzfP3J93G6mHh-54">
          <mxGeometry relative="1" as="geometry" />
        </mxCell>
        <mxCell id="0-I5_G3RzfP3J93G6mHh-53" value="&lt;b&gt;&lt;font style=&quot;font-size: 17px;&quot;&gt;Infra&lt;/font&gt;&lt;/b&gt;" style="rounded=1;whiteSpace=wrap;html=1;fillColor=#f5f5f5;gradientColor=#b3b3b3;strokeColor=#666666;" vertex="1" parent="1">
          <mxGeometry x="46" y="1260" width="120" height="60" as="geometry" />
        </mxCell>
        <mxCell id="0-I5_G3RzfP3J93G6mHh-57" value="" style="edgeStyle=orthogonalEdgeStyle;rounded=0;orthogonalLoop=1;jettySize=auto;html=1;" edge="1" parent="1" source="0-I5_G3RzfP3J93G6mHh-54" target="0-I5_G3RzfP3J93G6mHh-56">
          <mxGeometry relative="1" as="geometry" />
        </mxCell>
        <mxCell id="0-I5_G3RzfP3J93G6mHh-54" value="OS" style="whiteSpace=wrap;html=1;fillColor=#ffcd28;strokeColor=#d79b00;rounded=1;gradientColor=#ffa500;" vertex="1" parent="1">
          <mxGeometry x="50" y="1360" width="120" height="60" as="geometry" />
        </mxCell>
        <mxCell id="0-I5_G3RzfP3J93G6mHh-56" value="Application&amp;nbsp;" style="whiteSpace=wrap;html=1;fillColor=#f8cecc;strokeColor=#b85450;rounded=1;gradientColor=#ea6b66;" vertex="1" parent="1">
          <mxGeometry x="30" y="1450" width="120" height="60" as="geometry" />
        </mxCell>
        <mxCell id="0-I5_G3RzfP3J93G6mHh-59" value="" style="shape=image;verticalLabelPosition=bottom;labelBackgroundColor=default;verticalAlign=top;aspect=fixed;imageAspect=0;image=data:image/jpeg,/9j/4AAQSkZJRgABAQAAAQABAAD/2wCEAAkGBxITEhUSExIWFRUXFxgXGBcXFxcXGBUVGBgWFxcVGBUYHiggGBolHRUVITEhJSkrLi4uFx8zODMtNygtLisBCgoKDg0OGxAQGi8lHyUvLy0tLS0tLS0tLS8tLS0tLS8tLS0tLS0tLS0tLS0tLS0tLS0tLS0tLS0tLS0tLS0tLf/AABEIAKIBNwMBIgACEQEDEQH/xAAbAAACAgMBAAAAAAAAAAAAAAAEBQMGAAECB//EAEcQAAEDAgMFBAYHBgQFBQEAAAEAAhEDIQQSMQVBUWFxBiKBkRMyobHB8BQjQlJystFikqKzwuEkM3OCBzRDU9Jjk6Pi8RX/xAAZAQADAQEBAAAAAAAAAAAAAAACAwQBAAX/xAArEQACAgEDAgUEAwEBAAAAAAAAAQIRAxIhMQRBIjJRcfATYcHRM4GxQiP/2gAMAwEAAhEDEQA/AHlakgKtJNHoeqF61nkUJ6gXbG2UtendQ1HQEM2FBEFYqFY6qoMZjWU2OqOs1ok8+AHMlZdG1YB2gx7mNyU/81zXEbgxgBzVCd3AcyvPHtD3nKCGxPeiYAEkkAA8Zj2oraOPdWc5zwMzjOl2gAhrQ7c0A6bzEreIGWmynOpLnCBM6Nl2uh00nnpLN63fYqglBfdgb3kgAkw2YHCbnzROHwnEK69kf+H1XFMZiCwuo5u8Gua1zwNWtLvKUvqbOcw5XCCNeR3pmDFqe4rPmcULsBhQCHEabv1Vkw+0TxSk0lgsrPpUiH67uy24LaPNVba1bNWefw/kapKWIhAzLnHmPytSMkaKIT1I5qUoJgkbu8PYYmFzcASCBFt7Yk6DcJnxlEVKRbNov9ndyUbN0axuN9TrNp6blvd+wXZHINhwk7gRoNy4e3ha50BLd3G/XwUjmiRxk6EA7ty5e3x11sdB8+a79GfsUuYc7TunUcJj4FMwDlc08SfAho/pQ+FdYggzmETwn/8AUwa258EiK3GyewnqYPhx0tO79feisHtF9M98Zhx0ePHf0cCiSzdrcngdB9jwFxr4LZpB3Ow9jdNJ3f33o/p+gP1GuS4dm9rsee66+8Ad6OdPf1bPgrsykHDM1zXN3OaZB/Q8l4ph2APGupgAwcwEtuOZhehV9utptNZrD3qxYYIB7rACd4ddpieO5DbQSpotBoIPFbOa7keK52V2io1hZwPHcR1YbjqJHNM2wdCDOnzvTIz9QXH0K25jqZv5pthMSCLoytgg4QQgX7Kcy7b8v0RbADLCtkpyMJLdPD9FWdmY/K6HeRV2wNRr2yClZG0MgrOH4MZNLKqbYwX9j8Cr85tiq1tWnc+7il4p2xk40Uk4e6NwmAadVPXprVGrCbJsXFIPZsWgS1zmSAb3OnG2sapztDZzKTW1KQAaIBA0g6O+eSWYTFgAAnxOqc7JxzHzQJBkGOm9vxH9kh2PVAFdkiUpxdJF4nEmk51L1g0kAzuSyviHFFGLBlJAdULFy5pWJ9E7Y8xTAl1VL3bVcdSo3Y4lGoNAuSZLWehK7hChrYlQVcSIW0DYPVmYGqqXbWs8VPQ/ZYA483uAuegIgdVc6NUU4eSA5x7pIkMbN3n4dCl9XsYXipV+kF2fMGuJbUzvdculsAAXKTlvgfiq7Z55QqBpu2TrqR4cITLYuzXVagfVJbT3kTLv2RGg5qfamxPo1dtJxDvq2vmI9bdCko4msywyuHIkH+KR5JCj6j3L0PTdg7cpsytpuDGgAANMQN1gq1WJf3jcm5PElVw7XP26ThzyyP3hPuV1OEsOir6dpNsk6iLaSENSihn007rUEDXpK3UmefKDQsc1Q4Yet+L+lqLqtUGDb634v6WqbqOCjpuWFYymATEa2yyBHKbx1uhTEjTS+ut9TvPSya45ggIelhHuBc1lQgWJa1z2jkYFvFJvkraAi3S/GxFh4qOs22lr8wiRT3ggxOh+CixAgE6WPEHzW/oH9iBtXvNHMD2qxUm94+HP2Kt5pqN6t96tDB3j4JEHuOmtgVzLxE3Ol+H2YlSC/PXTpxiY8P1XL+lrwQJG7fqfO0qb1iT10vuO9omPCOioRMxbixvnfpabAXnf/ZW/H0AKLmTI9MXX/aaCdPxFUzGNvYzc+ERvV0xR7r50zj8rUtcjOxXqmHIhzSWkXBEgg8juVh7NbYxecAsc5s/5mW2hu62V/CbHmgcBRa6oxrvVLhPgJ13aK3YPs1TaTkrPa1xJySHa/dvPvS8+VQdJDcGFzV2H4HbsuIOWwbmaDOSWgzJu0GRra8AqyYd7Xi3kdV5JtOmXVvTMcWuhsOHdMtaGyI0nKiqe363ozRe7LMd9hyOgGSLbzpLcpud9wbdR1AJXPR3PRcZh8O52V72Nfu7zQ7yJv0ULm1cKWkuzMndrA1BCoIwOGr0Q5lJrWj7Ya0Oc48XgknxJV3/4eOeylUovcXim4BhdqGOHqTvALXeBCCOZS2GTwSjuXXC7Up1Gy0+HBItrVDJKh2lscg+koHKdS2bHpwS0Y0vhjyBx1Rwgluhcpt7MjJLkHWpkJ4cMItpyQlXDBGYJyTxU9DC1HaNPuRXogEZhq8LJP0OSXc3hsHXeHfVDKNXSDECbAXXf/wDLETmJ9nuTLZ+1GteL2NnfA+H6rnGvDXOyQ5hNiNATcgFJuXA2oiWrg2jQLaJe4laTE2A6KM5y5FRWOpgwfkH3oOrsgHQ+xV6kSaZCqjSdUcGtuToJAm070LSp5nAATyGpO5vzzRuN2YabS4vAaBJJsAOKVP2xSpU4pVqb6z7NLXAiky2Zx4PIsOCCckkbGLb3Hlang/UrkuqD1ntzxP3RlOjbDTctbWx1Olh6TMM6WtqGDvIIeTNhvPDcvMnspsf3akze2ZpBM2I3kcRI5qxYB9Ss1onMYJuQJghu/U3U+BOU92PztQhaI+2NbNimO3nD056wErpN5rNu1Sa99WsDfK3wUX0nj8ws4bQadpMKe6M0697TiJ9i9PqAQOi8kqOMuaNRm0O4A5vCAV6ANpWF0cNwZOuSfFNCVYgKStjpS+tignp0TypkGIQ+ztH/AIv6WLVeut7KMh34/wCliDLK0bhW7LdtHs3iLQzOOLSHA9BM+xLMDjK9CfRVC2bkWg88rgRyT2r2dxrIdTB606g+BlVp9HW/Xz/VKsop9xhi9uGq0ivQpvJBAeG5XtJEBwdfTW0KuYz1D0R5a7n56oHaD+46RNuhXNnUVmj67fxD8ys73wXeCr2GpyWkaZh+ZPcQwnMGiSYgBJgMmAPqE6Debi/tBlG0XyXTB10+GUf26IbZdenTcfTUTUaSNCWlsTMFvzZN8fXwZLThjUgg5m1cpLDaA1w1Gu/cnqVCGhHUbLtTr7fLhCu+IENf+MflZ86FU3DEG5Md/wBnFWfE7YoEEBxMuB9V2mVom8cChjyc2kiPB1WMcC4w02cb2Fr23zCsWD2rTbDvROY4d1hJ9YzIaY397w4pGcRg3t9G1lV7njJmq5A0F3dLgxhnfoXbkTsLYXonMz53157jX3bTH/cyjUxlPVwFrlDlwyySTiOwdTDHFp7kW2wRWc0yCA2xmZytJ15kpHWxRZUa9rgCCQHROWQJdHGNF6vjtj4aqMtRnfgd8QHmBALiLE9ZFl5ttjYzaeLbQd32PeziMzHuA4yCO8J5Sm0nHSI1NT1/cWbV2u5zm0qdRz5N+rogQCbzNhysvVdj4bE4fDirVyte4s7ktFQmACRmIjQnLJMTaRC8+2Th/o+NP0WizM0ttUlwptHrHOS495pE2BExY2Vl7Q9qu+RmDqpsNzWDU977LQI5nrotYdNDpZtTZe8LtLPYxPO3sUeOwjanrOE7iNfNef7OxdVvezHjPcg9MpMD5kprhu0xbXNGq0AatcDAALM4BB33gRMmBF0elrdC9SY7bmYYJzDqpTXZpEFR4XFU6rczHtIO8ER/ZcbSwzqcEtIlDqDUTdRwKjDQgH4s8ENVx7ltmNFioUmbymOz9n03ZgHEviWgulscMu7+6or8a/7yjGNcDIcRzBhC4t9zU0uxdK2Kp8QFioOIxlP79+cD4rFugxzH4xZ30nj9w/lcVn01vB//ALdT35YUxUb68CybTA1IoXb/ALQZj9GYbWL90k6N9vzCp+Gwk1WA72k+RIj2K+YwtdXD8+Y5y3KYMC9wOFlXNp/84z/Rp/kagUbpv1Oc6tL0/Aga+XFhfDJM6x5DoFc+xlKSBuyP0v8AbbpKpNEd+f2zzE3gkbxKuXZObCYmm+ctvtt4IOl87D6nyorfaV0Yl8cSP4nIF2MnjoNb7vciu0f+e/53lCMw9Esk14dE5DTdr93MJ80qbet0NxqOiNklTEtL3HQHMRu1BLRAmNwjTmNRZTiSk+E7SYik1rKeIORoAa19KmbDdcO96NJT+md2I6tVVEr8SVA+uonuUD3J0mTxjZK+smOwjLHfj/pYkbnoqjXc3DuLSQfStuP9iTORTjhRbhXexxDHvbBIlpLZg78pseUoN0TrBsfk8VDQcS2Tcm5M3JPHmuXVTc30A04CNB8lFtuZb2JXPjxvzPPndL9pYrukH2/qua9YWuNL2OsnWd8RpaI3yl+KrWF933uZ3fZ6HrvQujU2wnCUh6APjeT5PRuDr1H1QKBIqk9wggGY4kgaSpWsnAh3FrvzKrsDnGAJ1McgJKQnQ1qxvtdmIFd3pnfXCC4HKD6rYJA7vq5UAKp+02R1/quhnREyfMbuqJpB7HOh0FsiSC0n7JEET4EcUzdmaaROwd0OiGlzmi83aGF35wpGOTrZmzjXwQEgO+lQCRAvTptvA6HnCk2dsHKM9Zoe2WgQ5wvZzmmL3a6x4jgtUqVipY9T27i3DVIIK9c2CRH0j1i8CRwBs0t85PUrzGtsVzahaHd0+p3XZnA6W6cCVdNjYGrApB72OptGUkMyvmS9s3iNxI3hNjkUlsKeKWN7mYnaOJNRz20HOphzhLCDGW2k5jpFgdEHtbEYd1NmJqGp6RtT0dPKWtiAHlzpBJAOnMnVOMNWq4ZkVqQDJIztqZyJcTLwBl1N4jXfCpWIa2oXPqAlpcZvEbxHMwPalww1JztjsmfVHRSGOzq9BrHCnUDXuME1JJJNwS5oMgkkzxKXjDhlX0r6rHZWuIDC4Em3rPyi1ykGJMHuklugnUDhI1XVPGumZJO/fPHqqNuCW3yi/YFge4QbGS65OXLrJ+dEqqEVNoG1pdA/06Ry+1gKZ9karZp02kF7yC4D7oEBoO92jjG5kcUNsnZ5GLbIi1Qf/E8LVHk1yuhHgcTUYKzqbspaGkm33wBr196b4DteT6IVhr3ZAtGaIEmRr0nXRA4bBn0eJ/Az+axBPwc/RAbguIPQ1YXSxHQy/P7L/hMZQrNGSJOgL5J6RGYXUNfZxM98joB8ZXmuFdUYGOY4gl7hGgkCmZ9vsT/ZPbF4DWVdIAzEEmCSJmb/ANlPKDjwVRmpclidshu97z/uj8oCjOx6W9s/iJd7yjsPW9Ixr2vs4SCA0W8ZW/RH75Pl8AEKkwnCIJS2bTGjGjoAsRbcMOLv3n/qsW2zKQTVQuSbIuqFA0afPBUolZSCf8Y6kCYa4nLu0sfeEp2n/wA4z/Rp/kanZqNGNr7z6RsARJmGjW2rgku0H5sbTsR9UwQYmWtDToeIK1rZe/5BXf2/BW6FEvc5jQCS42kDfxNhvVx7FUyIB1FN352KlPOV86SXXjmRZXzsUc0HjTd+dil6ReNlfVeSPv8AhlR7SH69/U+8qMbWrNZ6LMwsALYNKk60EWcW5vGZUvaaPpDxuzaxxJ89EteLmOe6EjL52UYvIvYIfmL3szgiXnMQ3vZczpDhOsbjBkXhO3JDlaXmO63vEW0gEtbBcdbDU67978jgqOkXJP1fYGqIZ6LqMPzZDvpnl+8P1TpoTAGcVK1x9A4AT9YLfuKGs2N4PQpjsY9w/jP5WqaXoUrZWOMT6MH6s9y+XMCDl3GDe4g+KHqVL+DftTuG8W8N2huFLtEwf/rPtQdZ4mwbEDQEjQb9UzfcU+Uc1nG2unIeXEc0Di4gW3fd67/0U9QNtZuk6n4adEJiQI3afeJ92nRZL8BR5GlUVDg2BrgKbZPN3e0Pmk2Uk0wLm9kyqYkDD5Bpu6ZglTR3x13dFOONvFhc+zid+/5G5EYcGH6aQbET3m7h4a8OMId7efHcOPtU2HaYf0vZw+03h8beMJq5BlwXTszVy4SnzxYPsYPguWbYfUcaAYAwNdUJuSHMaBE8CAUr2bicuHpif+tm936JxtrCjDU6lYObDnBgp6O9QSQ+e9/mae3ctinuxc2uCwbOLKlMU/Rd4tH1hqG8tYZFM20OUfhnVRO+l0H5G5qjQJmGhw5E2zear+xe0bQC4U3H0bc7gSB3CWNEXGhPHfyTWn25pOPepPaOOZrj7SI81QtPZkzUmvFszjE4qrXe5jszMrQ507xma2BE37w8ku25UDWNpgy4vLyJuABlE9S53kUaNr0XB2IE5Dlpm1wXOzAuZcgfVkT71Xttu+uzEQ0iPSB0tc7hO48rWgxvOSyxTUO7Njhm4uf9HDcMHWzAHnYHx3e5SfRHMPeaR7j4iyhp1Zt3SOqJpU3/AGQB/uP6pqSJ3fDLH2Pcx2JpCwcHti2om4B6E+BO4q44DCD6VMff/I5UDs9nFZlryTaDmi8Cd9tDruK9Cxe0BRFXEBubIyo+JjRjjc7ghfcbj4VigbPAp4nmxv8ANYk1TBw7BD/1PfWVmxOJaynUn7eVg5d4Ok/u+1JcViWekwwJ/wAtzXO5B1VxHX1CnRd/PsBONL56lPFK1L/VqflopWxtmjk3+Y8Jy54ilJAirUJ5AtpQf4T5JOw2Z0Z/NckZlQ7Duj0XsrAwlEfse8k/FNgUk7Lv/wALR/APeU4a5SFZ2FixpWIjDdUqBu754Lp5XDDcKyiMqhw7fplVzgCHOdaNMoJF+oBSDakDG04AA9DT8zTaSfEknxT3EPjEE/tv9zlXNqP/AMZT/wBGn/Latlsl7r/QYb6vZ/4VjEHvH8TvYf7q+9hHQG/6bvztVFOXMc2mZ3vCuvY+oJEWHo3fnao+j/kZb1fkj7/hlZ7Tf8xU6/1OS6tumdBqdRGosLcPeju0bv8AEVOp/M5BOLALzMXjLHsSMvnZRiXgXsTOJNR2a5mpOusOkwROt7jdu1DxxVffkDiMuhP2uE8k+VPSPkm6tcEVRC1EU8IeoE+YmAK8I3ZTu678R9wQrwptnmA78XwClnyUf8jzazdNUvqNv6zjpeI3c0VtUmcpgHfLv1sgqhkmAPF4d/FMFFa3AaZur+Imw3RAgW59UJihbU6DcBuU7gTGmkbzpAQuIJjdpwO603QykqCinZBUMd0GRPxUmHE1G9eu7gg82iLw3+Y3r8FOh7Ruqy+u8/Z59VNSB7+mn3TxGkH3++FFW9aLa8Bx6qWmBBvu+6Dw52KfFqxcuCWlUgNE6GVYu3tWXU2bhmdy7wYP6FVtN88OY4p32zeTXHJgTF5WJrxCamRlhbyIUHK7qimlbF2bJNblj7LMBp1abrtdBI5gkC+71lHtjDF76VBhJjvXNyXHKDO+A0+C3sNxbTJ4mN+7f7fYsxNWHtePWG/pcfHzT3BOCdbkv1ZRk1eww2f2WqEjM4ME8S63S1+Sf0ezVJsTUeSbEjJaeRB3xqhdjbRbUcJDiRABkAC145yrGKWYWJB8T8ViNUU96AsD2VLKjXtqgkHQtj+IH4J3s7FNNcDWfSfkeisI3JqZNyTzJ+fJULs/tMnEsvuf/LeugtSlZ02oOKQ+OKaaNeYMMaRO762mJ8ifNJ61VpfgzAu8A8wKxgHj6zvMpThtoE0sTJ/6Tf51FDfTf+U5PP8ANBVG0b+dhC1T+fcGqEFtKd9V4PMRSj3nzSgaN5gT41CPgET6b/L5VXe6n+iDa6zejf5hUuWVleJUX3suYw1L8JPiXEn2lO2PSDs2f8NS/D8SnLHKceFtesUDXLFpxy/aVL749/uUI2rREd/+F36IU7OK5OzVbsReIrmJ2g01iYcO865Go70Qkm0Ks4phH/aYPJjQrjj9jB7SJynUO58+Sp+PwVSnXb6RpADYzD1TFhB6QlZG9vdB41z7MQhpzEhoPeOokSTa2ngrT2axIpwcs9xwgH9sfoqnV1Np7zverZ2aohzW2+w78wU3SfyMq6t/+a+div7edNZx438y5APTHtE2Kzh097kucEnL52UYf417GxGbz9xVnyqr71boVPRrkl611pBXNUFRqMeEPUVMiaDBKgWsJ9rr8Auqijw59b8XwClyclUfKxpiqxIgkxwzW8gh6trTYE2LiY14WXNRxjUD3rVSZN+Pqi2u7kupb7A7mngcBu/a3KDEC2m7h04qaoOZNhwFoCHxLRHGw1J4Dgslwwo8gdZ0uJ4lEUTDweBQ1aMxgQJt0U7dVMuSh8BFWp3td/HmpGO7rtb9ePX3qB1QSL8PmwUgqd029ipixMkck+5PO1Ymox3UeQYf6kgPwVk7QCWB33Xnyc1n6BbDdMXLaSK7WpE6ai/guqFwiKAufwn58pQ+DiS0mOfMLaphXcSxtqj0VM6d2TuvJBPsQnpJIUhf9XTFjAi0fedwKEpgl7WzqWjzMKiUtiNRtsfdm3Q9w5g6L0DA6XK867POPpoGp4r0HAv3EEe5D2CxkW3McW4jC0gdfSOdzApkNn953kqDsGt/iGf7vyOVg7UYjLtCjl7xFICPxGrw/ZIKq+yMPUdUa5oIF+9FhYiJ0vp4rYukbNXKyPCVO5X/ANMfzaShNcRQ35XGQNfXBjqneA7L1HSHXkAQy5bcGSTYWBHinmE7IMbGaBGmjnzrJOgPMToskwoo8/p03ujK2wcTO7dr5Jjg+zGJqAQIHE2HHU667pXo+H2bRZdrJPF3ePtsPABFpToYrK3svYVelSbTDmd0H7JNySTfMN54BHN2dieLD/tP/knbFKHodgtxCMFifusPn+qxWAVFi47cgfTYEO9reCFNSqf+2395/wD4qNzn76oH4WgfmLk22BpRM+k3h70M/Cs0yzPM35FRvqDfUef3R+VoQlasOBPV7z7CV3iZnhRwOz2FF/o9PxaD70ke+mzFVGtytaGwAIAFqZgR4pqYP2Wjo0D2pRtrZtQu9NTJJgS3fa0j9Fijp3R0pa9in9onTXd873Ja5yN2oS6pO8ged5UlCniXeqx3gwD2kKKduTLcfhgrARTcb5T5FWc1UFT2Hi33MtH7T49jZXWdUdPcbsn6mp1RK+ooKj1y4qNxTZTExgcVHLmgfW6/ALT1zR39fgFPJ7lCXhCzUtafDRbqvkkwfG3sFlw4/P8AZbqvEnx/a9vxTX3Ao0+eWnVQ4gGNdw3QpnO5HToocRPLQczoPJDLuHHkDrAZzGk26KcaoesIcRMwdeKnUy5HS4JM1xfh82XU2Nlxmgjw+HBbLxBT0xbRy74KybSM0XfiB9jVWA73J7iMRNMzvcR/CtxvkVmTtMGwI70cWuHm0x7UJ9olGbPe0VGlxgTdDPoOY7K6JtoQR4EWKZLscu4zfV+qZpPeHkQR7/YhsO452Ea5mx1kJjRwTXMY5z4AabACfWdeSrFsvs7UfDmUIH36ndHUTfxaEW/cQmr2EbCadYEktdkY6dQHljXE8IzTyV3w+1GuDWvaGEgd7OMpt60SCAfHVV7tdsg0HUXF4cXNIkCACwiw4+tyR/ZzGufOe5G8AAnqNHfOu5kaA3UqHj+zYfUFZuWXNb9YXF2gyQ0X+yB5+CY0tj0m+tLzzs237I+MqfZYAp23k/BTPKTKb4KYxRC6wgAAcBYeSgcpnKJyCw6I4WwFuFtdZ1GNXS0Fi442sWli44rf0kkLgucdxUlMiPZ5WXUqknBjTcVr6MeIRUrFxgM3Bje4oinhWjWT1K20KSFxqQDU2bSzF3o2SdTAknjK2MK3gisqx7mtuXADmVx1EHoBBHIhebNNh0V/xm3cPTaSagjSRcTuFl5wMSNAlTmkMUG1wSkqNxXJeVwSkuQaiY8rmkdevwCwrmkdevwCW3uNrYKIHzcrt5+RYe26GNUrlz+KY5regdLCaj+PAc9w8vgoMRUt4Dlu5KM1QoX1JQSyWHGByTJ8lO/RQlhEEgohsT3tN8apSGSIMy7YZtYddER6cD1GNbz9Y+ZWYfDPquhrXPdwAJ9g0RJAto19GOgcCeVx5ptTcN8azcA7huO/qj9ndkqrr1XtpN4es791tvaj8bSwmGblps9PWcDlLzLW8XltmwOGvPVOjFpWxEnqdIquHEuaHaSBew1i5Ru26LqeIfTfGZuUHLcSWh3L7wCK2TQe11PJTLy14JMDK24JJc6wO9F49tOvjnkZcjnBhdNs0AZpOlxHCy1T2N0eIu/Y7Asbh6VQsb6QgkuiSAScsT6vdjRWQVEqwjQxjWNFmtDR0Ai6kOIRcgLYRf8AEdrfR0HEwQ9wA3EObJvuPdb5lJuzvdJzW3GfMeEKPtv2joVMtEZnmm8l7hORti0t17zpj281rB4um0jMHNIjKW5iHtGhIB3iE3G+wjLGpJnoWzH9zKddfMkf0qZ7kt2UDl9ITd4EDg0THjcowuSpcj48G3FcLRctZlgRtbWliw02FuVpaWmGwsWitLTCtUvif1+KlCTtxtY+rSDd/ffcWjRoM6cVh9MfWqhv4GAHzeXe5OsTQ4zIWrtOi0wajZ4Ayf3RdLjgmn1y5/4nEj931fYiKVJrRDWho4AAD2LLZ1ImG1Z9SlUdzIyD+Mg+xcuxlc7mM8S/2DL71ixdubZG5tR3rVXdGhrR7ifaoxgWC5bmje4l5HQuJhFALoBdR1shqUGlpa4AtNiCJBHRVHbXZtzO/Rlzd7N7RyO8e3qrnELZCGUFIKE3Hg8sZWUkr0CrsTDucXupNJOpjXn156qt7Z7POpy+nLmbx9pg58Rz8+KQ8ckO1xfAiK4Zv6/AKQqNu/r8AlsNEYc42A8gphg36uho/aMKc4l2ghg4NEf3UJO/XmUNBWZ6Bg3lx5WHtWqYLTIMH3Jlgdi16t20yB953db5nXwlP8F2RYL1qhd+y3ut8XG59iNQb4AcyoGXHeSfEnkm2B7M4ipct9GOL7H93XzhXfBYCnStTptbzAuerjc+KLDCmrF6i3k9CuYPspRZd5NQ8+6390X8ym9OhlGVgDG8GgAeQRno+S3kTVFLgVJt8graQ3yVBiNnUqhBdSaSOITNtFGUKMaLWzEhO3YpczI1oY3kIHWAotj9kKlIn68BpJJhgzeDj6qtDXALv0yCW4yK0nNZhA7vz4rz3amG2g6RUzOEm1Oq1jY3CBcjqVf6pJ5Kn9pqGLc5oph/o4Ob0ZAcTuvrHQePDHwanuUjF4Woyo1rmBr5kMBDstxGYCR56q2UMe1mUV+4XCTAJyzvy6j2pG3ZFVpP1FczqcsHWfWg+5HO2Li63eyCnpAce8eZIBM+AXY3ptg5PE16HoeydoU6lJppklgGUSIPdsTHOJ8UX6VIOy+y6lCiWVHAkuLrSdQ0RJ10TlbyaibMtgqALtiw0nBW1w1bzLDbNkrAuZlblaYZKxalYuOKaNfAe9y7WLE4QbC6asWLDTsLQWLFxx2FtYsXGmLBqevwCxYuOOjqsWli048+7SMDcTUAAAkWAjVoJSwrFiilyVRNBW/sNh2OD3OY0uBsSASOh3LFi6HJ0+C2PXLFixVE5M1dBYsXHHa21YsWnEjFOFixAwkdBYsWLjTTt3X4LhyxYuOInLTFixF2ADFixYgCMC7YsWLjTtacsWLjDBoFpYsXHGisWLERx//Z;" vertex="1" parent="1">
          <mxGeometry x="575" y="1110" width="383.95" height="200" as="geometry" />
        </mxCell>
        <mxCell id="0-I5_G3RzfP3J93G6mHh-60" style="edgeStyle=orthogonalEdgeStyle;rounded=0;orthogonalLoop=1;jettySize=auto;html=1;entryX=0.783;entryY=0;entryDx=0;entryDy=0;entryPerimeter=0;" edge="1" parent="1" source="0-I5_G3RzfP3J93G6mHh-59" target="0-I5_G3RzfP3J93G6mHh-53">
          <mxGeometry relative="1" as="geometry" />
        </mxCell>
        <mxCell id="0-I5_G3RzfP3J93G6mHh-63" value="" style="edgeStyle=orthogonalEdgeStyle;rounded=0;orthogonalLoop=1;jettySize=auto;html=1;" edge="1" parent="1" source="0-I5_G3RzfP3J93G6mHh-61" target="0-I5_G3RzfP3J93G6mHh-62">
          <mxGeometry relative="1" as="geometry" />
        </mxCell>
        <mxCell id="0-I5_G3RzfP3J93G6mHh-70" value="" style="edgeStyle=orthogonalEdgeStyle;rounded=0;orthogonalLoop=1;jettySize=auto;html=1;" edge="1" parent="1" source="0-I5_G3RzfP3J93G6mHh-61" target="0-I5_G3RzfP3J93G6mHh-69">
          <mxGeometry relative="1" as="geometry" />
        </mxCell>
        <mxCell id="0-I5_G3RzfP3J93G6mHh-61" value="INFRA" style="rounded=1;whiteSpace=wrap;html=1;fillColor=#f5f5f5;gradientColor=#b3b3b3;strokeColor=#666666;" vertex="1" parent="1">
          <mxGeometry x="120" y="1590" width="230" height="70" as="geometry" />
        </mxCell>
        <mxCell id="0-I5_G3RzfP3J93G6mHh-65" value="" style="edgeStyle=orthogonalEdgeStyle;rounded=0;orthogonalLoop=1;jettySize=auto;html=1;" edge="1" parent="1" source="0-I5_G3RzfP3J93G6mHh-62" target="0-I5_G3RzfP3J93G6mHh-64">
          <mxGeometry relative="1" as="geometry" />
        </mxCell>
        <mxCell id="0-I5_G3RzfP3J93G6mHh-66" value="" style="edgeStyle=orthogonalEdgeStyle;rounded=0;orthogonalLoop=1;jettySize=auto;html=1;" edge="1" parent="1" source="0-I5_G3RzfP3J93G6mHh-62" target="0-I5_G3RzfP3J93G6mHh-64">
          <mxGeometry relative="1" as="geometry" />
        </mxCell>
        <mxCell id="0-I5_G3RzfP3J93G6mHh-68" value="" style="edgeStyle=orthogonalEdgeStyle;rounded=0;orthogonalLoop=1;jettySize=auto;html=1;" edge="1" parent="1" source="0-I5_G3RzfP3J93G6mHh-62" target="0-I5_G3RzfP3J93G6mHh-67">
          <mxGeometry relative="1" as="geometry" />
        </mxCell>
        <mxCell id="0-I5_G3RzfP3J93G6mHh-62" value="DATCENTER&amp;nbsp;" style="whiteSpace=wrap;html=1;fillColor=#f5f5f5;strokeColor=#666666;rounded=1;gradientColor=#b3b3b3;" vertex="1" parent="1">
          <mxGeometry x="500" y="1570" width="120" height="60" as="geometry" />
        </mxCell>
        <mxCell id="0-I5_G3RzfP3J93G6mHh-64" value="SERVER&lt;div&gt;DellXR11&lt;/div&gt;" style="whiteSpace=wrap;html=1;fillColor=#f5f5f5;strokeColor=#666666;rounded=1;gradientColor=#b3b3b3;" vertex="1" parent="1">
          <mxGeometry x="690" y="1530" width="120" height="60" as="geometry" />
        </mxCell>
        <mxCell id="0-I5_G3RzfP3J93G6mHh-67" value="HP&lt;div&gt;DL 360 Gen 10 Plus&lt;/div&gt;" style="whiteSpace=wrap;html=1;fillColor=#f5f5f5;strokeColor=#666666;rounded=1;gradientColor=#b3b3b3;" vertex="1" parent="1">
          <mxGeometry x="690" y="1610" width="120" height="60" as="geometry" />
        </mxCell>
        <mxCell id="0-I5_G3RzfP3J93G6mHh-72" value="" style="edgeStyle=orthogonalEdgeStyle;rounded=0;orthogonalLoop=1;jettySize=auto;html=1;" edge="1" parent="1" source="0-I5_G3RzfP3J93G6mHh-69" target="0-I5_G3RzfP3J93G6mHh-71">
          <mxGeometry relative="1" as="geometry" />
        </mxCell>
        <mxCell id="0-I5_G3RzfP3J93G6mHh-80" value="" style="edgeStyle=orthogonalEdgeStyle;rounded=0;orthogonalLoop=1;jettySize=auto;html=1;" edge="1" parent="1" source="0-I5_G3RzfP3J93G6mHh-69" target="0-I5_G3RzfP3J93G6mHh-79">
          <mxGeometry relative="1" as="geometry" />
        </mxCell>
        <mxCell id="0-I5_G3RzfP3J93G6mHh-69" value="OS" style="whiteSpace=wrap;html=1;fillColor=#d5e8d4;strokeColor=#82b366;rounded=1;gradientColor=#97d077;" vertex="1" parent="1">
          <mxGeometry x="125" y="1710" width="225" height="60" as="geometry" />
        </mxCell>
        <mxCell id="0-I5_G3RzfP3J93G6mHh-74" value="" style="edgeStyle=orthogonalEdgeStyle;rounded=0;orthogonalLoop=1;jettySize=auto;html=1;" edge="1" parent="1" source="0-I5_G3RzfP3J93G6mHh-71" target="0-I5_G3RzfP3J93G6mHh-73">
          <mxGeometry relative="1" as="geometry" />
        </mxCell>
        <mxCell id="0-I5_G3RzfP3J93G6mHh-76" value="" style="edgeStyle=orthogonalEdgeStyle;rounded=0;orthogonalLoop=1;jettySize=auto;html=1;" edge="1" parent="1" source="0-I5_G3RzfP3J93G6mHh-71" target="0-I5_G3RzfP3J93G6mHh-75">
          <mxGeometry relative="1" as="geometry" />
        </mxCell>
        <mxCell id="0-I5_G3RzfP3J93G6mHh-71" value="LINUX" style="whiteSpace=wrap;html=1;fillColor=#d5e8d4;strokeColor=#82b366;rounded=1;gradientColor=#97d077;" vertex="1" parent="1">
          <mxGeometry x="455" y="1710" width="120" height="60" as="geometry" />
        </mxCell>
        <mxCell id="0-I5_G3RzfP3J93G6mHh-73" value="RHEL-9" style="whiteSpace=wrap;html=1;fillColor=#d5e8d4;strokeColor=#82b366;rounded=1;gradientColor=#97d077;" vertex="1" parent="1">
          <mxGeometry x="650" y="1680" width="120" height="60" as="geometry" />
        </mxCell>
        <mxCell id="0-I5_G3RzfP3J93G6mHh-78" value="" style="edgeStyle=orthogonalEdgeStyle;rounded=0;orthogonalLoop=1;jettySize=auto;html=1;" edge="1" parent="1" source="0-I5_G3RzfP3J93G6mHh-75" target="0-I5_G3RzfP3J93G6mHh-77">
          <mxGeometry relative="1" as="geometry" />
        </mxCell>
        <mxCell id="0-I5_G3RzfP3J93G6mHh-75" value="ADMIN" style="whiteSpace=wrap;html=1;fillColor=#d5e8d4;strokeColor=#82b366;rounded=1;gradientColor=#97d077;" vertex="1" parent="1">
          <mxGeometry x="650" y="1754" width="120" height="60" as="geometry" />
        </mxCell>
        <mxCell id="0-I5_G3RzfP3J93G6mHh-77" value="OS&lt;div&gt;USER&lt;/div&gt;&lt;div&gt;STORAGE&lt;/div&gt;&lt;div&gt;NETWORK&lt;br&gt;Automation&lt;/div&gt;" style="whiteSpace=wrap;html=1;fillColor=#d5e8d4;strokeColor=#82b366;rounded=1;gradientColor=#97d077;" vertex="1" parent="1">
          <mxGeometry x="832.5" y="1690" width="120" height="140" as="geometry" />
        </mxCell>
        <mxCell id="0-I5_G3RzfP3J93G6mHh-82" value="" style="edgeStyle=orthogonalEdgeStyle;rounded=0;orthogonalLoop=1;jettySize=auto;html=1;" edge="1" parent="1" source="0-I5_G3RzfP3J93G6mHh-79" target="0-I5_G3RzfP3J93G6mHh-81">
          <mxGeometry relative="1" as="geometry" />
        </mxCell>
        <mxCell id="0-I5_G3RzfP3J93G6mHh-90" value="" style="edgeStyle=orthogonalEdgeStyle;rounded=0;orthogonalLoop=1;jettySize=auto;html=1;" edge="1" parent="1" source="0-I5_G3RzfP3J93G6mHh-79" target="0-I5_G3RzfP3J93G6mHh-89">
          <mxGeometry relative="1" as="geometry" />
        </mxCell>
        <mxCell id="0-I5_G3RzfP3J93G6mHh-96" value="" style="edgeStyle=orthogonalEdgeStyle;rounded=0;orthogonalLoop=1;jettySize=auto;html=1;" edge="1" parent="1" source="0-I5_G3RzfP3J93G6mHh-79" target="0-I5_G3RzfP3J93G6mHh-95">
          <mxGeometry relative="1" as="geometry" />
        </mxCell>
        <mxCell id="0-I5_G3RzfP3J93G6mHh-98" value="" style="edgeStyle=orthogonalEdgeStyle;rounded=0;orthogonalLoop=1;jettySize=auto;html=1;" edge="1" parent="1" source="0-I5_G3RzfP3J93G6mHh-79" target="0-I5_G3RzfP3J93G6mHh-97">
          <mxGeometry relative="1" as="geometry" />
        </mxCell>
        <mxCell id="0-I5_G3RzfP3J93G6mHh-79" value="APP ===&amp;gt; Manage&amp;nbsp;" style="whiteSpace=wrap;html=1;fillColor=#d5e8d4;strokeColor=#82b366;rounded=1;gradientColor=#97d077;" vertex="1" parent="1">
          <mxGeometry x="127.5" y="1830" width="220" height="60" as="geometry" />
        </mxCell>
        <mxCell id="0-I5_G3RzfP3J93G6mHh-84" value="" style="edgeStyle=orthogonalEdgeStyle;rounded=0;orthogonalLoop=1;jettySize=auto;html=1;" edge="1" parent="1" source="0-I5_G3RzfP3J93G6mHh-81" target="0-I5_G3RzfP3J93G6mHh-83">
          <mxGeometry relative="1" as="geometry" />
        </mxCell>
        <mxCell id="0-I5_G3RzfP3J93G6mHh-86" value="" style="edgeStyle=orthogonalEdgeStyle;rounded=0;orthogonalLoop=1;jettySize=auto;html=1;" edge="1" parent="1" source="0-I5_G3RzfP3J93G6mHh-81" target="0-I5_G3RzfP3J93G6mHh-85">
          <mxGeometry relative="1" as="geometry" />
        </mxCell>
        <mxCell id="0-I5_G3RzfP3J93G6mHh-81" value="Private cloud" style="whiteSpace=wrap;html=1;fillColor=#ffcd28;strokeColor=#d79b00;rounded=1;gradientColor=#ffa500;" vertex="1" parent="1">
          <mxGeometry x="450" y="1830" width="120" height="60" as="geometry" />
        </mxCell>
        <mxCell id="0-I5_G3RzfP3J93G6mHh-88" value="" style="edgeStyle=orthogonalEdgeStyle;rounded=0;orthogonalLoop=1;jettySize=auto;html=1;" edge="1" parent="1" source="0-I5_G3RzfP3J93G6mHh-83" target="0-I5_G3RzfP3J93G6mHh-87">
          <mxGeometry relative="1" as="geometry" />
        </mxCell>
        <mxCell id="0-I5_G3RzfP3J93G6mHh-83" value="Public cloud" style="whiteSpace=wrap;html=1;fillColor=#ffcd28;strokeColor=#d79b00;rounded=1;gradientColor=#ffa500;" vertex="1" parent="1">
          <mxGeometry x="650" y="1830" width="120" height="60" as="geometry" />
        </mxCell>
        <mxCell id="0-I5_G3RzfP3J93G6mHh-85" value="VMWARE" style="whiteSpace=wrap;html=1;fillColor=#f5f5f5;strokeColor=#666666;rounded=1;gradientColor=#b3b3b3;" vertex="1" parent="1">
          <mxGeometry x="455" y="1950" width="120" height="60" as="geometry" />
        </mxCell>
        <mxCell id="0-I5_G3RzfP3J93G6mHh-87" value="Azure&amp;nbsp;" style="whiteSpace=wrap;html=1;fillColor=#dae8fc;strokeColor=#6c8ebf;rounded=1;gradientColor=#7ea6e0;" vertex="1" parent="1">
          <mxGeometry x="650" y="1950" width="120" height="60" as="geometry" />
        </mxCell>
        <mxCell id="0-I5_G3RzfP3J93G6mHh-92" value="" style="edgeStyle=orthogonalEdgeStyle;rounded=0;orthogonalLoop=1;jettySize=auto;html=1;" edge="1" parent="1" source="0-I5_G3RzfP3J93G6mHh-89" target="0-I5_G3RzfP3J93G6mHh-91">
          <mxGeometry relative="1" as="geometry" />
        </mxCell>
        <mxCell id="0-I5_G3RzfP3J93G6mHh-94" value="" style="edgeStyle=orthogonalEdgeStyle;rounded=0;orthogonalLoop=1;jettySize=auto;html=1;" edge="1" parent="1" source="0-I5_G3RzfP3J93G6mHh-89" target="0-I5_G3RzfP3J93G6mHh-93">
          <mxGeometry relative="1" as="geometry" />
        </mxCell>
        <mxCell id="0-I5_G3RzfP3J93G6mHh-89" value="Orchistration" style="whiteSpace=wrap;html=1;fillColor=#ffff88;strokeColor=#36393d;rounded=1;" vertex="1" parent="1">
          <mxGeometry x="-110" y="1830" width="120" height="60" as="geometry" />
        </mxCell>
        <mxCell id="0-I5_G3RzfP3J93G6mHh-91" value="Docker" style="whiteSpace=wrap;html=1;fillColor=#ffff88;strokeColor=#36393d;rounded=1;" vertex="1" parent="1">
          <mxGeometry x="-170" y="1930" width="120" height="60" as="geometry" />
        </mxCell>
        <mxCell id="0-I5_G3RzfP3J93G6mHh-93" value="Kubernetes" style="whiteSpace=wrap;html=1;fillColor=#ffff88;strokeColor=#36393d;rounded=1;" vertex="1" parent="1">
          <mxGeometry x="-18" y="1930" width="120" height="60" as="geometry" />
        </mxCell>
        <mxCell id="0-I5_G3RzfP3J93G6mHh-95" value="GIT&lt;br&gt;VCS" style="whiteSpace=wrap;html=1;fillColor=#cce5ff;strokeColor=#36393d;rounded=1;" vertex="1" parent="1">
          <mxGeometry x="130" y="1930" width="120" height="60" as="geometry" />
        </mxCell>
        <mxCell id="0-I5_G3RzfP3J93G6mHh-97" value="Automation&lt;br&gt;Ansible&lt;div&gt;Terraform&lt;br&gt;&lt;div&gt;&lt;br&gt;&lt;/div&gt;&lt;/div&gt;" style="whiteSpace=wrap;html=1;fillColor=#ffcc99;strokeColor=#36393d;rounded=1;" vertex="1" parent="1">
          <mxGeometry x="294" y="1930" width="120" height="60" as="geometry" />
        </mxCell>
        <mxCell id="0-I5_G3RzfP3J93G6mHh-100" style="edgeStyle=orthogonalEdgeStyle;rounded=0;orthogonalLoop=1;jettySize=auto;html=1;" edge="1" parent="1" source="0-I5_G3RzfP3J93G6mHh-99" target="0-I5_G3RzfP3J93G6mHh-61">
          <mxGeometry relative="1" as="geometry" />
        </mxCell>
        <mxCell id="0-I5_G3RzfP3J93G6mHh-99" value="Devops Engg&lt;br&gt;Telco cloud Engg&lt;br&gt;CI CD Engg&lt;div&gt;Cloud Engg&lt;/div&gt;&lt;div&gt;Linux Adminstrator&lt;br&gt;Automation&amp;nbsp;&lt;/div&gt;" style="rounded=1;whiteSpace=wrap;html=1;fillColor=#f9f7ed;strokeColor=#36393d;" vertex="1" parent="1">
          <mxGeometry x="-170" y="1610" width="120" height="180" as="geometry" />
        </mxCell>
        <mxCell id="0-I5_G3RzfP3J93G6mHh-101" value="TIME&lt;div&gt;&lt;br&gt;&lt;/div&gt;&lt;div&gt;2.5 Month&lt;/div&gt;&lt;div&gt;&lt;br&gt;&lt;/div&gt;&lt;div&gt;3 Classes&lt;/div&gt;&lt;div&gt;&lt;br&gt;&lt;/div&gt;&lt;div&gt;2 class -- SUT-SUN&lt;/div&gt;&lt;div&gt;3 Hrs&lt;/div&gt;&lt;div&gt;&lt;br&gt;&lt;/div&gt;&lt;div&gt;RECAP:- Thur/ Wed&lt;/div&gt;&lt;div&gt;2 Hrs&amp;nbsp;&amp;nbsp;&lt;/div&gt;" style="rounded=1;whiteSpace=wrap;html=1;fillColor=#f9f7ed;strokeColor=#36393d;" vertex="1" parent="1">
          <mxGeometry x="958.95" y="1554" width="120" height="460" as="geometry" />
        </mxCell>
      </root>
    </mxGraphModel>
  </diagram>
</mxfile>
